<svg width="369" height="214" viewBox="0 0 369 214" fill="none" xmlns="http://www.w3.org/2000/svg">
<path d="M314.442 213.006L358.416 212.54L354.939 196.898L315.637 193.986L314.442 213.006Z" fill="#B78876"/>
<path d="M336.64 193.463L357.011 194.79C357.011 194.79 365.207 174.641 369 174.524L367.829 213.903L336.008 213.123L336.652 193.451L336.64 193.463Z" fill="#FB4E14"/>
<path d="M354.928 206.92C355.115 207.689 355.958 208.236 356.742 208.085C357.527 207.933 358.089 207.083 357.925 206.303C357.749 205.534 356.754 204.835 356.005 205.08C355.244 205.325 354.635 206.349 354.986 207.06" fill="#E0E0E0"/>
<path d="M367.818 213.899L364.61 213.701L366.94 176.022C366.94 176.022 367.759 174.287 368.988 174.531L367.818 213.91V213.899Z" fill="#E0E0E0"/>
<path d="M356.824 194.146C357.011 194.158 357.081 195.124 357.667 196.091C358.24 197.069 359.06 197.582 358.978 197.756C358.931 197.931 357.784 197.617 357.093 196.429C356.391 195.252 356.648 194.099 356.824 194.146Z" fill="#47506B"/>
<path d="M358.662 190.07C358.849 190.035 359.154 190.874 359.95 191.55C360.723 192.248 361.612 192.446 361.589 192.633C361.612 192.819 360.477 192.912 359.505 192.05C358.522 191.2 358.475 190.07 358.662 190.07Z" fill="#47506B"/>
<path d="M363.708 187.866C363.744 188.041 362.772 188.286 361.73 187.761C360.676 187.249 360.29 186.329 360.454 186.247C360.618 186.143 361.168 186.748 362.034 187.167C362.889 187.61 363.697 187.68 363.708 187.878V187.866Z" fill="#47506B"/>
<path d="M352.153 194.354C352.328 194.436 352.036 195.309 352.071 196.404C352.094 197.499 352.434 198.349 352.258 198.442C352.118 198.547 351.427 197.697 351.392 196.416C351.357 195.135 351.989 194.249 352.141 194.343L352.153 194.354Z" fill="#47506B"/>
<path d="M348.031 194.17C348.113 194.17 348.207 194.939 347.961 196.138C347.832 196.744 347.622 197.443 347.259 198.188C347.083 198.561 346.872 198.934 346.627 199.306C346.509 199.481 346.381 199.691 346.147 199.889C345.936 200.098 345.421 200.203 345.116 199.947C344.824 199.737 344.695 199.376 344.695 199.097C344.695 198.805 344.765 198.573 344.824 198.363C344.941 197.932 345.105 197.524 345.28 197.152C345.643 196.406 346.1 195.812 346.533 195.37C347.411 194.484 348.137 194.193 348.172 194.263C348.231 194.356 347.61 194.776 346.884 195.684C346.521 196.138 346.147 196.721 345.83 197.408C345.678 197.757 345.549 198.13 345.444 198.526C345.327 198.945 345.304 199.295 345.491 199.411C345.561 199.458 345.585 199.458 345.713 199.376C345.83 199.295 345.948 199.12 346.065 198.945C346.299 198.607 346.509 198.258 346.697 197.92C347.06 197.245 347.317 196.593 347.493 196.033C347.844 194.915 347.914 194.17 348.02 194.182L348.031 194.17Z" fill="#47506B"/>
<path d="M348.301 194.431C348.324 194.5 347.622 194.861 346.369 194.896C345.749 194.908 344.999 194.827 344.203 194.559C343.805 194.43 343.407 194.244 343.009 194.023C342.623 193.778 342.108 193.487 342.049 192.73C342.049 192.346 342.365 192.02 342.623 191.926C342.892 191.798 343.126 191.787 343.36 191.74C343.829 191.682 344.274 191.705 344.695 191.775C345.538 191.926 346.229 192.287 346.72 192.683C347.727 193.487 347.926 194.291 347.868 194.302C347.774 194.361 347.411 193.685 346.451 193.068C345.971 192.765 345.339 192.485 344.601 192.392C344.238 192.346 343.852 192.334 343.454 192.392C343.033 192.439 342.693 192.59 342.728 192.742C342.728 192.94 343.021 193.277 343.36 193.452C343.712 193.662 344.063 193.836 344.426 193.976C345.128 194.244 345.819 194.372 346.393 194.419C347.552 194.512 348.278 194.326 348.313 194.419L348.301 194.431Z" fill="#47506B"/>
<path d="M41.0468 200.717L37.6867 213.529L0 213.179C0 213.179 5.15134 209.301 24.0942 209.592L25.9323 200.717H41.0585H41.0468Z" fill="#FFBFA6"/>
<path d="M79.6347 27.246C78.5928 25.103 77.5391 22.9483 76.9303 20.6421C76.3215 18.336 76.1927 15.8552 76.9888 13.6073C77.7849 11.3594 79.5996 9.40268 81.9177 8.82033C83.346 8.45927 84.9148 8.62232 86.2729 8.05161C87.8417 7.38773 88.8486 5.86195 90.0311 4.639C91.8926 2.72888 94.3863 1.43606 97.0205 1.02841C98.402 0.818761 99.8654 0.842057 101.153 1.41277C102.441 1.98347 103.506 3.14818 103.67 4.53418C105.274 3.90524 106.902 3.27629 108.623 3.07829C110.332 2.89194 112.182 3.18313 113.528 4.25466C114.875 5.3262 115.577 7.28291 114.886 8.85527C116.256 7.97009 118.258 8.50585 119.195 9.83362C120.131 11.1614 120.026 13.0482 119.16 14.4226C118.281 15.7853 116.162 17.0781 114.558 17.3809C112.954 17.6838 111.093 17.9284 109.524 17.4974" fill="#474747"/>
<path d="M98.2612 77.7864C105.016 76.9594 109.84 70.8564 109.056 64.1243C108.611 60.3623 108.224 57.2292 108.224 57.2292C108.224 57.2292 117.754 55.2609 117.391 45.6869C117.017 36.1247 114.23 14.2631 114.23 14.2631C102.862 10.0701 90.1127 12.318 80.8871 20.1565L79.5173 21.3212L84.4228 66.873C85.1604 73.7215 91.4005 78.6366 98.2612 77.798V77.7864Z" fill="#FFBFA6"/>
<path d="M108.224 57.0895C108.224 57.0895 102.172 57.8932 95.5217 54.1777C95.5217 54.1777 98.835 60.9098 108.377 59.5587L108.224 57.0779V57.0895Z" fill="#AA6550"/>
<path d="M81.2144 31.1669C81.0505 31.1087 74.5177 29.5596 75.0562 36.082C75.5948 42.6043 82.069 40.7175 82.069 40.5312C82.069 40.3448 81.2144 31.1669 81.2144 31.1669Z" fill="#FFBFA6"/>
<path d="M79.8561 38.2242C79.8561 38.2242 79.7508 38.3174 79.5634 38.4222C79.3878 38.527 79.06 38.6086 78.7088 38.5154C77.9946 38.3174 77.3156 37.2691 77.1868 36.1044C77.1166 35.5104 77.1985 34.9397 77.3741 34.4505C77.538 33.9614 77.819 33.6003 78.1585 33.5071C78.4981 33.4023 78.7673 33.5886 78.861 33.7634C78.9664 33.9381 78.9312 34.0778 78.9664 34.0778C78.9898 34.0895 79.0951 33.9614 79.0249 33.6935C78.9898 33.5654 78.8961 33.4139 78.7322 33.3091C78.5683 33.1926 78.3224 33.1461 78.0883 33.1927C77.5849 33.2742 77.1634 33.775 76.9761 34.2991C76.7536 34.8349 76.66 35.4871 76.7302 36.151C76.8824 37.4671 77.6551 38.6319 78.6268 38.8299C79.0951 38.9114 79.4698 38.7367 79.6571 38.5736C79.8444 38.3989 79.8678 38.2475 79.8444 38.2359L79.8561 38.2242Z" fill="#AA6550"/>
<path d="M112.018 30.0461C112.076 30.7682 111.515 31.4088 110.765 31.4904C110.016 31.5719 109.349 31.0478 109.29 30.3257C109.232 29.6035 109.794 28.9629 110.543 28.8814C111.292 28.7999 111.959 29.324 112.018 30.0461Z" fill="#474747"/>
<path d="M113.095 27.823C112.931 28.0093 111.854 27.2989 110.378 27.3804C108.903 27.4386 107.861 28.2539 107.686 28.0792C107.604 28.0093 107.756 27.6716 108.213 27.3105C108.657 26.9494 109.43 26.5767 110.355 26.5302C111.28 26.4836 112.064 26.7864 112.533 27.1125C113.001 27.4386 113.177 27.7531 113.095 27.8346V27.823Z" fill="#474747"/>
<path d="M97.9559 30.7365C98.0145 31.4587 97.4525 32.0992 96.7032 32.1808C95.9539 32.2623 95.2866 31.7382 95.2281 31.0161C95.1695 30.2939 95.7315 29.6534 96.4808 29.5718C97.2301 29.4903 97.8974 30.0144 97.9559 30.7365Z" fill="#474747"/>
<path d="M98.6002 28.8152C98.4363 29.0015 97.3592 28.2911 95.8841 28.3726C94.4089 28.4308 93.3669 29.2461 93.1913 29.0714C93.1094 29.0015 93.2616 28.6638 93.7182 28.3027C94.1631 27.9416 94.9357 27.5689 95.8606 27.5223C96.7855 27.4757 97.5699 27.7786 98.0383 28.1047C98.5066 28.4308 98.6822 28.7453 98.6002 28.8268V28.8152Z" fill="#474747"/>
<path d="M104.513 39.4437C104.513 39.3622 105.414 39.1525 106.889 38.8963C107.264 38.838 107.615 38.7449 107.662 38.4886C107.732 38.2091 107.557 37.8131 107.358 37.3938C106.959 36.5086 106.538 35.5769 106.093 34.5985C104.337 30.6152 103.049 27.3191 103.213 27.2492C103.377 27.1793 104.934 30.359 106.69 34.3423C107.112 35.3206 107.521 36.264 107.908 37.1609C108.072 37.5802 108.341 38.0461 108.177 38.6284C108.095 38.9196 107.826 39.1292 107.58 39.2108C107.346 39.2923 107.135 39.3156 106.948 39.3272C105.449 39.4786 104.524 39.5369 104.513 39.4553V39.4437Z" fill="#474747"/>
<path d="M100.215 40.6741C100.45 40.6508 100.543 42.2464 101.972 43.3063C103.4 44.3779 105.098 44.11 105.121 44.3313C105.144 44.4244 104.758 44.6574 104.032 44.7156C103.33 44.7739 102.276 44.5992 101.41 43.9469C100.532 43.2947 100.134 42.3862 100.04 41.734C99.9462 41.0701 100.098 40.6624 100.215 40.6741Z" fill="#474747"/>
<path d="M112.427 25.2515C112.181 25.6009 111.15 25.2981 109.921 25.3446C108.692 25.3446 107.673 25.6824 107.416 25.3446C107.299 25.1816 107.451 24.8438 107.884 24.4944C108.317 24.1566 109.043 23.8655 109.886 23.8422C110.729 23.8305 111.467 24.0868 111.911 24.4129C112.356 24.739 112.52 25.0651 112.415 25.2398L112.427 25.2515Z" fill="#474747"/>
<path d="M96.4118 23.5954C96.2596 23.7818 95.8733 23.7352 95.3816 23.6536C94.8781 23.5721 94.2459 23.4906 93.5435 23.5022C92.841 23.5139 92.2088 23.6187 91.7171 23.7119C91.2254 23.8051 90.839 23.8633 90.6751 23.6886C90.5229 23.5255 90.64 23.0946 91.1317 22.652C91.6117 22.2094 92.4898 21.8134 93.5083 21.7901C94.5269 21.7668 95.4167 22.1395 95.9084 22.5705C96.4118 23.0014 96.5523 23.4207 96.4118 23.5954Z" fill="#474747"/>
<path d="M114.863 17.1752C114.863 17.1752 108.541 19.656 100.814 17.1752C95.7445 15.5446 90.0664 15.2417 89.001 16.3715C87.9356 17.5013 88.4156 22.3698 83.9667 24.4895C83.9667 24.4895 85.6994 33.6558 81.953 33.8887C78.2066 34.1217 78.3236 19.4929 78.3236 19.4929L86.6946 13.7276L96.2714 10.3733L105.509 8.97559L114.5 10.3034L114.851 17.1868L114.863 17.1752Z" fill="#474747"/>
<path d="M128.97 76.7733L157.818 103.632L203.419 72.627L217.679 88.9562L173.834 123.886C169.432 127.788 163.812 130.059 157.923 130.315C149.845 130.664 142.083 127.182 136.99 120.939L121.536 107.964L128.994 76.7733H128.97Z" fill="#FB4E14"/>
<path d="M102.172 65.2314L128.97 76.7737L128.069 84.1579L140.537 133.344L154.107 143.197L142.867 159.596C140.35 163.277 137.037 166.375 133.185 168.646L106.457 184.463C101.247 186.361 95.4516 183.915 93.2154 178.872L69.5778 125.517L45.8231 198.812C44.2894 203.552 39.5361 206.499 34.5721 205.789L25.1592 204.426C21.9631 203.96 19.8674 200.839 20.6752 197.729L47.2397 94.9781C48.6564 89.5622 50.951 84.5306 53.9833 79.9766C59.7317 71.3577 69.4139 66.1399 79.8102 65.8487L102.16 65.2197L102.172 65.2314Z" fill="#FB4E14"/>
<path d="M111.561 65.9965L110.566 60.6504L82.1633 58.752L82.1399 65.8567C82.3389 67.8716 85.6405 67.2776 88.743 68.5472L102.652 71.3075C106.07 71.5754 113.305 70.3059 111.561 65.9965Z" fill="#FB4E14"/>
<path d="M140.83 133.585C140.83 133.585 140.526 132.932 140.092 131.709C139.659 130.487 139.062 128.716 138.348 126.515C136.931 122.112 135.105 115.986 133.337 109.149C131.569 102.312 130.211 96.0693 129.321 91.5269C128.877 89.2557 128.537 87.4155 128.338 86.146C128.127 84.8648 128.034 84.1659 128.069 84.1543C128.116 84.1543 128.279 84.8415 128.56 86.0994C128.865 87.4621 129.251 89.2674 129.731 91.4454C130.726 95.9528 132.155 102.172 133.923 108.998C135.69 115.823 137.447 121.961 138.758 126.387C139.39 128.53 139.917 130.3 140.315 131.64C140.678 132.874 140.865 133.573 140.818 133.585H140.83Z" fill="#47506B"/>
<path d="M78.1713 101.211C78.2532 101.246 77.8084 102.643 77.0357 104.879C76.1927 107.279 75.139 110.295 73.9683 113.615C72.7975 116.934 71.7438 119.951 70.9009 122.35C70.1165 124.586 69.6365 125.972 69.5545 125.949C69.4726 125.926 69.8121 124.493 70.4911 122.222C71.1702 119.951 72.1887 116.829 73.3946 113.417C74.6005 110.004 75.7595 106.941 76.6259 104.728C77.504 102.527 78.0893 101.176 78.1713 101.211Z" fill="#47506B"/>
<g opacity="0.3">
<path d="M83.0522 66.4541C87.6299 70.0647 92.8749 72.8134 98.4594 74.5256C100.859 75.2593 103.388 75.8067 105.859 75.3642C108.329 74.9216 110.706 73.3026 111.408 70.9033C111.584 70.3093 111.56 69.5173 110.998 69.2611C110.401 68.9815 109.781 69.5289 109.254 69.9133C107.568 71.1595 102.592 71.4624 100.497 71.2178C93.671 70.4258 89.2338 68.7719 83.0522 66.4774" fill="black"/>
</g>
<path d="M127.05 113.722C127.05 113.722 127.132 113.908 127.249 114.292C127.343 114.677 127.53 115.224 127.671 115.958C127.998 117.414 128.338 119.557 128.455 122.236C128.713 127.547 127.682 135.164 123.678 142.374C119.674 149.583 113.739 154.51 109.079 157.13C106.749 158.458 104.735 159.32 103.319 159.821C102.616 160.089 102.054 160.229 101.68 160.357C101.305 160.462 101.094 160.52 101.094 160.496C101.083 160.45 101.855 160.17 103.237 159.611C104.618 159.052 106.574 158.144 108.857 156.781C113.399 154.102 119.194 149.199 123.14 142.106C127.073 135.013 128.151 127.523 128.01 122.271C127.952 119.627 127.682 117.484 127.425 116.028C127.167 114.56 126.992 113.757 127.038 113.745L127.05 113.722Z" fill="#47506B"/>
<path d="M157.654 117.077C157.525 117.147 156.261 114.025 156.319 109.937C156.354 105.849 157.689 102.762 157.818 102.832C158.005 102.89 156.963 105.977 156.928 109.949C156.858 113.909 157.829 117.03 157.642 117.077H157.654Z" fill="#47506B"/>
<path d="M161.19 115.656C161.084 115.76 159.153 113.21 158.31 109.448C157.432 105.686 158.076 102.564 158.216 102.611C158.403 102.623 158.064 105.686 158.907 109.32C159.715 112.965 161.365 115.574 161.201 115.667L161.19 115.656Z" fill="#47506B"/>
<path d="M219.084 82.7391C219.084 82.7391 218.733 82.4712 218.077 82.1567C217.445 81.8539 216.403 81.586 215.279 81.9005L214.752 82.0519L215.022 81.5744C215.373 80.9454 215.63 80.1883 215.747 79.373C216.017 77.626 215.584 76.007 215.068 74.9704C214.565 73.9105 214.015 73.3981 214.085 73.3398C214.108 73.3049 214.764 73.7359 215.384 74.8074C216.017 75.844 216.532 77.5677 216.251 79.4429C216.122 80.3165 215.829 81.1318 215.431 81.7957L215.174 81.4695C216.462 81.1434 217.586 81.5278 218.229 81.9238C218.885 82.3314 219.131 82.7274 219.096 82.7507L219.084 82.7391Z" fill="#AA6550"/>
<path d="M226.94 77.6786C228.029 75.0231 238.94 70.341 237.512 68.6754C235.651 66.5091 226.343 74.0797 225.5 74.662C224.692 75.2327 223.826 74.0448 224.599 73.5556C225.722 72.8568 237.325 65.2512 235.51 63.1081C234.503 61.9201 232.56 63.97 232.56 63.97C232.56 63.97 222.21 71.89 221.391 70.8534C220.559 69.7936 226.483 64.9367 228.591 63.4342C230.675 61.955 230.839 60.3477 229.445 59.9634C228.485 59.6955 221.929 64.1214 219.869 65.6472C217.82 67.173 212.259 71.4707 213.324 67.0914C214.39 62.7121 213.605 58.9617 212.692 58.0998C211.779 57.238 210.268 58.228 210.526 59.6023C210.737 60.7088 210.514 62.6655 210.28 64.1331C210.093 65.3444 209.601 66.4625 209.145 67.5922C208.665 68.8035 207.26 71.5406 204.028 73.9399L215.56 87.4506L217.035 86.4489C222.737 82.5937 228.087 81.1146 231.178 79.3442C236.927 76.0481 236.646 75.5239 236.166 74.9066C234.866 73.2644 225.84 80.3225 226.928 77.667L226.94 77.6786Z" fill="#FFBFA6"/>
<path d="M211.31 56.3113L215.044 80.4208L229.667 80.1762L230.346 75.6688C230.346 75.6688 238.623 75.6455 239.267 68.6805C239.899 61.7156 232.805 61.6224 232.805 61.6224L233.882 55.3213L211.321 56.2996L211.31 56.3113ZM230.686 73.2229L232.407 64.2779C232.407 64.2779 237.417 64.1964 237.031 68.2146C236.645 72.2329 230.686 73.2229 230.686 73.2229Z" fill="#343956"/>
<path d="M222.233 23.8555C222.233 23.8555 222.338 23.9137 222.502 24.0768C222.666 24.2398 222.865 24.4961 223.064 24.8804C223.462 25.6375 223.696 26.9303 223.415 28.4444C223.193 29.9702 222.338 31.6124 221.495 33.3712C221.086 34.2563 220.699 35.2114 220.5 36.2247C220.301 37.238 220.36 38.3212 220.746 39.3345C221.53 41.396 223.146 42.9218 224.446 44.4126C225.769 45.8801 226.846 47.4525 227.138 49.0016C227.455 50.5273 227.115 51.8202 226.658 52.5539C226.448 52.9266 226.202 53.1712 226.038 53.3227C225.862 53.4624 225.769 53.5323 225.745 53.509C225.698 53.4624 226.096 53.1829 226.448 52.4491C226.811 51.727 227.056 50.5157 226.717 49.1064C226.401 47.6971 225.359 46.2296 224.036 44.797C222.736 43.3527 221.039 41.8037 220.184 39.5558C219.751 38.4376 219.692 37.2147 219.915 36.1199C220.137 35.025 220.559 34.035 220.992 33.1382C221.882 31.3562 222.736 29.8188 222.994 28.3629C223.322 26.9303 223.158 25.7307 222.853 24.9852C222.537 24.2398 222.186 23.9021 222.233 23.8671V23.8555Z" fill="#2E3447"/>
<path d="M218.346 23.917C218.346 23.917 218.451 23.9752 218.615 24.1383C218.779 24.3013 218.978 24.5576 219.177 24.9419C219.575 25.699 219.809 26.9918 219.528 28.506C219.306 30.0317 218.451 31.674 217.608 33.4327C217.198 34.3179 216.812 35.2729 216.613 36.2862C216.414 37.2995 216.473 38.3827 216.859 39.396C217.643 41.4575 219.259 42.9833 220.558 44.4741C221.881 45.9417 222.959 47.514 223.251 49.0631C223.567 50.5889 223.228 51.8817 222.771 52.6155C222.56 52.9882 222.315 53.2328 222.151 53.3842C221.975 53.5239 221.881 53.5938 221.858 53.5705C221.811 53.5239 222.209 53.2444 222.56 52.5106C222.923 51.7885 223.169 50.5772 222.83 49.1679C222.514 47.7586 221.472 46.2911 220.137 44.8585C218.837 43.4142 217.14 41.8652 216.285 39.6173C215.852 38.4992 215.793 37.2762 216.016 36.1814C216.238 35.0866 216.66 34.0966 217.093 33.1997C217.983 31.4177 218.837 29.8803 219.095 28.4244C219.423 26.9918 219.259 25.7922 218.955 25.0468C218.638 24.3013 218.287 23.9636 218.334 23.9286L218.346 23.917Z" fill="#2E3447"/>
<path d="M212.738 66.2105C212.738 66.2105 212.773 65.8611 213.242 65.4884C213.698 65.1273 214.576 64.8361 215.618 65.0924C216.66 65.3603 217.609 66.1989 218.545 67.0724C219.47 67.9226 220.629 68.901 222.022 68.7146C223.404 68.5283 224.563 67.5732 225.781 67.0375C226.389 66.7579 227.033 66.5716 227.654 66.5366C228.274 66.5366 228.848 66.6647 229.328 66.8744C230.276 67.3053 230.85 67.9692 231.119 68.47C231.388 68.9709 231.424 69.2853 231.4 69.297C231.353 69.3086 231.236 69.0291 230.92 68.5982C230.604 68.1789 230.042 67.6198 229.164 67.2704C228.731 67.1073 228.216 67.0142 227.689 67.0375C227.15 67.084 226.588 67.2587 226.026 67.5383C224.891 68.0507 223.743 69.064 222.093 69.3086C221.273 69.4135 220.442 69.1689 219.81 68.7845C219.166 68.4002 218.639 67.9226 218.159 67.4684C217.234 66.5483 216.379 65.7796 215.501 65.4884C214.623 65.2089 213.815 65.3952 213.382 65.6631C212.937 65.931 212.797 66.2222 212.75 66.1989L212.738 66.2105Z" fill="#FAFAFA"/>
<path d="M212.211 63.1115C212.211 63.1115 212.258 62.7387 212.75 62.3427C213.23 61.9584 214.166 61.6556 215.267 61.9351C216.367 62.2263 217.374 63.0998 218.369 64.0432C219.353 64.94 220.594 65.9883 222.081 65.7903C223.556 65.5923 224.785 64.579 226.085 64.0083C226.729 63.7171 227.408 63.5075 228.075 63.4842C228.731 63.4725 229.339 63.6123 229.843 63.8336C230.85 64.2878 231.458 64.9983 231.751 65.5224C232.044 66.0582 232.079 66.3959 232.056 66.3959C232.009 66.4192 231.892 66.1048 231.552 65.6505C231.224 65.1963 230.615 64.6023 229.679 64.2296C229.211 64.0549 228.672 63.9501 228.098 63.985C227.525 64.0316 226.928 64.2179 226.319 64.5208C225.101 65.0682 223.895 66.1397 222.139 66.3959C221.273 66.5124 220.395 66.2562 219.716 65.8485C219.025 65.4409 218.475 64.94 217.971 64.4509C216.988 63.4842 216.086 62.6456 215.126 62.3427C214.178 62.0516 213.323 62.2496 212.867 62.5407C212.387 62.8319 212.246 63.1464 212.199 63.1115H212.211Z" fill="#FAFAFA"/>
<path fill-rule="evenodd" clip-rule="evenodd" d="M226.608 73.2472C226.882 73.2327 227.126 73.0453 227.201 72.7667C227.294 72.4203 227.088 72.0643 226.742 71.9715C226.396 71.8787 226.04 72.0842 225.947 72.4306C225.872 72.7099 225.991 72.9955 226.222 73.1443L226.069 73.8231C225.95 73.8494 225.836 73.891 225.73 73.9457L224.846 73.016C224.896 72.9203 224.924 72.8116 224.924 72.6965C224.924 72.3116 224.612 71.9996 224.227 71.9996C223.842 71.9996 223.53 72.3116 223.53 72.6965C223.53 73.0813 223.842 73.3933 224.227 73.3933C224.351 73.3933 224.467 73.3609 224.568 73.3041L225.402 74.1812C225.173 74.4024 225.019 74.7016 224.984 75.036L223.367 75.0547C223.284 74.7632 223.015 74.5497 222.697 74.5497C222.312 74.5497 222 74.8617 222 75.2466C222 75.6314 222.312 75.9434 222.697 75.9434C223.009 75.9434 223.273 75.7379 223.362 75.4548L224.998 75.4358C225.054 75.7429 225.211 76.0148 225.433 76.2162L225.094 76.8553C225.068 76.8523 225.041 76.8508 225.014 76.8508C224.629 76.8508 224.317 77.1628 224.317 77.5476C224.317 77.9325 224.629 78.2445 225.014 78.2445C225.399 78.2445 225.711 77.9325 225.711 77.5476C225.711 77.3336 225.615 77.1422 225.463 77.0143L225.766 76.4411C225.949 76.5289 226.153 76.578 226.37 76.578C226.655 76.578 226.92 76.4923 227.141 76.3453L227.733 77.0717C227.679 77.1705 227.648 77.2838 227.648 77.4042C227.648 77.789 227.96 78.101 228.345 78.101C228.73 78.101 229.042 77.789 229.042 77.4042C229.042 77.0193 228.73 76.7073 228.345 76.7073C228.227 76.7073 228.116 76.7368 228.018 76.7888L227.439 76.078C227.641 75.836 227.763 75.5244 227.763 75.1843C227.763 74.9652 227.713 74.7579 227.623 74.5734L228.371 73.9859C228.486 74.0693 228.627 74.1185 228.78 74.1185C229.165 74.1185 229.477 73.8065 229.477 73.4216C229.477 73.0368 229.165 72.7248 228.78 72.7248C228.395 72.7248 228.083 73.0368 228.083 73.4216C228.083 73.5084 228.099 73.5914 228.128 73.6681L227.397 74.2423C227.166 73.9913 226.845 73.825 226.485 73.7954L226.608 73.2472Z" fill="white"/>
<path d="M102.781 185.086L122.953 213.423L344.402 213.307L344.273 188.312L232.29 177.702L139.25 163.946L102.781 185.086Z" fill="#47506B"/>
<path d="M138.384 164.773L154.107 143.18L198.397 88.7642C204.59 82.1254 213.558 78.7827 222.62 79.7377C233.707 80.9024 243.12 88.3217 246.819 98.7808L276.042 187.578L237.289 181.533L217.597 126.606L186.56 169.735L138.384 164.785V164.773Z" fill="#47506B"/>
<path d="M276.053 181.845C276.053 181.845 275.936 181.845 275.702 181.845C275.444 181.834 275.105 181.81 274.695 181.787C273.77 181.717 272.47 181.624 270.82 181.508C267.413 181.24 262.554 180.855 256.571 180.389C244.513 179.376 227.923 177.99 209.601 176.464C200.434 175.672 191.7 174.915 183.75 174.228C179.781 173.867 176 173.588 172.464 173.203C168.928 172.796 165.662 172.26 162.712 171.561C159.773 170.874 157.127 170.024 155.02 168.847C152.901 167.682 151.285 166.343 150.15 165.085C149.014 163.827 148.347 162.674 147.96 161.882C147.574 161.079 147.457 160.624 147.457 160.624C147.55 160.566 148.03 162.465 150.325 164.922C151.461 166.145 153.076 167.438 155.172 168.556C157.268 169.686 159.879 170.489 162.805 171.142C165.732 171.806 168.999 172.318 172.511 172.691C176.035 173.052 179.817 173.32 183.785 173.657C191.735 174.333 200.469 175.067 209.647 175.847C227.958 177.454 244.548 178.899 256.595 179.947C262.566 180.494 267.413 180.949 270.82 181.263C272.459 181.426 273.758 181.554 274.683 181.647C275.093 181.694 275.432 181.729 275.69 181.764C275.912 181.799 276.029 181.81 276.029 181.822L276.053 181.845Z" fill="#455A64"/>
<path d="M220.688 106.728C220.77 106.763 220.349 107.823 219.787 109.57C219.225 111.317 218.557 113.763 218.136 116.524C217.726 119.284 217.633 121.823 217.656 123.652C217.679 125.48 217.773 126.622 217.668 126.633C217.597 126.633 217.352 125.515 217.223 123.663C217.082 121.811 217.106 119.237 217.527 116.43C217.949 113.623 218.698 111.154 219.365 109.431C220.044 107.695 220.606 106.693 220.665 106.728H220.688Z" fill="#455A64"/>
<path d="M212.188 114.13C212.376 114.106 212.774 117.251 214.319 120.78C215.829 124.333 217.831 126.79 217.679 126.907C217.586 127.011 215.314 124.67 213.757 121.013C212.177 117.368 212.048 114.118 212.188 114.118V114.13Z" fill="#455A64"/>
<path d="M338.642 195.792C338.829 195.862 337.178 199.601 336.78 204.539C336.335 209.477 337.331 213.437 337.132 213.472C337.061 213.496 336.722 212.529 336.441 210.91C336.148 209.291 335.972 207.008 336.183 204.492C336.406 201.977 336.968 199.764 337.53 198.215C338.092 196.666 338.583 195.769 338.654 195.804L338.642 195.792Z" fill="#455A64"/>
<path d="M111.632 68.5378C111.632 68.5378 111.585 68.6426 111.445 68.794C111.316 68.9571 111.093 69.1668 110.789 69.423C110.18 69.9355 109.162 70.5295 107.78 70.9371C105.005 71.7757 101.013 71.5777 96.7749 70.9138C92.5133 70.2266 88.7903 69.0037 86.1913 67.8972C84.8917 67.3615 83.8731 66.849 83.1707 66.4763C82.4799 66.0919 82.1053 65.8706 82.1287 65.8357C82.1756 65.7425 83.7327 66.5229 86.3434 67.5012C88.9542 68.4912 92.6538 69.6326 96.8686 70.3082C101.072 70.9604 104.97 71.2167 107.663 70.5178C110.379 69.8539 111.55 68.4213 111.632 68.5262V68.5378Z" fill="#47506B"/>
</svg>
