<svg width="28" height="28" viewBox="0 0 28 28" fill="none" xmlns="http://www.w3.org/2000/svg">
<g clip-path="url(#clip0_1_1690)">
<path d="M14 28C21.732 28 28 21.732 28 14C28 6.26801 21.732 0 14 0C6.26801 0 0 6.26801 0 14C0 21.732 6.26801 28 14 28Z" fill="#99C6FC"/>
<path d="M13.9769 10.9231L10.8863 16.632L6.37651 17.6846L7.98914 19.2972L6.62058 21.0166L13.5979 27.9939C13.7314 27.9976 13.8655 28 14 28C20.5857 28 26.1083 23.4523 27.6013 17.3263L15.0057 4.73062L13.9769 10.9231Z" fill="#79B6FC"/>
<path d="M8.07143 17.6846H6.37645C6.37645 16.5598 8.07143 16.5598 8.07143 16.5598L8.37686 17.0202L8.07143 17.6846Z" fill="#FFC9B7"/>
<path d="M13.9768 11.8274L11.3207 12.0224C10.6197 12.3309 10.2471 12.935 10.1672 13.7903L9.97182 16.2583L8.07143 16.5597V17.6845H10.4287C10.8248 17.6845 11.1741 17.425 11.2884 17.0458L11.6914 15.1619L11.8892 17.4117L10.1672 19.3005H13.9769L15.8196 15.731L13.9768 11.8274Z" fill="#A365D9"/>
<path d="M19.8822 17.6846H21.5772C21.5772 16.5598 19.8822 16.5598 19.8822 16.5598L19.5768 17.0202L19.8822 17.6846Z" fill="#FDB59E"/>
<path d="M13.9768 11.8274L16.6329 12.0224C17.3339 12.3309 17.7065 12.935 17.7865 13.7903L17.9818 16.2583L19.8822 16.5597V17.6845H17.5249C17.1288 17.6845 16.7795 17.425 16.6653 17.0458L16.2622 15.1619L16.0645 17.4117L17.7865 19.3005H13.9768V11.8274H13.9768Z" fill="#7847A1"/>
<path d="M14.7051 5.76172L13.9768 7.21827C13.1724 7.21827 12.5203 6.56618 12.5203 5.76172C12.5203 4.95727 13.1724 4.30518 13.9768 4.30518L14.7051 5.76172Z" fill="#A36553"/>
<path d="M15.4334 5.76172C15.4334 6.56618 14.7813 7.21827 13.9768 7.21827V4.30518C14.7813 4.30518 15.4334 4.95727 15.4334 5.76172Z" fill="#8D5442"/>
<path d="M14.5854 10.5192L13.9768 8.67737H13.0067V11.2805L11.3207 12.0224L13.9768 13.3094L14.5854 10.5192Z" fill="#FFC9B7"/>
<path d="M14.947 11.2805V8.67737H13.9768V13.3094L16.633 12.0224L14.947 11.2805Z" fill="#FDB59E"/>
<path d="M13.9768 7.77792H12.7525L11.5552 8.59162C11.8882 9.76598 12.8593 10.9231 13.9768 10.9231L14.8483 8.82349L13.9768 7.77792Z" fill="#FFD5C8"/>
<path d="M15.3049 7.77792H13.9768V10.9231C15.0943 10.9231 16.0654 9.76592 16.3984 8.59162L15.3049 7.77792Z" fill="#FFC9B7"/>
<path d="M13.9768 5.32809C12.5924 5.32809 11.4321 6.37837 11.4321 7.76278C11.4321 8.02971 11.4757 8.31113 11.5552 8.59163C11.7513 8.64708 11.958 8.67738 12.1718 8.67738C12.9397 8.67738 13.5678 8.36287 13.9768 7.77788L14.5853 6.54232L13.9768 5.32809Z" fill="#B67261"/>
<path d="M13.9768 5.32809C15.3612 5.32809 16.5215 6.37837 16.5215 7.76278C16.5215 8.02971 16.4779 8.31113 16.3984 8.59163C16.2023 8.64708 15.9957 8.67738 15.7818 8.67738C15.014 8.67738 14.3858 8.36287 13.9769 7.77788L13.9768 5.32809Z" fill="#A36553"/>
<path d="M11.4372 19.9229C11.4372 19.9229 18.1794 17.42 19.8639 17.42C21.0228 17.42 21.9622 18.3595 21.9622 19.5183C21.9622 20.6772 21.0228 21.6167 19.8639 21.6167H18.7701L11.3208 20.5287L11.4372 19.9229Z" fill="#D8DFE6"/>
<path d="M13.9768 19.0218C11.8797 18.3044 9.09114 17.4199 8.08981 17.4199C6.93093 17.4199 5.99146 18.3594 5.99146 19.5183C5.99146 20.6772 6.93093 21.6167 8.08981 21.6167H13.9768L15.1137 20.7844L13.9768 19.0218Z" fill="white"/>
<path d="M15.8817 20.9869L16.5166 21.6167H18.7701L19.2879 20.9044C19.5223 20.582 19.4648 20.1328 19.1567 19.8799C19.0019 19.7529 18.8029 19.6928 18.6037 19.7128L16.5166 19.9229L15.8817 20.9869Z" fill="#FFC9B7"/>
<path d="M13.9768 21.6167H16.5165V19.9229C16.5165 19.9229 15.4075 19.5112 13.9768 19.0218V21.6167Z" fill="#E9EDF0"/>
<path d="M13.9768 10.0722C13.9094 9.98997 13.8122 9.96777 13.7277 10.0144C13.5683 10.1024 13.4603 10.2413 13.4603 10.2413C13.4603 10.2413 13.6915 10.5389 13.9768 10.5389L14.1489 10.3732L13.9768 10.0722Z" fill="#EF296A"/>
<path d="M13.9768 10.0722V10.539C14.2621 10.539 14.4933 10.2413 14.4933 10.2413C14.4933 10.2413 14.3853 10.1024 14.2259 10.0145C14.1415 9.96775 14.0443 9.98996 13.9768 10.0722Z" fill="#C52053"/>
<path d="M13.9768 8.38113H13.7794L13.6046 9.65677H13.9768L14.1489 9.10027L13.9768 8.38113Z" fill="#FFC9B7"/>
<path d="M13.9768 9.65677H14.3491L14.1742 8.38113H13.9768V9.65677Z" fill="#FDB59E"/>
</g>
<defs>
<clipPath id="clip0_1_1690">
<rect width="28" height="28" fill="white"/>
</clipPath>
</defs>
</svg>
