<svg width="27" height="27" viewBox="0 0 27 27" fill="none" xmlns="http://www.w3.org/2000/svg">
<g clip-path="url(#clip0_1_1580)">
<path d="M13.5 27C20.9558 27 27 20.9558 27 13.5C27 6.04416 20.9558 0 13.5 0C6.04416 0 0 6.04416 0 13.5C0 20.9558 6.04416 27 13.5 27Z" fill="#A3D4FF"/>
<path d="M13.5771 26.9997C20.9975 26.9583 27 20.9302 27 13.5C27 12.5412 26.9 11.6057 26.71 10.7034L22.4338 6.42722L4.56622 9.04426L11.5922 16.0702L5.02122 18.4439L13.5771 26.9997Z" fill="#65B1FC"/>
<path d="M14.291 19.943V16.7474H12.709V19.943C11.8077 20.2679 11.1616 21.1317 11.1616 22.1436C11.1616 23.433 12.2106 24.482 13.5 24.482C14.7894 24.482 15.8385 23.433 15.8385 22.1436C15.8385 21.1318 15.1924 20.2679 14.291 19.943ZM13.5 22.9001C13.0829 22.9001 12.7436 22.5607 12.7436 22.1437C12.7436 21.7267 13.0829 21.3873 13.5 21.3873C13.9171 21.3873 14.2564 21.7267 14.2564 22.1437C14.2564 22.5607 13.9171 22.9001 13.5 22.9001Z" fill="#555A66"/>
<path d="M14.291 19.943V16.7474H13.4812V21.3861V21.3882C13.4875 21.3881 13.4937 21.3873 13.5 21.3873C13.9171 21.3873 14.2564 21.7266 14.2564 22.1436C14.2564 22.5607 13.9171 22.9 13.5 22.9C13.4937 22.9 13.4875 22.8992 13.4812 22.8991V24.4816C13.4875 24.4816 13.4937 24.482 13.5 24.482C14.7894 24.482 15.8385 23.433 15.8385 22.1436C15.8385 21.1318 15.1924 20.2679 14.291 19.943Z" fill="#333940"/>
<path d="M5.02121 7.21851H21.9788V18.4439H5.02121V7.21851Z" fill="white"/>
<path d="M13.4812 7.21851H21.9788V18.4439H13.4812V7.21851Z" fill="#E9EDF5"/>
<path d="M4.56622 6.42722H22.4338V9.04421H4.56622V6.42722Z" fill="#636978"/>
<path d="M4.56622 6.42722H22.4338V9.04421H4.56622V6.42722Z" fill="#636978"/>
<path d="M13.4812 6.42722H22.4338V9.04421H13.4812V6.42722Z" fill="#414952"/>
<path d="M21.2827 16.985C21.2827 16.985 20.3664 10.3296 17.5291 10.3296C15.9829 10.3296 14.9057 13.8505 13.3583 13.824C11.9631 13.8001 10.7684 12.3291 9.66879 12.3291C8.94722 12.3291 7.64722 14.1783 6.73096 15.7137L21.2827 16.985Z" fill="#CDD2E1"/>
<path d="M7.1261 16.985C7.1261 16.985 9.33287 11.7412 10.7417 11.7412C12.2879 11.7412 13.035 13.7207 14.5824 13.6864C15.9776 13.6554 16.4035 12.4948 17.915 12.4948C19.1524 12.4948 20.5759 14.6373 21.2827 16.985H7.1261Z" fill="#FFCE00"/>
<path d="M17.9149 12.4948C16.4034 12.4948 15.9776 13.6554 14.5823 13.6864C14.168 13.6956 13.8114 13.5598 13.4812 13.3569V16.9851H21.2826C20.5758 14.6373 19.1523 12.4948 17.9149 12.4948Z" fill="#FDBA12"/>
<path d="M5.71732 16.985C5.71732 16.985 7.71025 11.5216 9.11905 11.5216C10.6653 11.5216 11.7425 16.0916 13.2899 16.0572C14.6852 16.0262 15.8538 13.537 16.9533 13.537C17.6748 13.537 19.4501 14.9921 20.3665 16.985H5.71732Z" fill="#FF6C52"/>
<path d="M16.9533 13.537C15.9044 13.537 14.7926 15.8021 13.4812 16.0377V16.985H20.3664C19.4502 14.9921 17.6748 13.537 16.9533 13.537Z" fill="#FF432E"/>
</g>
<defs>
<clipPath id="clip0_1_1580">
<rect width="27" height="27" fill="white"/>
</clipPath>
</defs>
</svg>
