<svg width="29" height="32" viewBox="0 0 29 32" fill="none" xmlns="http://www.w3.org/2000/svg">
<path d="M28.6729 31.452C28.6729 31.452 23.9489 29.657 20.1269 28.219H4.05389C2.15089 28.219 0.608887 26.639 0.608887 24.691V4.01099C0.608887 2.06399 2.15089 0.483994 4.05389 0.483994H25.2259C27.1289 0.483994 28.6719 2.06399 28.6719 4.01099V21.822L28.6729 21.821V31.452ZM24.5249 19.856C24.1949 19.462 23.6139 19.417 23.2299 19.754C23.1999 19.78 20.2079 22.35 14.6389 22.35C9.14089 22.35 6.10289 19.798 6.04789 19.752C5.66289 19.416 5.08489 19.463 4.75489 19.856C4.42389 20.251 4.46989 20.844 4.85489 21.183C4.99789 21.307 8.40089 24.231 14.6389 24.231C20.8799 24.231 24.2839 21.307 24.4249 21.183C24.8099 20.844 24.8559 20.251 24.5249 19.856Z" fill="white"/>
</svg>
