<svg width="27" height="27" viewBox="0 0 27 27" fill="none" xmlns="http://www.w3.org/2000/svg">
<g clip-path="url(#clip0_1_1626)">
<path d="M13.5 27C20.9558 27 27 20.9558 27 13.5C27 6.04416 20.9558 0 13.5 0C6.04416 0 0 6.04416 0 13.5C0 20.9558 6.04416 27 13.5 27Z" fill="#FCC74C"/>
<path d="M20.5493 10.902L18.2495 8.60219L17.0637 9.78798L14.9571 7.6814L12.7158 9.92266L10.6263 7.83311L5.3806 13.0788L11.2223 18.9206L7.7566 22.3863L12.3183 26.948C12.7078 26.9817 13.1018 27 13.5 27C20.9559 27 27 20.9559 27 13.5C27 13.0426 26.977 12.5907 26.9326 12.145L23.1194 8.33187L20.5493 10.902Z" fill="#F49F36"/>
<path d="M10.8347 7.58141H13.5L14.3144 6.03086L13.5 4.61378H10.8347V7.58141Z" fill="#E9EDF5"/>
<path d="M13.5 4.61378H16.1652V7.58136H13.5V4.61378Z" fill="#CDD2E1"/>
<path d="M13.5 22.3862L14.5547 13.2902L13.5 7.29475L9.34759 4.61378H8.12584L4.94163 7.31415L4.58789 10.5701L6.55842 12.4305L7.75665 11.7711V20.8041L13.5 22.3862Z" fill="white"/>
<path d="M13.5 22.3862V7.29475L17.6524 4.61378H18.8742L22.0584 7.31421L22.5302 10.1965L20.4416 12.4305L19.2434 11.7711V20.8041L13.5 22.3862Z" fill="#E9EDF5"/>
<path d="M7.75664 20.8042V22.3862H13.5L14.5417 21.5952L13.5 20.8042H7.75664Z" fill="#FB7C82"/>
<path d="M13.5 20.8042H19.2434V22.3862H13.5V20.8042Z" fill="#FA455C"/>
<path d="M5.38064 13.0788L6.55841 12.4305L4.94163 7.31415L3.88062 8.33192L5.38064 13.0788Z" fill="#6B98FB"/>
<path d="M20.4416 12.4306L21.6194 13.0788L23.1194 8.33193L22.0584 7.31421L20.4416 12.4306Z" fill="#4080F7"/>
<path d="M10.8348 4.61378H9.3476L10.0868 5.35739L12.752 8.03836L13.5 8.79072L13.6448 7.91633L13.5 7.29475L10.8348 4.61378Z" fill="#FB7C82"/>
<path d="M16.9132 5.35739L17.6524 4.61378H16.1652L13.5 7.29475V8.79072L14.248 8.03836L16.9132 5.35739Z" fill="#FA455C"/>
<path d="M12.1674 13.0788C12.1674 13.8148 12.764 14.4114 13.5 14.4114L14.1663 13.0788L13.5 11.7462C12.764 11.7462 12.1674 12.3429 12.1674 13.0788Z" fill="#555A65"/>
<path d="M14.8326 13.0788C14.8326 12.3429 14.236 11.7462 13.5 11.7462V14.4115C14.236 14.4115 14.8326 13.8148 14.8326 13.0788Z" fill="#333940"/>
</g>
<defs>
<clipPath id="clip0_1_1626">
<rect width="27" height="27" fill="white"/>
</clipPath>
</defs>
</svg>
