<svg width="142" height="23" viewBox="0 0 142 23" fill="none" xmlns="http://www.w3.org/2000/svg">
<mask id="mask0_2645_1844" style="mask-type:luminance" maskUnits="userSpaceOnUse" x="0" y="0" width="142" height="23">
<path d="M134.148 22.6583H10.8917C4.88027 22.6583 0 17.7872 0 11.7667C0 5.75527 4.87115 0.875 10.8917 0.875H134.148C138.454 0.875 141.947 4.36873 141.947 8.67431V14.8499C141.947 19.1555 138.454 22.6492 134.148 22.6492V22.6583Z" fill="white"/>
</mask>
<g mask="url(#mask0_2645_1844)">
<path d="M131.056 22.6583H10.8922C4.88076 22.6583 0.000488281 17.7872 0.000488281 11.7667C0.000488281 5.75527 4.87164 0.875 10.8922 0.875H131.056C137.068 0.875 141.948 5.74615 141.948 11.7667C141.948 17.7781 137.077 22.6583 131.056 22.6583Z" fill="#FB4E14"/>
<g opacity="0.2">
<path d="M15.0518 0.889648L28.3516 22.6639H37.7564L23.9275 0.889648H15.0518Z" fill="white"/>
</g>
<g opacity="0.2">
<path d="M-5.07129 0.889648L8.22859 22.6639H17.6334L3.80441 0.889648H-5.07129Z" fill="white"/>
</g>
<g opacity="0.2">
<path d="M34.5178 0.889648L47.8086 22.6639H57.2225L43.3935 0.889648H34.5178Z" fill="white"/>
</g>
<g opacity="0.2">
<path d="M53.9844 0.889648L67.2751 22.6639H76.689L62.8601 0.889648H53.9844Z" fill="white"/>
</g>
<g opacity="0.2">
<path d="M73.4417 0.889648L86.7415 22.6639H96.1463L82.3173 0.889648H73.4417Z" fill="white"/>
</g>
<g opacity="0.2">
<path d="M92.9077 0.889648L106.198 22.6639H115.612L101.783 0.889648H92.9077Z" fill="white"/>
</g>
<g opacity="0.2">
<path d="M112.374 0.889648L125.665 22.6639H135.079L121.25 0.889648H112.374Z" fill="white"/>
</g>
<g opacity="0.2">
<path d="M131.832 0.889648L145.131 22.6639H154.536L140.707 0.889648H131.832Z" fill="white"/>
</g>
</g>
</svg>
