<svg width="27" height="27" viewBox="0 0 27 27" fill="none" xmlns="http://www.w3.org/2000/svg">
<g clip-path="url(#clip0_1_1648)">
<path d="M27 13.5C27 18.533 24.2452 22.9231 20.1614 25.2439C19.4395 25.6545 18.4615 24.998 17.6643 25.2714C16.6626 25.6148 15.8222 26.846 14.7298 26.9446C14.3248 26.9815 13.9145 27 13.5 27C13.0855 27 12.6752 26.9815 12.2702 26.9446C11.3327 26.8599 10.2081 25.6771 9.33567 25.4104C8.38266 25.1192 7.68904 25.7277 6.83859 25.2439C2.75484 22.9231 0 18.533 0 13.5C0 6.04441 6.04441 0 13.5 0C20.9556 0 27 6.04441 27 13.5Z" fill="#0A617D"/>
<path d="M26.9007 11.8544L19.2985 4.25224L9.52851 11.4804L17.5888 19.5406L19.5165 23.0939L5.20261 8.78002L4.06454 12.0474L6.42536 15.7976L9.14292 25.3626C9.20604 25.3747 9.27022 25.3905 9.33561 25.4105C10.208 25.6771 11.3326 26.86 12.2702 26.9447C12.6752 26.9816 13.0854 27.0001 13.4999 27.0001C13.9144 27.0001 14.3247 26.9816 14.7297 26.9447C15.8221 26.846 16.6625 25.6148 17.6643 25.2714C18.4615 24.9982 19.4395 25.6546 20.1613 25.244C24.2451 22.9231 27 18.533 27 13.5C27 12.943 26.9662 12.3938 26.9007 11.8544Z" fill="#08475E"/>
<path d="M19.8579 6.17119C19.7288 4.52657 18.787 3.21432 17.5144 2.90583C15.8223 2.49571 14.6975 3.14561 14.052 3.76313C13.8266 3.97876 13.644 4.20499 13.5 4.41271C13.356 4.20499 13.1733 3.97876 12.9479 3.76313C12.3025 3.14561 11.1777 2.49555 9.48555 2.90583C8.21291 3.21432 7.27113 4.52657 7.14208 6.17119C7.03778 7.5002 7.47537 8.91834 8.37406 10.1643C9.44289 11.646 11.1073 12.9704 13.321 13.9096L13.5 13.9855L13.6789 13.9096C15.8926 12.9704 17.557 11.646 18.6258 10.1643C19.5246 8.91834 19.9622 7.5002 19.8579 6.17119Z" fill="#FF4A4A"/>
<path d="M18.626 10.1641C17.557 11.6461 15.8925 12.9702 13.6789 13.9095L13.5 13.9855V4.41271C13.6439 4.20478 13.8267 3.97871 14.0522 3.76318C14.6974 3.14566 15.8222 2.49582 17.5144 2.90572C18.7871 3.21432 19.7287 4.52656 19.8578 6.17124C19.962 7.50036 19.5247 8.91823 18.626 10.1641Z" fill="#B10F61"/>
<path d="M16.065 7.59001H14.3969V5.92186H12.6031V7.59001H10.935V9.38371H12.6031V11.0519H14.3969V9.38371H16.065V7.59001Z" fill="white"/>
<path d="M16.065 7.5901V9.38365H14.3968V11.0519H13.5V5.92191H14.3968V7.5901H16.065Z" fill="#ECF9FB"/>
<path d="M19.26 12.5353L17.0819 15.7884C16.9402 16.0001 16.8477 16.2429 16.8268 16.4968C16.8267 16.4984 16.8266 16.5 16.8265 16.5015C16.738 17.1961 16.7047 17.6129 16.7047 17.6129L16.5779 18.8904L17.6639 19.6176L21.376 14.0733C21.7931 13.4504 21.6262 12.6073 21.0033 12.1902C20.4266 11.8041 19.6461 11.9586 19.26 12.5353Z" fill="#EFA35E"/>
<path d="M23.4388 14.995L20.5015 19.3825C20.2078 19.8218 20.0559 20.3402 20.0675 20.8686L20.1614 25.2439C18.5324 26.1705 16.6915 26.7674 14.7298 26.9446L16.7047 17.6128C16.9098 17.7499 17.1424 17.8131 17.3712 17.8089C17.7425 17.8021 18.1032 17.6186 18.3226 17.2847L21.301 12.7475L21.4423 9.74004C21.4044 9.03814 21.9354 8.43592 22.6341 8.38477C23.355 8.33203 23.9783 8.90736 24.0179 9.62877L24.1661 12.343C24.2172 13.2827 23.9625 14.213 23.4388 14.995Z" fill="#FFC17D"/>
<path d="M7.74004 12.5353L9.91807 15.7884C10.0598 16.0001 10.1523 16.2429 10.1732 16.4968C10.1733 16.4984 10.1734 16.5 10.1735 16.5015C10.2619 17.1961 10.2953 17.6129 10.2953 17.6129L10.4221 18.8904L9.33605 19.6176L5.62397 14.0733C5.20689 13.4504 5.37374 12.6073 5.99669 12.1902C6.57334 11.8041 7.35392 11.9586 7.74004 12.5353Z" fill="#F4B678"/>
<path d="M6.93247 20.8686C6.94407 20.3402 6.79219 19.8218 6.49846 19.3825L3.56116 14.995C3.03751 14.213 2.7828 13.2827 2.83395 12.343L2.98214 9.62877C3.02169 8.90736 3.64501 8.33203 4.36589 8.38477C5.06462 8.43592 5.59565 9.03814 5.55768 9.74004L5.69901 12.7475L8.67745 17.2847C8.89682 17.6186 9.25753 17.8021 9.62878 17.8089C9.85764 17.8131 10.0902 17.7499 10.2953 17.6128L12.2702 26.9446C10.3085 26.7674 8.46757 26.1705 6.8386 25.2439L6.93247 20.8686Z" fill="#FFD39F"/>
</g>
<defs>
<clipPath id="clip0_1_1648">
<rect width="27" height="27" fill="white"/>
</clipPath>
</defs>
</svg>
