<svg width="28" height="27" viewBox="0 0 28 27" fill="none" xmlns="http://www.w3.org/2000/svg">
<g clip-path="url(#clip0_1_1727)">
<path d="M14 27C21.732 27 28 20.9558 28 13.5C28 6.04416 21.732 0 14 0C6.26801 0 0 6.04416 0 13.5C0 20.9558 6.26801 27 14 27Z" fill="#FB8773"/>
<path d="M23.089 6.94001L22.7179 6.58215L6.84808 21.8851L7.21919 22.243L6.97873 22.4749L11.4364 26.7733C12.2676 26.9217 13.1243 27 14 27C21.732 27 28 20.9559 28 13.5C28 12.6555 27.9188 11.8294 27.765 11.0279L23.3073 6.72944L23.089 6.94001Z" fill="#FA5744"/>
<path d="M21.0213 4.52515L4.69275 20.2705L5.83572 21.3727L14.5715 14.0511L22.1643 5.62729L21.0213 4.52515Z" fill="#555A65"/>
<path d="M5.83395 21.3716L22.16 5.62853L23.3029 6.73055L6.97679 22.4736L5.83395 21.3716Z" fill="#333940"/>
<path d="M6.35823 15.8303L4.72537 17.4049L7.33796 19.9242L8.65194 19.6167L8.97076 18.3496L6.35823 15.8303Z" fill="#E9EDF5"/>
<path d="M7.33502 19.923L8.96765 18.3487L11.5798 20.8676L9.9472 22.4419L7.33502 19.923Z" fill="#CDD2E1"/>
<path d="M7.20731 12.4923L4.92126 14.6966L8.84017 18.4756L10.5547 17.9245L11.1262 16.2712L7.20731 12.4923Z" fill="white"/>
<path d="M8.83722 18.4748L11.1229 16.2708L15.0411 20.0491L12.7555 22.2532L8.83722 18.4748Z" fill="#E9EDF5"/>
<path d="M18.0495 4.55661L16.4166 6.13115L19.0292 8.65038L20.268 8.27048L20.6621 7.07589L18.0495 4.55661Z" fill="#E9EDF5"/>
<path d="M19.0262 8.65167L20.6589 7.07735L23.2711 9.59624L21.6384 11.1706L19.0262 8.65167Z" fill="#CDD2E1"/>
<path d="M15.241 4.74551L12.955 6.94992L16.8738 10.7288L18.4393 10.034L19.1599 8.52446L15.241 4.74551Z" fill="white"/>
<path d="M16.8709 10.7297L19.1566 8.5257L23.0748 12.304L20.7892 14.5081L16.8709 10.7297Z" fill="#E9EDF5"/>
</g>
<defs>
<clipPath id="clip0_1_1727">
<rect width="28" height="27" fill="white"/>
</clipPath>
</defs>
</svg>
