<svg width="210" height="166" viewBox="0 0 210 166" fill="none" xmlns="http://www.w3.org/2000/svg">
<path d="M24.7936 162V152.2H28.7696C29.3389 152.2 29.8289 152.303 30.2396 152.508C30.6596 152.704 30.9816 152.989 31.2056 153.362C31.4296 153.726 31.5416 154.16 31.5416 154.664C31.5416 155.205 31.3876 155.672 31.0796 156.064C30.7716 156.447 30.3516 156.713 29.8196 156.862L29.7916 156.596C30.2489 156.68 30.6456 156.843 30.9816 157.086C31.3176 157.319 31.5789 157.609 31.7656 157.954C31.9616 158.299 32.0596 158.687 32.0596 159.116C32.0596 159.555 31.9849 159.951 31.8356 160.306C31.6862 160.661 31.4716 160.964 31.1916 161.216C30.9209 161.468 30.5896 161.664 30.1976 161.804C29.8149 161.935 29.3856 162 28.9096 162H24.7936ZM25.8856 160.936H28.8256C29.2456 160.936 29.6096 160.866 29.9176 160.726C30.2349 160.577 30.4776 160.367 30.6456 160.096C30.8229 159.825 30.9116 159.513 30.9116 159.158C30.9116 158.822 30.8182 158.528 30.6316 158.276C30.4542 158.024 30.2022 157.828 29.8756 157.688C29.5582 157.548 29.1849 157.478 28.7556 157.478H25.8856V160.936ZM25.8856 156.414H28.6856C29.0216 156.414 29.3202 156.349 29.5816 156.218C29.8429 156.078 30.0482 155.891 30.1976 155.658C30.3469 155.415 30.4216 155.145 30.4216 154.846C30.4216 154.37 30.2582 153.987 29.9316 153.698C29.6142 153.409 29.1662 153.264 28.5876 153.264H25.8856V156.414ZM33.7661 162V154.692H34.8161L34.8441 156.638L34.7321 156.372C34.8348 156.045 34.9981 155.742 35.2221 155.462C35.4555 155.182 35.7308 154.958 36.0481 154.79C36.3655 154.622 36.7155 154.538 37.0981 154.538C37.2568 154.538 37.4061 154.552 37.5461 154.58C37.6861 154.599 37.8028 154.627 37.8961 154.664L37.6021 155.84C37.4808 155.784 37.3548 155.747 37.2241 155.728C37.1028 155.7 36.9861 155.686 36.8741 155.686C36.5568 155.686 36.2721 155.742 36.0201 155.854C35.7681 155.966 35.5535 156.125 35.3761 156.33C35.1988 156.526 35.0635 156.755 34.9701 157.016C34.8768 157.277 34.8301 157.557 34.8301 157.856V162H33.7661ZM41.5303 162.14C40.8957 162.14 40.3217 161.977 39.8083 161.65C39.295 161.314 38.889 160.861 38.5903 160.292C38.2917 159.713 38.1423 159.06 38.1423 158.332C38.1423 157.595 38.2963 156.941 38.6043 156.372C38.9123 155.803 39.323 155.355 39.8363 155.028C40.359 154.701 40.9423 154.538 41.5863 154.538C41.969 154.538 42.3237 154.594 42.6503 154.706C42.977 154.818 43.2663 154.977 43.5183 155.182C43.7797 155.378 43.9943 155.611 44.1623 155.882C44.3397 156.143 44.461 156.428 44.5263 156.736L44.2183 156.582L44.2603 154.692H45.3103V162H44.2463V160.208L44.5263 160.026C44.461 160.306 44.335 160.577 44.1483 160.838C43.9617 161.09 43.733 161.314 43.4623 161.51C43.201 161.706 42.9023 161.86 42.5663 161.972C42.2397 162.084 41.8943 162.14 41.5303 162.14ZM41.7683 161.132C42.2537 161.132 42.6877 161.015 43.0703 160.782C43.453 160.539 43.7517 160.208 43.9663 159.788C44.1903 159.359 44.3023 158.873 44.3023 158.332C44.3023 157.791 44.1903 157.31 43.9663 156.89C43.7517 156.47 43.453 156.139 43.0703 155.896C42.6877 155.653 42.2537 155.532 41.7683 155.532C41.2737 155.532 40.835 155.653 40.4523 155.896C40.079 156.139 39.7803 156.47 39.5563 156.89C39.3417 157.31 39.2343 157.791 39.2343 158.332C39.2343 158.864 39.3417 159.345 39.5563 159.774C39.771 160.194 40.0697 160.525 40.4523 160.768C40.835 161.011 41.2737 161.132 41.7683 161.132ZM48.294 159.648L48.252 158.43L52.074 154.692H53.488L48.294 159.648ZM47.356 162V151.64H48.406V162H47.356ZM52.368 162L49.288 158.43L50.03 157.702L53.74 162H52.368ZM61.781 162.14C61.1183 162.14 60.521 161.977 59.989 161.65C59.4663 161.323 59.051 160.875 58.743 160.306C58.4443 159.727 58.295 159.074 58.295 158.346C58.295 157.609 58.449 156.955 58.757 156.386C59.065 155.807 59.4803 155.355 60.003 155.028C60.5257 154.701 61.1137 154.538 61.767 154.538C62.131 154.538 62.481 154.594 62.817 154.706C63.1623 154.818 63.4703 154.977 63.741 155.182C64.0117 155.378 64.2357 155.607 64.413 155.868C64.5903 156.12 64.6977 156.386 64.735 156.666L64.413 156.554V151.64H65.463V162H64.427L64.399 160.18L64.665 160.082C64.6277 160.343 64.5203 160.6 64.343 160.852C64.175 161.095 63.9603 161.314 63.699 161.51C63.4377 161.706 63.139 161.86 62.803 161.972C62.4763 162.084 62.1357 162.14 61.781 162.14ZM61.935 161.174C62.4203 161.174 62.8543 161.053 63.237 160.81C63.6197 160.567 63.9183 160.231 64.133 159.802C64.357 159.373 64.469 158.883 64.469 158.332C64.469 157.781 64.357 157.296 64.133 156.876C63.9183 156.447 63.6197 156.111 63.237 155.868C62.8543 155.616 62.4203 155.49 61.935 155.49C61.431 155.49 60.9877 155.616 60.605 155.868C60.2317 156.111 59.933 156.447 59.709 156.876C59.4943 157.296 59.387 157.781 59.387 158.332C59.387 158.873 59.4943 159.359 59.709 159.788C59.9237 160.217 60.2223 160.558 60.605 160.81C60.9877 161.053 61.431 161.174 61.935 161.174ZM70.7423 162.14C70.0143 162.14 69.3657 161.977 68.7963 161.65C68.2363 161.323 67.793 160.871 67.4663 160.292C67.149 159.713 66.9903 159.055 66.9903 158.318C66.9903 157.59 67.149 156.941 67.4663 156.372C67.793 155.803 68.2363 155.355 68.7963 155.028C69.3657 154.701 70.0143 154.538 70.7423 154.538C71.461 154.538 72.1003 154.701 72.6603 155.028C73.2297 155.355 73.673 155.803 73.9903 156.372C74.317 156.941 74.4803 157.59 74.4803 158.318C74.4803 159.055 74.317 159.713 73.9903 160.292C73.673 160.871 73.2297 161.323 72.6603 161.65C72.1003 161.977 71.461 162.14 70.7423 162.14ZM70.7423 161.146C71.2557 161.146 71.713 161.025 72.1143 160.782C72.5157 160.53 72.8283 160.194 73.0523 159.774C73.2763 159.345 73.3883 158.859 73.3883 158.318C73.3883 157.777 73.2763 157.296 73.0523 156.876C72.8283 156.456 72.5157 156.129 72.1143 155.896C71.713 155.653 71.2557 155.532 70.7423 155.532C70.229 155.532 69.767 155.653 69.3563 155.896C68.955 156.129 68.6377 156.461 68.4043 156.89C68.1803 157.31 68.073 157.786 68.0823 158.318C68.073 158.859 68.1803 159.345 68.4043 159.774C68.6377 160.194 68.955 160.53 69.3563 160.782C69.767 161.025 70.229 161.146 70.7423 161.146ZM78.4062 162.14C77.7809 162.14 77.2209 162.023 76.7262 161.79C76.2316 161.557 75.8396 161.249 75.5502 160.866L76.2922 160.222C76.5629 160.549 76.8802 160.796 77.2442 160.964C77.6176 161.132 78.0329 161.216 78.4902 161.216C78.7236 161.216 78.9336 161.193 79.1202 161.146C79.3069 161.09 79.4702 161.011 79.6102 160.908C79.7502 160.805 79.8576 160.684 79.9322 160.544C80.0069 160.404 80.0442 160.25 80.0442 160.082C80.0442 159.774 79.9089 159.517 79.6382 159.312C79.5169 159.228 79.3442 159.144 79.1202 159.06C78.8962 158.967 78.6256 158.878 78.3082 158.794C77.7856 158.645 77.3516 158.495 77.0062 158.346C76.6609 158.187 76.3902 158.005 76.1942 157.8C76.0542 157.632 75.9469 157.45 75.8722 157.254C75.8069 157.058 75.7742 156.843 75.7742 156.61C75.7742 156.311 75.8349 156.036 75.9562 155.784C76.0869 155.532 76.2642 155.313 76.4882 155.126C76.7216 154.93 76.9922 154.785 77.3002 154.692C77.6176 154.589 77.9582 154.538 78.3222 154.538C78.6676 154.538 79.0082 154.585 79.3442 154.678C79.6802 154.771 79.9929 154.907 80.2822 155.084C80.5716 155.261 80.8189 155.471 81.0242 155.714L80.3802 156.414C80.2029 156.227 80.0069 156.059 79.7922 155.91C79.5776 155.761 79.3489 155.644 79.1062 155.56C78.8729 155.476 78.6302 155.434 78.3782 155.434C78.1542 155.434 77.9442 155.462 77.7482 155.518C77.5616 155.574 77.3982 155.653 77.2582 155.756C77.1276 155.849 77.0249 155.966 76.9502 156.106C76.8849 156.246 76.8522 156.4 76.8522 156.568C76.8522 156.708 76.8802 156.834 76.9362 156.946C76.9922 157.058 77.0716 157.156 77.1742 157.24C77.3049 157.343 77.4869 157.441 77.7202 157.534C77.9629 157.618 78.2616 157.707 78.6162 157.8C79.0269 157.912 79.3722 158.029 79.6522 158.15C79.9416 158.262 80.1796 158.397 80.3662 158.556C80.6182 158.743 80.7956 158.957 80.8982 159.2C81.0102 159.443 81.0662 159.718 81.0662 160.026C81.0662 160.437 80.9496 160.801 80.7162 161.118C80.4922 161.435 80.1796 161.687 79.7782 161.874C79.3769 162.051 78.9196 162.14 78.4062 162.14ZM83.7195 162V152.774H84.7695V162H83.7195ZM82.0675 155.7V154.692H86.6175V155.7H82.0675ZM92.1364 164.954C91.6977 164.954 91.3431 164.828 91.0724 164.576C90.8111 164.324 90.6804 164.002 90.6804 163.61C90.6804 163.246 90.7784 162.915 90.9744 162.616C91.1797 162.327 91.4551 162.056 91.8004 161.804C92.1551 161.543 92.5611 161.291 93.0184 161.048L93.3404 161.468C92.7897 161.785 92.3651 162.103 92.0664 162.42C91.7771 162.747 91.6324 163.083 91.6324 163.428C91.6324 163.643 91.6931 163.811 91.8144 163.932C91.9357 164.063 92.0944 164.128 92.2904 164.128C92.4211 164.128 92.5424 164.091 92.6544 164.016C92.7664 163.951 92.8831 163.843 93.0044 163.694L93.6204 164.142C93.5177 164.301 93.3917 164.441 93.2424 164.562C93.1024 164.683 92.9391 164.777 92.7524 164.842C92.5657 164.917 92.3604 164.954 92.1364 164.954ZM91.0584 162.14C90.3304 162.14 89.6817 161.981 89.1124 161.664C88.5524 161.347 88.1137 160.903 87.7964 160.334C87.4791 159.765 87.3204 159.111 87.3204 158.374C87.3204 157.805 87.4091 157.291 87.5864 156.834C87.7637 156.367 88.0111 155.961 88.3284 155.616C88.6551 155.271 89.0424 155.005 89.4904 154.818C89.9384 154.622 90.4237 154.524 90.9464 154.524C91.4411 154.524 91.8891 154.613 92.2904 154.79C92.7011 154.967 93.0511 155.215 93.3404 155.532C93.6391 155.84 93.8631 156.209 94.0124 156.638C94.1617 157.067 94.2271 157.539 94.2084 158.052L94.1944 158.542H88.1044L87.9504 157.66H93.3964L93.1444 157.898V157.562C93.1257 157.226 93.0277 156.904 92.8504 156.596C92.6731 156.279 92.4211 156.022 92.0944 155.826C91.7771 155.63 91.3944 155.532 90.9464 155.532C90.4237 155.532 89.9711 155.639 89.5884 155.854C89.2057 156.059 88.9117 156.367 88.7064 156.778C88.5011 157.189 88.3984 157.697 88.3984 158.304C88.3984 158.883 88.5104 159.387 88.7344 159.816C88.9584 160.236 89.2757 160.563 89.6864 160.796C90.1064 161.029 90.6104 161.146 91.1984 161.146C91.5437 161.146 91.8844 161.09 92.2204 160.978C92.5657 160.857 92.9437 160.623 93.3544 160.278L93.9004 161.034C93.6857 161.249 93.4291 161.44 93.1304 161.608C92.8317 161.767 92.5051 161.897 92.1504 162C91.7957 162.093 91.4317 162.14 91.0584 162.14ZM95.6997 165.08V154.692H96.7497L96.7777 156.47L96.5817 156.498C96.6657 156.143 96.8477 155.821 97.1277 155.532C97.4077 155.233 97.7484 154.995 98.1497 154.818C98.5511 154.641 98.9757 154.552 99.4237 154.552C100.077 154.552 100.66 154.715 101.174 155.042C101.696 155.369 102.112 155.817 102.42 156.386C102.728 156.955 102.882 157.609 102.882 158.346C102.882 159.074 102.732 159.723 102.434 160.292C102.135 160.861 101.724 161.314 101.202 161.65C100.679 161.977 100.091 162.14 99.4377 162.14C98.9804 162.14 98.5464 162.047 98.1357 161.86C97.7251 161.673 97.3751 161.431 97.0857 161.132C96.7964 160.824 96.6051 160.493 96.5117 160.138H96.7637V165.08H95.6997ZM99.2697 161.132C99.7644 161.132 100.203 161.011 100.586 160.768C100.968 160.525 101.272 160.194 101.496 159.774C101.72 159.354 101.832 158.878 101.832 158.346C101.832 157.805 101.72 157.324 101.496 156.904C101.272 156.484 100.968 156.153 100.586 155.91C100.203 155.667 99.7644 155.546 99.2697 155.546C98.7751 155.546 98.3317 155.667 97.9397 155.91C97.5571 156.143 97.2537 156.47 97.0297 156.89C96.8057 157.31 96.6937 157.791 96.6937 158.332C96.6937 158.873 96.8057 159.354 97.0297 159.774C97.2537 160.194 97.5571 160.525 97.9397 160.768C98.3317 161.011 98.7751 161.132 99.2697 161.132ZM104.409 162V154.692H105.445L105.487 156.218L105.319 156.288C105.412 155.971 105.594 155.681 105.865 155.42C106.135 155.159 106.457 154.949 106.831 154.79C107.213 154.622 107.605 154.538 108.007 154.538C108.548 154.538 109.001 154.645 109.365 154.86C109.729 155.075 110.004 155.406 110.191 155.854C110.377 156.302 110.471 156.871 110.471 157.562V162H109.407V157.618C109.407 157.133 109.341 156.736 109.211 156.428C109.089 156.111 108.898 155.877 108.637 155.728C108.375 155.579 108.053 155.509 107.671 155.518C107.353 155.518 107.059 155.574 106.789 155.686C106.518 155.789 106.285 155.933 106.089 156.12C105.893 156.307 105.739 156.521 105.627 156.764C105.515 157.007 105.459 157.268 105.459 157.548V162H104.941C104.875 162 104.801 162 104.717 162C104.633 162 104.53 162 104.409 162ZM113.639 165.22L115.053 161.776L115.151 162.77L111.483 154.692H112.673L115.179 160.292C115.253 160.441 115.328 160.619 115.403 160.824C115.477 161.02 115.547 161.216 115.613 161.412L115.221 161.37C115.286 161.211 115.347 161.048 115.403 160.88C115.468 160.712 115.529 160.549 115.585 160.39L117.783 154.692H118.987L116.033 162L114.773 165.22H113.639ZM123.034 162.14C122.343 162.14 121.727 161.977 121.186 161.65C120.644 161.314 120.215 160.861 119.898 160.292C119.59 159.713 119.436 159.06 119.436 158.332C119.436 157.604 119.59 156.955 119.898 156.386C120.215 155.807 120.644 155.355 121.186 155.028C121.727 154.701 122.348 154.538 123.048 154.538C123.673 154.538 124.242 154.664 124.756 154.916C125.269 155.159 125.68 155.499 125.988 155.938L125.372 156.694C125.194 156.461 124.98 156.255 124.728 156.078C124.485 155.901 124.219 155.765 123.93 155.672C123.65 155.569 123.37 155.518 123.09 155.518C122.595 155.518 122.152 155.644 121.76 155.896C121.368 156.139 121.055 156.47 120.822 156.89C120.598 157.31 120.486 157.791 120.486 158.332C120.486 158.873 120.598 159.359 120.822 159.788C121.055 160.208 121.368 160.539 121.76 160.782C122.152 161.025 122.59 161.146 123.076 161.146C123.356 161.146 123.631 161.104 123.902 161.02C124.172 160.927 124.429 160.796 124.672 160.628C124.914 160.46 125.138 160.25 125.344 159.998L125.96 160.754C125.642 161.174 125.218 161.51 124.686 161.762C124.154 162.014 123.603 162.14 123.034 162.14ZM127.323 162V151.64H128.373V156.288L128.163 156.498C128.265 156.115 128.457 155.779 128.737 155.49C129.017 155.191 129.343 154.958 129.717 154.79C130.099 154.622 130.487 154.538 130.879 154.538C131.439 154.538 131.905 154.645 132.279 154.86C132.652 155.075 132.927 155.406 133.105 155.854C133.291 156.302 133.385 156.871 133.385 157.562V162H132.321V157.618C132.321 157.133 132.255 156.736 132.125 156.428C132.003 156.111 131.812 155.877 131.551 155.728C131.289 155.579 130.963 155.509 130.571 155.518C130.263 155.518 129.973 155.574 129.703 155.686C129.432 155.789 129.199 155.933 129.003 156.12C128.807 156.307 128.653 156.521 128.541 156.764C128.429 157.007 128.373 157.268 128.373 157.548V162H127.855C127.789 162 127.715 162 127.631 162C127.547 162 127.444 162 127.323 162ZM142.281 162.14C141.618 162.14 141.021 161.977 140.489 161.65C139.966 161.323 139.551 160.875 139.243 160.306C138.944 159.727 138.795 159.074 138.795 158.346C138.795 157.609 138.949 156.955 139.257 156.386C139.565 155.807 139.98 155.355 140.503 155.028C141.026 154.701 141.614 154.538 142.267 154.538C142.631 154.538 142.981 154.594 143.317 154.706C143.662 154.818 143.97 154.977 144.241 155.182C144.512 155.378 144.736 155.607 144.913 155.868C145.09 156.12 145.198 156.386 145.235 156.666L144.913 156.554V151.64H145.963V162H144.927L144.899 160.18L145.165 160.082C145.128 160.343 145.02 160.6 144.843 160.852C144.675 161.095 144.46 161.314 144.199 161.51C143.938 161.706 143.639 161.86 143.303 161.972C142.976 162.084 142.636 162.14 142.281 162.14ZM142.435 161.174C142.92 161.174 143.354 161.053 143.737 160.81C144.12 160.567 144.418 160.231 144.633 159.802C144.857 159.373 144.969 158.883 144.969 158.332C144.969 157.781 144.857 157.296 144.633 156.876C144.418 156.447 144.12 156.111 143.737 155.868C143.354 155.616 142.92 155.49 142.435 155.49C141.931 155.49 141.488 155.616 141.105 155.868C140.732 156.111 140.433 156.447 140.209 156.876C139.994 157.296 139.887 157.781 139.887 158.332C139.887 158.873 139.994 159.359 140.209 159.788C140.424 160.217 140.722 160.558 141.105 160.81C141.488 161.053 141.931 161.174 142.435 161.174ZM150.864 162.14C150.23 162.14 149.656 161.977 149.142 161.65C148.629 161.314 148.223 160.861 147.924 160.292C147.626 159.713 147.476 159.06 147.476 158.332C147.476 157.595 147.63 156.941 147.938 156.372C148.246 155.803 148.657 155.355 149.17 155.028C149.693 154.701 150.276 154.538 150.92 154.538C151.303 154.538 151.658 154.594 151.984 154.706C152.311 154.818 152.6 154.977 152.852 155.182C153.114 155.378 153.328 155.611 153.496 155.882C153.674 156.143 153.795 156.428 153.86 156.736L153.552 156.582L153.594 154.692H154.644V162H153.58V160.208L153.86 160.026C153.795 160.306 153.669 160.577 153.482 160.838C153.296 161.09 153.067 161.314 152.796 161.51C152.535 161.706 152.236 161.86 151.9 161.972C151.574 162.084 151.228 162.14 150.864 162.14ZM151.102 161.132C151.588 161.132 152.022 161.015 152.404 160.782C152.787 160.539 153.086 160.208 153.3 159.788C153.524 159.359 153.636 158.873 153.636 158.332C153.636 157.791 153.524 157.31 153.3 156.89C153.086 156.47 152.787 156.139 152.404 155.896C152.022 155.653 151.588 155.532 151.102 155.532C150.608 155.532 150.169 155.653 149.786 155.896C149.413 156.139 149.114 156.47 148.89 156.89C148.676 157.31 148.568 157.791 148.568 158.332C148.568 158.864 148.676 159.345 148.89 159.774C149.105 160.194 149.404 160.525 149.786 160.768C150.169 161.011 150.608 161.132 151.102 161.132ZM156.69 162V154.692H157.726L157.768 156.218L157.6 156.288C157.693 155.971 157.875 155.681 158.146 155.42C158.417 155.159 158.739 154.949 159.112 154.79C159.495 154.622 159.887 154.538 160.288 154.538C160.829 154.538 161.282 154.645 161.646 154.86C162.01 155.075 162.285 155.406 162.472 155.854C162.659 156.302 162.752 156.871 162.752 157.562V162H161.688V157.618C161.688 157.133 161.623 156.736 161.492 156.428C161.371 156.111 161.179 155.877 160.918 155.728C160.657 155.579 160.335 155.509 159.952 155.518C159.635 155.518 159.341 155.574 159.07 155.686C158.799 155.789 158.566 155.933 158.37 156.12C158.174 156.307 158.02 156.521 157.908 156.764C157.796 157.007 157.74 157.268 157.74 157.548V162H157.222C157.157 162 157.082 162 156.998 162C156.914 162 156.811 162 156.69 162ZM165.92 165.22L167.334 161.776L167.432 162.77L163.764 154.692H164.954L167.46 160.292C167.535 160.441 167.609 160.619 167.684 160.824C167.759 161.02 167.829 161.216 167.894 161.412L167.502 161.37C167.567 161.211 167.628 161.048 167.684 160.88C167.749 160.712 167.81 160.549 167.866 160.39L170.064 154.692H171.268L168.314 162L167.054 165.22H165.92ZM175.315 162.14C174.624 162.14 174.008 161.977 173.467 161.65C172.926 161.314 172.496 160.861 172.179 160.292C171.871 159.713 171.717 159.06 171.717 158.332C171.717 157.604 171.871 156.955 172.179 156.386C172.496 155.807 172.926 155.355 173.467 155.028C174.008 154.701 174.629 154.538 175.329 154.538C175.954 154.538 176.524 154.664 177.037 154.916C177.55 155.159 177.961 155.499 178.269 155.938L177.653 156.694C177.476 156.461 177.261 156.255 177.009 156.078C176.766 155.901 176.5 155.765 176.211 155.672C175.931 155.569 175.651 155.518 175.371 155.518C174.876 155.518 174.433 155.644 174.041 155.896C173.649 156.139 173.336 156.47 173.103 156.89C172.879 157.31 172.767 157.791 172.767 158.332C172.767 158.873 172.879 159.359 173.103 159.788C173.336 160.208 173.649 160.539 174.041 160.782C174.433 161.025 174.872 161.146 175.357 161.146C175.637 161.146 175.912 161.104 176.183 161.02C176.454 160.927 176.71 160.796 176.953 160.628C177.196 160.46 177.42 160.25 177.625 159.998L178.241 160.754C177.924 161.174 177.499 161.51 176.967 161.762C176.435 162.014 175.884 162.14 175.315 162.14ZM179.604 162V151.64H180.654V156.288L180.444 156.498C180.547 156.115 180.738 155.779 181.018 155.49C181.298 155.191 181.625 154.958 181.998 154.79C182.381 154.622 182.768 154.538 183.16 154.538C183.72 154.538 184.187 154.645 184.56 154.86C184.933 155.075 185.209 155.406 185.386 155.854C185.573 156.302 185.666 156.871 185.666 157.562V162H184.602V157.618C184.602 157.133 184.537 156.736 184.406 156.428C184.285 156.111 184.093 155.877 183.832 155.728C183.571 155.579 183.244 155.509 182.852 155.518C182.544 155.518 182.255 155.574 181.984 155.686C181.713 155.789 181.48 155.933 181.284 156.12C181.088 156.307 180.934 156.521 180.822 156.764C180.71 157.007 180.654 157.268 180.654 157.548V162H180.136C180.071 162 179.996 162 179.912 162C179.828 162 179.725 162 179.604 162Z" fill="#999DA3"/>
<g opacity="0.8" clip-path="url(#clip0_1_1782)">
<path d="M206.359 32.5366L203.075 48.4848L200.961 46.4199L197.364 48.9907L194.616 45.5698L188.452 50.0645L183.185 41.23L177.31 44.6819L174.979 41.4571L167.519 45.673L165.275 40.8548L170.504 15.4526L198.542 21.2586L206.359 32.5366Z" fill="#EBEBEB"/>
<path d="M198.541 21.2585L206.359 32.5366L196.633 30.5232L198.541 21.2585Z" fill="#DBDBDB"/>
<path d="M202.375 51.6751L197.56 75.0744L159.794 67.2586L164.574 44.0417L166.819 48.8634L174.283 44.6475L176.609 47.8688L182.488 44.4169L187.752 53.2514L193.919 48.7567L196.664 52.1776L200.264 49.6068L202.375 51.6751Z" fill="#EBEBEB"/>
<path d="M148.322 48.9322L109.835 51.3207L106.778 1.77241L135.357 0L145.848 8.82418L148.322 48.9322Z" fill="#EBEBEB"/>
<path d="M135.357 0L145.848 8.82418L135.937 9.44022L135.357 0Z" fill="#DBDBDB"/>
<path d="M124.688 33.335L124.54 32.2165C124.152 29.9003 124.784 27.3088 126.791 24.6003C128.6 22.205 129.581 20.4601 129.475 18.5156C129.351 16.313 127.893 14.9226 125.178 15.0327C123.627 15.1188 121.935 15.7348 120.906 16.6159L119.722 13.9555C121.084 12.8405 123.5 12.011 125.782 11.8837C130.731 11.6049 133.14 14.544 133.325 17.8239C133.49 20.7595 131.973 22.9656 130.045 25.5433C128.277 27.8939 127.694 29.8315 127.944 32.0272L128.051 33.1457L124.695 33.335H124.688ZM124.077 39.4335C123.988 37.8366 125 36.6527 126.506 36.5701C128.013 36.484 129.108 37.5509 129.197 39.1478C129.283 40.6587 128.356 41.8804 126.764 41.9699C125.257 42.0559 124.159 40.9477 124.073 39.4369L124.077 39.4335Z" fill="#DBDBDB"/>
<path d="M28.4351 24.91L24.5607 23.1479L24.0254 24.3387C23.8675 24.6898 23.5244 24.91 23.1435 24.9272C22.9307 24.9376 22.7214 24.9582 22.512 24.9892C22.1345 25.0477 21.757 24.8928 21.534 24.5831L20.7756 23.5231L17.3164 26.0079L18.0748 27.0679C18.2979 27.3776 18.3185 27.7872 18.1435 28.1279C18.0439 28.3172 17.9581 28.5099 17.8826 28.7095C17.7454 29.0674 17.4228 29.3221 17.0419 29.3565L15.7447 29.4839L16.1634 33.7273L17.464 33.5965C17.8449 33.5587 18.2052 33.748 18.4146 34.0715C18.4695 34.161 18.5278 34.247 18.5896 34.333C18.6513 34.4191 18.7131 34.5017 18.7783 34.5843C19.0151 34.8837 19.0803 35.2864 18.9225 35.634L18.3802 36.8316L22.2546 38.5937L22.7934 37.4029C22.9513 37.0519 23.2944 36.8316 23.6754 36.8144C23.8847 36.8041 24.0975 36.7834 24.3068 36.7525C24.6843 36.694 25.0618 36.8488 25.2848 37.1586L26.0432 38.2186L29.5024 35.7338L28.744 34.6738C28.5209 34.364 28.5003 33.9545 28.6754 33.6138C28.7715 33.4245 28.8607 33.2317 28.9362 33.0356C29.0734 32.6776 29.396 32.423 29.7769 32.3851L31.0741 32.2578L30.6555 28.0143L29.3548 28.1417C28.9739 28.1795 28.617 27.9902 28.4077 27.6667C28.3528 27.5772 28.291 27.4912 28.2292 27.4052C28.1675 27.3191 28.1057 27.2365 28.0405 27.1539C27.8003 26.8545 27.7385 26.4484 27.8964 26.1008L28.4351 24.91ZM26.2389 28.8369C27.3576 30.4062 27.0007 32.5847 25.4358 33.7101C23.871 34.8321 21.6953 34.4741 20.5731 32.9082C19.4544 31.3389 19.8113 29.1535 21.3761 28.0315C22.941 26.9096 25.1167 27.2709 26.2354 28.8403L26.2389 28.8369Z" fill="#EBEBEB"/>
<path d="M203.418 81.2141L200.837 82.7077L201.294 83.4993C201.428 83.7333 201.414 84.019 201.27 84.2427C201.187 84.3666 201.115 84.4973 201.047 84.6281C200.927 84.8656 200.683 85.0205 200.419 85.0205H199.506V88.0078H200.419C200.686 88.0078 200.927 88.1626 201.047 88.4001C201.115 88.5343 201.187 88.6617 201.27 88.7855C201.417 89.0093 201.428 89.2983 201.294 89.5289L200.837 90.3205L203.418 91.8141L203.874 91.0191C204.008 90.7851 204.262 90.6578 204.533 90.6715C204.605 90.675 204.681 90.6784 204.753 90.6784C204.825 90.6784 204.901 90.6784 204.973 90.6715C205.24 90.6578 205.494 90.7851 205.628 91.0157L206.088 91.8141L208.669 90.3205L208.212 89.5255C208.078 89.2915 208.092 89.0058 208.24 88.7821C208.322 88.6582 208.394 88.5309 208.463 88.3967C208.583 88.1592 208.823 88.0043 209.091 88.0043H210.003V85.017H209.091C208.823 85.017 208.583 84.8622 208.463 84.6247C208.394 84.4905 208.322 84.3631 208.24 84.2392C208.092 84.0155 208.078 83.7264 208.212 83.4959L208.669 82.7009L206.088 81.2072L205.631 82.0022C205.498 82.2362 205.244 82.3636 204.976 82.3498C204.904 82.3464 204.828 82.3429 204.756 82.3429C204.684 82.3429 204.609 82.3429 204.537 82.3498C204.269 82.3636 204.012 82.2362 203.878 82.0022L203.421 81.2072L203.418 81.2141ZM204.753 84.0706C206.102 84.0706 207.193 85.165 207.193 86.5176C207.193 87.8701 206.102 88.9645 204.753 88.9645C203.404 88.9645 202.313 87.8666 202.313 86.5176C202.313 85.1685 203.408 84.0706 204.753 84.0706Z" fill="#EBEBEB"/>
<path d="M36.2663 12.1935L33.8984 14.0072L34.4544 14.7333C34.6191 14.9467 34.6431 15.2324 34.5264 15.4767C34.4612 15.6109 34.4063 15.7486 34.3549 15.8897C34.2656 16.1409 34.046 16.3268 33.7818 16.3612L32.8758 16.4782L33.2601 19.4414L34.1661 19.3244C34.4304 19.29 34.6912 19.4104 34.8422 19.6341C34.928 19.758 35.0172 19.875 35.1133 19.9886C35.2883 20.1917 35.3363 20.4739 35.2334 20.7251L34.8833 21.5683L37.6356 22.7143L37.9856 21.8677C38.0886 21.6199 38.3253 21.4582 38.593 21.4375C38.6651 21.4306 38.7372 21.4237 38.8126 21.4134C38.8847 21.4031 38.9568 21.3928 39.0288 21.379C39.2931 21.3308 39.5608 21.4237 39.7221 21.6371L40.2814 22.3702L42.6493 20.5565L42.0934 19.8269C41.9321 19.6135 41.9081 19.3278 42.0247 19.0835C42.0899 18.9493 42.1448 18.8116 42.1963 18.6739C42.2855 18.4227 42.5052 18.2369 42.7694 18.2024L43.6754 18.0854L43.291 15.1222L42.3851 15.2392C42.1208 15.2737 41.86 15.1532 41.709 14.9329C41.6267 14.8091 41.534 14.692 41.4379 14.5785C41.2629 14.3754 41.2148 14.0932 41.3178 13.842L41.6678 12.9953L38.9156 11.8493L38.5656 12.6959C38.4626 12.9437 38.2258 13.102 37.9616 13.1261C37.8895 13.133 37.814 13.1399 37.742 13.1502C37.6699 13.1605 37.5978 13.1709 37.5258 13.1846C37.2615 13.2328 36.9904 13.1399 36.8291 12.9265L36.2732 12.2003L36.2663 12.1935ZM37.9582 14.8538C39.2931 14.6783 40.5182 15.6247 40.6932 16.9635C40.8682 18.3022 39.9245 19.5343 38.5896 19.7064C37.2547 19.8819 36.0261 18.9355 35.8545 17.5933C35.6795 16.2545 36.6232 15.0259 37.9616 14.8504L37.9582 14.8538Z" fill="#EBEBEB"/>
<path d="M18.5999 89.8421C18.7337 86.5107 18.6822 83.1758 18.4626 79.8513C18.013 72.9922 16.8874 66.1848 15.3397 59.4944C14.4681 55.7259 13.3974 52.0228 12.2821 48.3231C12.2478 48.2129 12.0693 48.2439 12.1002 48.3609C15.5525 61.4045 18.3871 74.861 18.1915 88.4208C18.1366 92.2134 17.6973 95.9406 17.3404 99.7126C17.3301 99.8124 17.4948 99.8537 17.5189 99.7504C18.2327 96.5222 18.4626 93.1426 18.5964 89.849L18.5999 89.8421Z" fill="#EBEBEB"/>
<path d="M12.1002 48.3575C12.1002 48.3575 6.86685 61.6764 8.04049 64.8047C9.2107 67.9366 11.6266 68.6042 11.6266 68.6042C11.6266 68.6042 8.42484 73.1884 10.6623 77.4869C12.8998 81.7854 17.8689 81.5824 18.1983 86.4556C18.1983 86.4556 18.4763 66.0747 12.1002 48.3575Z" fill="#EBEBEB"/>
<path d="M17.6321 78.041C17.639 78.0203 17.6355 77.9962 17.6252 77.9722C16.8909 68.9174 15.2883 59.8902 12.5498 51.1796C12.5429 51.1555 12.4983 51.1623 12.5051 51.1899C13.5415 55.0857 14.4646 59.0022 15.2539 62.9394C14.5745 62.2373 13.6856 61.8346 12.7557 61.5421C12.7385 61.5352 12.7282 61.5628 12.7454 61.5696C13.7131 61.9895 14.6397 62.4748 15.3226 63.2973C15.477 64.0682 15.6246 64.8426 15.7687 65.6135C14.5985 64.3022 12.9787 63.6518 11.3555 63.0358C11.3315 63.0254 11.3212 63.0633 11.3418 63.0702C13.0302 63.7585 14.7152 64.6498 15.8614 66.1091C16.2594 68.3186 16.6095 70.5384 16.9115 72.7616C16.057 71.8668 15.0034 71.2645 13.792 70.9686C13.7543 70.9582 13.7337 71.0133 13.7714 71.0236C15.0137 71.3816 16.0844 72.0802 16.9355 73.0576C16.9423 73.0645 16.9492 73.0679 16.9561 73.0714C17.0624 73.8526 17.1585 74.6373 17.2512 75.422C16.5923 74.8575 15.8648 74.4308 15.0652 74.1004C15.0446 74.0901 15.0309 74.1245 15.0549 74.1348C15.8682 74.4824 16.5992 74.9814 17.2443 75.5872C17.2546 75.594 17.2615 75.594 17.2718 75.5975C17.3576 76.3443 17.4468 77.0877 17.5223 77.8379C16.3212 76.389 14.8387 75.3394 13.0851 74.6614C13.0508 74.6476 13.0336 74.6992 13.0645 74.7164C14.7701 75.4598 16.2732 76.6403 17.4365 78.0926C17.4674 78.1339 17.5086 78.1374 17.5463 78.127C17.6596 79.2731 17.7591 80.4226 17.8449 81.572C17.8449 81.5892 17.8723 81.5892 17.8723 81.572C17.8071 80.395 17.7248 79.218 17.6287 78.041H17.6321Z" fill="white"/>
<path d="M13.4283 60.2171C12.5223 59.5908 11.3692 59.3258 10.2848 59.2328C10.2574 59.2328 10.2574 59.2707 10.2848 59.2741C11.4104 59.4428 12.3576 59.8523 13.3939 60.2929C13.4386 60.3135 13.4694 60.2447 13.4317 60.2171H13.4283Z" fill="white"/>
<path d="M14.0631 74.3207C13.3459 73.887 12.5257 73.6427 11.7021 73.5119C11.6747 73.5085 11.6712 73.5532 11.7021 73.5566C12.536 73.7081 13.2773 74.0075 14.0357 74.3792C14.0666 74.3964 14.094 74.3413 14.0631 74.3241V74.3207Z" fill="white"/>
<path d="M32.3541 65.0216C30.1716 66.56 28.0782 68.3358 26.2972 70.3319C24.3994 72.4588 23.0164 74.8748 22.0487 77.5558C20.0686 83.0485 18.9842 88.9955 18.8847 94.8324C18.8298 98.1054 19.118 101.351 19.8181 104.548C19.8421 104.665 20.0171 104.631 20 104.514C19.1455 98.8866 19.1764 93.1461 20.0961 87.5329C20.9952 82.0229 22.4056 76.0277 25.8991 71.5502C27.8002 69.1136 30.1716 67.1932 32.5154 65.2109C32.639 65.1076 32.4811 64.9355 32.3541 65.025V65.0216Z" fill="#EBEBEB"/>
<path d="M19.6568 90.8643C19.6568 90.8643 21.455 87.8288 24.07 85.2064C26.6884 82.5839 28.8915 80.7186 29.2313 78.9806C29.571 77.246 26.6095 75.9658 26.6095 75.9658C26.6095 75.9658 30.2299 76.6162 31.2217 75.095C32.2134 73.5704 32.6904 64.7428 32.6904 64.7428C32.6904 64.7428 26.1016 69.4612 23.0302 76.0759C19.9588 82.6906 19.6534 90.8677 19.6534 90.8677L19.6568 90.8643Z" fill="#EBEBEB"/>
<path d="M30.4152 67.0039C27.6424 69.7365 24.8524 72.6446 23.2189 76.2342C22.6595 77.4628 22.1825 78.7397 21.7639 80.0406C21.7639 80.0406 21.7639 80.044 21.7639 80.0475C21.6781 80.309 21.5957 80.5671 21.5133 80.8321C21.5065 80.8459 21.4996 80.8597 21.4996 80.8734C20.6932 83.5544 20.1235 86.3249 19.6293 89.03C19.6293 89.0472 19.6534 89.0575 19.6568 89.0403C19.9416 87.6637 20.2539 86.2733 20.6039 84.8863C20.6177 84.8863 20.628 84.8863 20.6417 84.8794C21.2011 84.642 21.7673 84.494 22.3713 84.4389C22.409 84.4355 22.409 84.3666 22.3678 84.3701C21.7844 84.3976 21.2114 84.5008 20.6588 84.6833C20.978 83.434 21.3246 82.1847 21.7158 80.956C22.989 80.6429 24.317 80.4742 25.6245 80.4432C25.6383 80.4432 25.6417 80.4226 25.6245 80.4226C24.3068 80.3606 23.0679 80.4742 21.781 80.7495C21.8496 80.5396 21.9183 80.3297 21.9903 80.1197C22.8483 79.9236 23.7131 79.7584 24.5916 79.6792C24.6087 79.6792 24.6053 79.6517 24.5916 79.6517C23.7302 79.6758 22.8826 79.7653 22.0453 79.9614C22.4022 78.898 22.7899 77.8483 23.2223 76.8262C23.5792 75.9795 24.0013 75.1776 24.468 74.4033C25.1715 74.245 25.8545 74.0901 26.5785 74.0247C26.5991 74.0247 26.5957 73.9903 26.5785 73.9903C25.9231 73.949 25.2402 73.9972 24.6053 74.1865C24.9519 73.6255 25.3157 73.0748 25.7069 72.5414C27.186 72.2145 28.6822 71.9082 30.1921 72.1938C30.2196 72.1972 30.2265 72.1559 30.2024 72.1491C28.7645 71.7705 27.337 71.9873 25.9025 72.273C26.0604 72.063 26.2182 71.86 26.3795 71.6535C27.2855 71.3713 28.188 71.237 29.142 71.2198C29.1626 71.2198 29.1661 71.1923 29.142 71.1889C28.2738 71.1063 27.4056 71.1889 26.5682 71.4195C27.7899 69.8983 29.1386 68.4666 30.4735 67.0521C30.5353 66.9867 30.4873 66.9489 30.4221 67.0142L30.4152 67.0039Z" fill="white"/>
<path d="M30.3397 73.0198C29.9073 72.975 29.4646 72.9234 29.0288 72.975C28.9773 72.9819 28.9808 73.0679 29.0322 73.0679C29.4646 73.0817 29.9005 73.0473 30.3329 73.0714C30.3672 73.0714 30.3706 73.0232 30.3363 73.0198H30.3397Z" fill="white"/>
<path d="M25.5971 81.5858C24.9039 81.5789 24.2141 81.7648 23.5655 81.9954C23.5484 82.0022 23.5587 82.0298 23.5758 82.0229C24.245 81.8611 24.9245 81.7992 25.604 81.6856C25.6589 81.6753 25.6554 81.5858 25.5971 81.5858Z" fill="white"/>
<path d="M24.1764 78.6261C23.895 78.6123 23.593 78.6605 23.315 78.7052C23.2876 78.7087 23.2876 78.7569 23.315 78.7569C23.5964 78.7603 23.9018 78.7706 24.1798 78.7156C24.2279 78.7052 24.2279 78.6295 24.1764 78.6261Z" fill="white"/>
<path d="M0.339735 74.393C2.46053 75.1329 4.56417 76.0828 6.46534 77.2839C8.49004 78.5676 10.1681 80.1989 11.5683 82.1434C14.4372 86.1287 16.685 90.6922 18.1091 95.39C18.9087 98.0262 19.42 100.718 19.5951 103.467C19.6019 103.567 19.4544 103.581 19.4406 103.481C18.8332 98.7317 17.4846 94.0925 15.4495 89.7596C13.4523 85.5092 10.9266 80.987 7.06932 78.1718C4.96911 76.6403 2.60809 75.6354 0.253942 74.5754C0.130401 74.5203 0.219625 74.3448 0.343167 74.3861L0.339735 74.393Z" fill="#EBEBEB"/>
<path d="M16.5717 92.3614C16.5717 92.3614 14.4166 90.3205 11.6953 88.8062C8.97391 87.2885 6.75702 86.2905 6.08441 84.9655C5.40836 83.6404 7.512 81.9197 7.512 81.9197C7.512 81.9197 4.73231 83.286 3.57926 82.2845C2.4262 81.2795 0.00341797 74.245 0.00341797 74.245C0.00341797 74.245 6.42414 76.537 10.4324 81.1763C14.4406 85.8155 16.5751 92.3648 16.5751 92.3648L16.5717 92.3614Z" fill="#EBEBEB"/>
<path d="M16.2354 90.909C13.0233 84.8657 8.74055 79.397 2.8689 75.7868C2.8689 75.7868 2.86203 75.7868 2.8689 75.7902C4.41316 76.778 5.83732 77.9171 7.16539 79.163C5.97802 79.1286 4.76663 79.3213 3.7131 79.8926C3.68907 79.9064 3.70623 79.9373 3.73025 79.9304C4.9039 79.5312 6.03293 79.2697 7.28207 79.3282C7.29923 79.3282 7.30953 79.3213 7.32325 79.3144C7.53259 79.514 7.73849 79.7136 7.94096 79.9167C7.32325 79.9442 6.69868 80.0303 6.09813 80.161C6.08098 80.1645 6.08784 80.1886 6.10157 80.1851C6.75359 80.0578 7.38846 80.0165 8.05078 80.0234C9.12833 81.1075 10.1304 82.2673 11.0775 83.4718C10.6486 83.4099 10.199 83.4443 9.78722 83.5647C9.75634 83.5751 9.7632 83.6164 9.79752 83.6129C10.2642 83.5544 10.7104 83.5613 11.1736 83.5923C11.3486 83.816 11.5271 84.0397 11.6987 84.2668C10.3775 84.1877 9.08372 84.315 7.80369 84.6454C7.7831 84.6488 7.78997 84.6798 7.81056 84.6764C9.1352 84.4148 10.4667 84.3322 11.8119 84.4148C11.9767 84.6316 12.1311 84.8553 12.2924 85.0756C11.5031 85.0515 10.7412 85.1513 9.97253 85.3406C9.94165 85.3475 9.95194 85.3922 9.98283 85.3888C10.7721 85.2098 11.5751 85.1616 12.385 85.1995C13.0748 86.1528 13.7371 87.1302 14.372 88.1179C14.0357 88.0491 13.6822 88.087 13.3528 88.1799C13.3356 88.1833 13.339 88.2109 13.3596 88.2074C13.7371 88.1627 14.0906 88.2109 14.4612 88.259C15.0343 89.1504 15.5868 90.0521 16.1153 90.9607C16.1599 91.0364 16.2834 90.9813 16.2423 90.8987L16.2354 90.909Z" fill="white"/>
<path d="M11.2423 85.8981C10.6143 85.843 9.97598 85.9429 9.37543 86.1253C9.35827 86.1321 9.3617 86.1562 9.38229 86.1528C10 86.0392 10.6108 85.9945 11.2354 85.9635C11.2766 85.9635 11.2835 85.9016 11.2388 85.8981H11.2423Z" fill="white"/>
<path d="M5.64174 78.5297C5.3569 78.4987 5.06178 78.5332 4.78038 78.5813C4.74606 78.5882 4.75636 78.6364 4.79067 78.633C5.07207 78.602 5.35347 78.6123 5.63487 78.6054C5.67949 78.6054 5.68978 78.5366 5.64174 78.5332V78.5297Z" fill="white"/>
<path d="M24.8524 112.35H10.3603L12.4262 97.1692L12.9547 93.2768H22.258L22.7865 97.1692L24.8524 112.35Z" fill="#DBDBDB"/>
<path d="M22.7865 97.1692H12.4262L12.9547 93.2768H22.2581L22.7865 97.1692Z" fill="#C7C7C7"/>
<path d="M23.5861 91.9277H11.6232V95.2248H23.5861V91.9277Z" fill="#DBDBDB"/>
<path d="M1.14618 112.35L27.2306 112.264L53.315 112.236L105.484 112.178L157.653 112.233L183.737 112.264L209.822 112.35L183.737 112.433L157.653 112.464L105.484 112.522L53.315 112.464L27.2306 112.433L1.14618 112.35Z" fill="black"/>
<path d="M106.17 138C160.515 138 204.571 133.159 204.571 127.187C204.571 121.214 160.515 116.373 106.17 116.373C51.825 116.373 7.76941 121.214 7.76941 127.187C7.76941 133.159 51.825 138 106.17 138Z" fill="#EBEBEB"/>
<path d="M83.2635 125.394C82.4639 125.665 59.5367 125.745 58.6582 125.194C58.3253 124.987 58.1194 121.639 57.9821 117.585C57.9512 116.71 57.9272 115.805 57.9066 114.886L56.0466 102.621L71.3726 102.521L72.8208 114.787L72.7625 117.485C72.7625 117.485 81.5545 121.391 82.4502 122.1C83.3424 122.809 84.0597 125.115 83.2601 125.387L83.2635 125.394Z" fill="#EB9481"/>
<path d="M83.2635 125.394C82.4639 125.665 59.5367 125.745 58.6581 125.194C58.2532 124.939 58.0336 120.049 57.91 114.89L72.8242 114.793L72.7659 117.492C72.7659 117.492 81.5579 121.398 82.4536 122.107C83.3459 122.816 84.0631 125.122 83.2635 125.394Z" fill="white"/>
<path d="M83.2635 125.394C82.4639 125.665 59.5367 125.745 58.6582 125.194C58.3253 124.987 58.1194 121.639 57.9821 117.585L72.7659 117.488C72.7659 117.488 81.558 121.394 82.4536 122.103C83.3459 122.812 84.0631 125.118 83.2635 125.39V125.394Z" fill="#A6A6A6"/>
<path d="M82.9307 124.475C79.0871 124.392 63.5758 124.43 59.7701 124.643C59.7392 124.643 59.7392 124.667 59.7701 124.667C63.5792 124.833 79.0871 124.667 82.9307 124.537C83.013 124.537 83.013 124.475 82.9307 124.475Z" fill="black"/>
<path d="M80.978 121.284C80.0652 121.25 79.1764 121.687 78.6822 122.234C78.2052 122.757 77.8002 123.497 77.8311 124.296C77.8311 124.32 77.8757 124.32 77.8792 124.296C78.0919 122.785 79.4578 121.456 80.9814 121.332C81.0123 121.332 81.0123 121.284 80.9814 121.284H80.978Z" fill="black"/>
<path d="M74.2587 117.87C72.7213 117.853 70.9402 118.404 69.9862 119.67C69.9485 119.718 70.0205 119.77 70.0651 119.746C71.455 119.023 72.7728 118.483 74.2862 118.06C74.3925 118.029 74.3685 117.87 74.2587 117.87Z" fill="black"/>
<path d="M75.4495 118.331C73.9121 118.314 72.131 118.865 71.177 120.131C71.1393 120.18 71.2113 120.231 71.2559 120.207C72.6424 119.484 73.9636 118.944 75.4769 118.521C75.5833 118.49 75.5593 118.331 75.4495 118.331Z" fill="black"/>
<path d="M76.6369 118.793C75.0995 118.775 73.3184 119.326 72.3644 120.593C72.3266 120.641 72.3987 120.692 72.4433 120.668C73.8297 119.946 75.1509 119.405 76.6643 118.982C76.7707 118.951 76.7467 118.793 76.6369 118.793Z" fill="black"/>
<path d="M77.8277 119.25C76.2903 119.233 74.5092 119.784 73.5552 121.05C73.5174 121.098 73.5895 121.15 73.6341 121.126C75.0205 120.403 76.3417 119.863 77.8551 119.44C77.9615 119.409 77.9375 119.25 77.8277 119.25Z" fill="black"/>
<path d="M60.7378 120.981C59.0116 120.992 59.0254 123.683 60.7549 123.673C62.4811 123.662 62.4674 120.971 60.7378 120.981Z" fill="black"/>
<path d="M75.9059 113.747C75.1235 113.104 74.1454 113.74 73.6684 114.411C72.8963 115.502 72.3644 117.031 72.2855 118.362C72.2855 118.397 72.3095 118.407 72.3335 118.407C72.3678 118.517 72.4982 118.61 72.6115 118.531C73.7028 117.767 74.9656 117.086 75.7927 116.008C76.2765 115.379 76.6472 114.356 75.9059 113.747ZM74.0322 117.034C73.5037 117.423 72.9615 117.784 72.4468 118.19C72.7179 117.419 72.9546 116.642 73.3047 115.902C73.4728 115.547 73.6479 115.186 73.864 114.859C74.1969 114.35 75.7034 113.052 75.8613 114.732C75.9505 115.657 74.6636 116.569 74.0322 117.034Z" fill="black"/>
<path d="M68.466 118.951C69.8078 119.154 71.1873 118.765 72.5017 118.555C72.6389 118.534 72.6698 118.376 72.6149 118.273C72.6355 118.256 72.6424 118.232 72.6183 118.208C71.6403 117.306 70.2024 116.573 68.8915 116.322C68.0816 116.167 66.9354 116.39 66.8188 117.399C66.7089 118.352 67.6835 118.83 68.466 118.947V118.951ZM67.5325 118.073C66.4859 116.755 68.466 116.642 69.0597 116.776C69.4406 116.865 69.8181 117 70.1818 117.141C70.9471 117.433 71.654 117.829 72.385 118.194C71.733 118.256 71.0912 118.376 70.4426 118.462C69.6671 118.565 68.1091 118.803 67.5325 118.073Z" fill="black"/>
<path d="M33.5278 45.9346C33.5278 45.9346 51.328 76.303 51.8051 78.4333C52.536 81.7097 56.4207 114.064 56.4207 114.064L74.9416 113.73C74.9416 113.73 71.7501 85.2029 68.7268 75.804C66.5477 69.0344 50.8407 46.5816 50.8407 46.5816L33.5312 45.9312L33.5278 45.9346Z" fill="#37474F"/>
<path d="M73.2566 110.884C70.597 110.863 61.1701 110.756 57.632 111.09C57.6046 111.09 57.6046 111.139 57.632 111.142C58.8503 111.317 70.6005 111.046 73.2566 110.96C73.3081 110.96 73.3047 110.887 73.2566 110.887V110.884Z" fill="black"/>
<path d="M36.5648 48.7222C37.7316 50.5566 38.9636 52.3531 40.1544 54.1737C41.3486 55.9943 42.536 57.8149 43.7096 59.6492C46.0535 63.311 48.339 67.0107 50.5799 70.7345C51.63 72.4794 52.6321 74.2449 53.3562 76.1481C54.07 78.0341 54.5573 79.9992 54.9176 81.9781C55.2813 83.9708 55.5181 85.9841 55.7446 87.9974C55.9848 90.1415 56.2216 92.2822 56.4619 94.4263C56.9492 98.8108 57.4365 103.195 57.9272 107.58C57.9855 108.117 58.0473 108.657 58.0988 109.194C58.1056 109.273 57.9649 109.287 57.9547 109.208C57.409 104.851 56.956 100.483 56.4619 96.1195C56.2148 93.9479 55.9677 91.7762 55.724 89.6046C55.4941 87.5844 55.2779 85.5642 54.9656 83.5543C54.6602 81.5823 54.2587 79.6172 53.6616 77.7071C53.037 75.711 52.1482 73.8388 51.1015 72.0251C48.9567 68.3116 46.6849 64.6636 44.4131 61.0224C42.1207 57.3502 39.8112 53.6919 37.4124 50.0851C37.1173 49.6411 36.8188 49.1972 36.5099 48.7601C36.4859 48.7257 36.5442 48.6947 36.5682 48.7291L36.5648 48.7222Z" fill="black"/>
<path d="M39.3617 127.187C38.5175 127.135 16.7124 118.276 16.105 117.437C16.0844 117.409 16.0741 117.354 16.0707 117.275C16.0741 116.525 17.5841 113.892 18.8469 110.436C18.9259 110.216 19.4887 109.191 20.2711 107.807C22.4193 104.011 26.2182 97.5099 26.2182 97.5099L40.4701 103.189L33.6479 113.431L32.5875 115.909C32.5875 115.909 39.2759 122.84 39.8421 123.835C40.4049 124.826 40.2059 127.235 39.3651 127.187H39.3617Z" fill="#EB9481"/>
<path d="M39.3617 127.187C38.5175 127.135 16.7124 118.276 16.105 117.437C16.0844 117.409 16.0741 117.354 16.0707 117.275C16.0741 116.525 17.5841 113.892 18.8469 110.436C18.9259 110.216 19.4887 109.191 20.2711 107.807L33.6479 113.427L32.5875 115.905C32.5875 115.905 39.2759 122.836 39.8421 123.831C40.4049 124.822 40.2059 127.231 39.3651 127.183L39.3617 127.187Z" fill="white"/>
<path d="M39.3617 127.183C38.5175 127.135 16.7159 118.273 16.1085 117.433C15.8785 117.117 16.8531 114.129 18.8504 110.436L32.5875 115.909C32.5875 115.909 39.2759 122.836 39.8422 123.831C40.405 124.822 40.2059 127.231 39.3617 127.183Z" fill="#A6A6A6"/>
<path d="M39.3961 126.209C35.8648 124.688 21.4722 118.886 17.8655 117.653C17.8346 117.643 17.8278 117.664 17.8552 117.678C21.3247 119.261 35.7619 124.946 39.372 126.271C39.4475 126.299 39.4715 126.244 39.3961 126.213V126.209Z" fill="black"/>
<path d="M38.7783 122.516C37.9444 122.141 36.9595 122.214 36.2938 122.534C35.6555 122.84 35.0034 123.37 34.7323 124.124C34.7255 124.144 34.7632 124.161 34.7769 124.141C35.5388 122.823 37.3027 122.103 38.7612 122.561C38.792 122.571 38.8058 122.53 38.7783 122.516Z" fill="black"/>
<path d="M33.8264 116.821C32.4057 116.229 30.5491 116.067 29.1936 116.883C29.1421 116.914 29.1867 116.989 29.2382 116.982C30.7962 116.834 32.2204 116.831 33.7818 117.006C33.8916 117.02 33.9294 116.862 33.8264 116.821Z" fill="black"/>
<path d="M34.7564 117.695C33.3357 117.099 31.4791 116.941 30.1236 117.757C30.0721 117.788 30.1167 117.863 30.1682 117.857C31.7262 117.709 33.1504 117.705 34.7118 117.881C34.8216 117.894 34.8594 117.736 34.7564 117.695Z" fill="black"/>
<path d="M35.6898 118.569C34.2691 117.977 32.4125 117.815 31.057 118.631C31.0055 118.662 31.0501 118.738 31.1016 118.731C32.6596 118.583 34.0838 118.579 35.6452 118.755C35.755 118.769 35.7928 118.61 35.6898 118.569Z" fill="black"/>
<path d="M36.6198 119.443C35.1991 118.848 33.3425 118.689 31.987 119.505C31.9355 119.536 31.9801 119.612 32.0316 119.605C33.5896 119.457 35.0138 119.453 36.5752 119.629C36.685 119.643 36.7228 119.484 36.6198 119.443Z" fill="black"/>
<path d="M20.1304 114.618C18.5278 113.978 17.5326 116.476 19.1387 117.117C20.7413 117.757 21.7365 115.258 20.1304 114.618Z" fill="black"/>
<path d="M36.8978 113.62C36.4139 112.729 35.2712 112.949 34.5745 113.396C33.4489 114.116 32.3885 115.334 31.8154 116.538C31.8017 116.569 31.8189 116.59 31.8429 116.597C31.8326 116.71 31.9184 116.848 32.0522 116.817C33.3494 116.521 34.777 116.363 35.9438 115.678C36.6267 115.275 37.3542 114.467 36.8978 113.623V113.62ZM33.9294 115.96C33.2945 116.122 32.6562 116.253 32.0248 116.435C32.5635 115.823 33.0749 115.193 33.6788 114.635C33.9671 114.37 34.2657 114.102 34.5848 113.878C35.0824 113.53 36.963 112.897 36.4826 114.511C36.2183 115.403 34.6843 115.764 33.9259 115.957L33.9294 115.96Z" fill="black"/>
<path d="M28.0543 115.644C29.221 116.335 30.6452 116.494 31.9424 116.796C32.0762 116.827 32.1654 116.693 32.1551 116.58C32.1792 116.573 32.1963 116.552 32.1826 116.521C31.6129 115.317 30.556 114.095 29.4304 113.372C28.7372 112.925 27.591 112.701 27.1071 113.589C26.6473 114.432 27.3713 115.241 28.0543 115.644ZM27.5189 114.48C27.0419 112.863 28.9225 113.503 29.4201 113.854C29.7392 114.078 30.0378 114.346 30.326 114.615C30.9266 115.172 31.4345 115.805 31.9733 116.418C31.3453 116.232 30.707 116.101 30.0721 115.936C29.3171 115.74 27.7831 115.372 27.5223 114.48H27.5189Z" fill="black"/>
<path d="M34.7495 112.856L18.7955 106.396C18.7955 106.396 38.5758 77.2322 38.72 75.0606C38.8504 73.1368 30.1613 56.4038 29.8181 51.5271C29.4475 46.265 31.9767 42.1902 34.7529 39.6641L51.2114 46.678C51.2114 46.678 49.4749 49.4656 46.7399 51.0144C46.7399 51.0144 55.1784 70.356 54.7014 76.303C54.221 82.281 34.7495 112.856 34.7495 112.856Z" fill="#37474F"/>
<path d="M35.4564 109.814C33.1503 108.819 33.8264 109.07 31.5065 108.103C30.3706 107.628 22.917 104.52 21.7811 104.266C21.757 104.259 21.7399 104.3 21.7605 104.314C22.7522 104.923 30.2608 107.9 31.407 108.354C33.744 109.277 33.0817 108.988 35.429 109.886C35.4736 109.903 35.501 109.838 35.4564 109.817V109.814Z" fill="black"/>
<path d="M49.4475 50.6633C47.7316 51.0316 46.0501 51.6407 44.4338 52.2946C44.372 52.3187 44.3994 52.4151 44.4681 52.3944C46.1496 51.9023 47.862 51.4411 49.5127 50.8595C49.6431 50.8148 49.5779 50.6358 49.4475 50.6633Z" fill="black"/>
<path d="M47.4949 49.9853C47.3336 50.2675 47.1963 50.5669 47.0728 50.8698C46.9767 51.1038 46.8566 51.3551 46.8566 51.6097C46.8566 51.6579 46.9218 51.6717 46.9527 51.6407C47.1448 51.4514 47.2444 51.1761 47.3645 50.9421C47.5052 50.6702 47.6493 50.3983 47.7831 50.123C47.8724 49.9406 47.591 49.8098 47.4914 49.9819L47.4949 49.9853Z" fill="black"/>
<path d="M47.6939 48.4332C47.7934 48.1785 47.8964 47.9273 48.0028 47.6726C48.1126 47.411 48.2395 47.1564 48.3322 46.8879C48.3459 46.8466 48.4146 46.8742 48.3974 46.9155C48.2979 47.1701 48.2327 47.442 48.1503 47.7036C48.068 47.9651 47.9856 48.2267 47.8964 48.4882C47.7351 48.9735 47.5395 49.4553 47.3301 49.9234C47.5978 49.9199 47.8758 49.9096 48.1194 49.7857C48.3837 49.6515 48.545 49.3693 48.6754 49.1146C48.8195 48.829 48.9533 48.5399 49.1043 48.2577C49.2691 47.9445 49.4509 47.6382 49.5608 47.3009C49.5745 47.2596 49.6397 47.2871 49.626 47.3284C49.3789 48.0236 49.1352 48.7223 48.7474 49.3624C48.5964 49.6136 48.4729 49.8786 48.1949 49.975C47.8964 50.0817 47.5669 50.061 47.2546 50.037C47.2169 50.0473 47.1654 50.0232 47.1791 49.975C47.3267 49.4553 47.4914 48.9288 47.6939 48.4263V48.4332Z" fill="black"/>
<path d="M46.9938 51.6476C47.5772 52.89 48.092 54.129 48.641 55.3679C49.1764 56.5794 49.674 57.8046 50.1613 59.0332C51.1427 61.5215 52.0213 64.0544 52.7934 66.615C53.1743 67.8815 53.5278 69.1583 53.8435 70.442C54.1626 71.7291 54.4715 73.0301 54.6053 74.3551C54.7392 75.6835 54.6431 76.9947 54.2759 78.2784C53.9018 79.5794 53.4077 80.7185 52.8243 81.9368C52.4674 82.6802 52.3438 82.5804 52.5154 82.2053C53.0062 81.1384 54.2931 77.9068 54.2004 75.1914C54.1558 73.8801 53.8881 72.5895 53.593 71.3162C53.291 70.0152 52.9513 68.7247 52.5806 67.4444C51.8497 64.9183 50.9815 62.4438 50.0892 59.9727C49.5882 58.5892 49.0528 57.2195 48.5449 55.836C48.0336 54.4456 47.5051 53.1929 46.9389 51.6717C46.9252 51.6304 46.9835 51.6097 47.0007 51.6476H46.9938Z" fill="black"/>
<path d="M34.8833 47.5384C35.1681 47.4317 35.5662 47.6072 35.8579 47.6554C36.232 47.7174 36.6094 47.7552 36.9869 47.769C37.361 47.7828 37.735 47.769 38.1091 47.7311C38.4797 47.6967 38.8606 47.6485 39.1832 47.4455C39.7289 47.1048 40.1819 46.5059 40.5525 45.9863C40.9574 45.4184 41.3795 44.7645 41.6197 44.1072C41.6335 44.0659 41.6918 44.0934 41.6815 44.1347C41.5614 44.5167 41.4722 44.9056 41.3178 45.2807C41.1736 45.6318 40.9883 45.969 40.7927 46.296C40.4255 46.9017 40.0034 47.5522 39.372 47.9135C38.7097 48.2921 37.8586 48.268 37.1208 48.2267C36.6952 48.2026 36.2697 48.1441 35.851 48.0581C35.549 47.9927 35.0412 47.9445 34.849 47.6795C34.8147 47.6313 34.8318 47.5591 34.8902 47.5384H34.8833Z" fill="black"/>
<path d="M23.3494 103.347C25.9712 99.3684 28.545 95.3555 31.0707 91.3151C33.6033 87.2644 36.0913 83.1827 38.545 79.0803C39.1318 78.0995 39.8079 77.1187 40.1853 76.0311C40.5971 74.8507 40.3638 73.7046 39.9897 72.5483C39.3068 70.4282 38.4592 68.3667 37.5395 66.3397C36.6198 64.3057 35.628 62.3061 34.6534 60.2997C33.6857 58.3105 32.6596 56.3109 31.9252 54.2185C31.2251 52.2189 30.9575 50.1471 31.4963 48.0753C32.0282 46.0172 33.1812 44.1725 34.3858 42.4483C34.7049 41.994 35.0275 41.5432 35.3466 41.0889C35.3707 41.0545 35.4221 41.0958 35.3981 41.1302C34.07 42.9267 32.7763 44.8299 31.9973 46.9395C31.6129 47.9823 31.3624 49.0802 31.3384 50.1918C31.3144 51.3207 31.5237 52.4426 31.8566 53.5198C32.5017 55.6123 33.521 57.5946 34.4715 59.5598C35.4427 61.5696 36.4379 63.5658 37.3748 65.5928C38.3151 67.6302 39.197 69.7021 39.9211 71.829C40.2437 72.7754 40.604 73.7666 40.58 74.7818C40.556 75.8935 40.0275 76.895 39.4784 77.8311C37.0934 81.9128 34.6157 85.9394 32.1105 89.9454C29.5951 93.9651 27.0282 97.9574 24.4201 101.919C24.0906 102.418 23.7612 102.917 23.4317 103.416C23.3906 103.478 23.3013 103.405 23.3425 103.343L23.3494 103.347Z" fill="black"/>
<path d="M52.1242 28.1279C53.6102 31.3974 61.1119 35.9024 64.626 36.3877C67.1551 36.7352 74.8319 36.8557 77.464 36.453C80.5491 35.9815 78.1915 27.6323 76.3693 27.8457C71.359 28.4342 67.1037 29.0881 65.7687 29.0881C64.1352 29.0881 55.2986 26.2419 54.2313 25.8427C51.6266 24.8618 51.28 26.2763 52.1242 28.1279Z" fill="#EB9481"/>
<path d="M52.1723 28.9955C54.0528 31.7866 60.3054 36.3501 60.3054 36.3501L61.1736 34.4228L64.046 28.0525C64.046 28.0525 58.3047 26.2353 54.5264 25.4265C54.0151 25.3164 53.5655 25.251 53.1743 25.2338C50.7618 25.103 50.5525 26.6001 52.1757 28.9989L52.1723 28.9955Z" fill="#FFC727"/>
<path d="M52.1723 28.9952C54.0528 31.7863 60.3054 36.3498 60.3054 36.3498L61.1736 34.4225C58.8435 31.7071 55.2436 27.5945 53.1743 25.2301C50.7618 25.0993 50.5525 26.5964 52.1757 28.9952H52.1723Z" fill="black"/>
<path d="M59.1763 35.0592C59.6534 33.8891 61.7742 29.1638 62.3026 28.1727C62.3404 28.1038 62.3919 28.1107 62.361 28.1864C61.0157 31.7278 59.746 33.9511 59.221 35.0764C59.2072 35.104 59.1626 35.0902 59.1729 35.0592H59.1763Z" fill="black"/>
<path d="M75.453 27.9386C78.5037 27.5359 82.2752 26.851 85.4667 28.2105C86.0947 28.4755 86.3212 28.947 86.3212 28.947C87.7625 29.532 87.9204 30.389 87.9204 30.389C89.0974 31.3457 89.1386 32.2474 89.1386 32.2474C89.1386 32.2474 90.8236 32.9529 90.5696 34.0439C90.2882 35.2691 87.9753 34.0439 86.2903 34.1437C82.4331 34.3812 77.0144 35.8026 75.9094 35.985L75.4495 27.942L75.453 27.9386Z" fill="#EB9481"/>
<path d="M82.0728 31.5453C83.2086 31.4971 84.324 31.4214 85.4633 31.5281C86.7124 31.6451 87.8929 31.9686 89.1009 32.268C89.1386 32.2784 89.1558 32.2267 89.1181 32.2095C87.011 31.3216 84.3102 31.0876 82.0693 31.4937C82.0144 31.504 82.0144 31.5488 82.0693 31.5453H82.0728Z" fill="black"/>
<path d="M81.5923 29.2292C82.7007 29.243 84.6499 29.2843 87.9101 30.4234C87.9203 30.4269 87.9306 30.4097 87.9203 30.4062C85.9025 29.3841 83.8332 29.0193 81.5957 29.1776C81.5271 29.181 81.5202 29.2292 81.5957 29.2292H81.5923Z" fill="black"/>
<path d="M81.3555 27.9833C83.2395 28.0797 84.4166 28.3825 86.3109 28.9538C86.3212 28.9538 86.3315 28.9401 86.3177 28.9332C84.2313 28.0556 83.3768 27.9764 81.3486 27.9179C81.28 27.9179 81.28 27.9799 81.3555 27.9833Z" fill="black"/>
<path d="M81.6609 34.7253C81.1702 34.9559 81.2869 35.214 82.2271 35.4343C83.1743 35.658 87.059 35.7165 86.9217 37.0759C86.7879 38.4422 81.2903 38.2667 79.7563 37.7849C78.2223 37.3065 75.9094 35.9815 75.9094 35.9815C76.9869 35.7991 79.5538 35.1074 81.6609 34.7253Z" fill="#EB9481"/>
<path d="M56.2045 33.3419C56.1805 33.9304 56.1222 34.5292 56.0398 35.1212C56.0467 35.1005 56.0569 35.0799 56.0638 35.0592C56.1771 34.7495 56.2903 34.4328 56.4276 34.1334C56.4344 34.1162 56.4619 34.1231 56.4585 34.1403C56.3967 34.4638 56.2834 34.7908 56.1599 35.0971C56.1016 35.2451 56.0398 35.3896 55.978 35.5341C55.9368 35.7991 55.8888 36.0607 55.8339 36.3188C55.7309 36.811 55.2677 38.9034 55.1647 39.2579C55.1441 39.3336 55.0549 39.3164 55.0583 39.2338C55.0823 38.8484 55.4736 36.6664 55.5525 36.1743C55.7035 35.2278 55.9128 34.2608 56.1633 33.335C56.1702 33.3143 56.2011 33.3247 56.2011 33.3453L56.2045 33.3419Z" fill="black"/>
<path d="M52.6287 48.9873C51.7124 49.4622 50.5319 50.1952 45.2127 49.1421C44.8799 49.0733 44.547 48.9941 44.2107 48.8943C39.2244 47.3904 33.2395 41.5087 32.9032 41.0957C32.9032 41.0957 40.8236 28.214 50.9574 24.1632C52.21 23.6642 54.2827 24.6278 55.4324 25.8289C55.8407 26.2591 56.733 29.4185 56.3898 31.979C56.0466 34.5361 53.5484 48.5192 52.6252 48.9873H52.6287Z" fill="#FFC727"/>
<path d="M51.9217 31.8621C51.9492 32.1374 51.9286 32.4093 51.8942 32.6777C51.8531 32.9462 51.8016 33.2112 51.6986 33.4693C51.6677 33.1939 51.6918 32.9221 51.7261 32.6536C51.7673 32.3852 51.8187 32.1202 51.9217 31.8621Z" fill="white"/>
<path d="M48.466 40.6346C48.4935 40.9099 48.4729 41.1818 48.4385 41.4502C48.3974 41.7187 48.3459 41.9837 48.2429 42.2418C48.2121 41.9665 48.2361 41.6946 48.2704 41.4261C48.3116 41.1577 48.3631 40.8927 48.466 40.6346Z" fill="white"/>
<path d="M42.5944 34.0061C42.6218 34.2814 42.6012 34.5533 42.5669 34.8218C42.5257 35.0902 42.4743 35.3552 42.3713 35.6133C42.3404 35.338 42.3644 35.0661 42.3988 34.7977C42.4399 34.5292 42.4914 34.2642 42.5944 34.0061Z" fill="white"/>
<path d="M54.1832 40.1906C54.2107 40.4659 54.1901 40.7378 54.1558 41.0063C54.1146 41.2747 54.0631 41.5397 53.9602 41.7978C53.9293 41.5225 53.9533 41.2506 53.9876 40.9822C54.0288 40.7137 54.0803 40.4487 54.1832 40.1906Z" fill="white"/>
<path d="M46.6437 32.8669C46.9183 32.8394 47.1894 32.8601 47.4571 32.8945C47.7247 32.9358 47.989 32.9874 48.2463 33.0906C47.9718 33.1216 47.7007 33.0975 47.433 33.0631C47.1654 33.0218 46.9011 32.9702 46.6437 32.8669Z" fill="white"/>
<path d="M39.9794 39.2064C40.2539 39.1788 40.525 39.1995 40.7927 39.2339C41.0604 39.2752 41.3246 39.3268 41.582 39.4301C41.3074 39.461 41.0363 39.4369 40.7687 39.4025C40.501 39.3612 40.2367 39.3096 39.9794 39.2064Z" fill="white"/>
<path d="M47.8174 46.0654C48.0919 46.0378 48.363 46.0585 48.6307 46.0929C48.8984 46.1342 49.1626 46.1858 49.42 46.2891C49.1455 46.32 48.8744 46.296 48.6067 46.2615C48.339 46.2202 48.0748 46.1686 47.8174 46.0654Z" fill="white"/>
<path d="M37.9238 43.5737C38.1983 43.5461 38.4694 43.5668 38.7371 43.6012C39.0048 43.6425 39.269 43.6941 39.5264 43.7974C39.2518 43.8283 38.9807 43.8043 38.7131 43.7698C38.4454 43.7285 38.1811 43.6769 37.9238 43.5737Z" fill="white"/>
<path d="M51.8702 25.6982C52.1448 25.6707 52.4159 25.6913 52.6836 25.7257C52.9512 25.767 53.2155 25.8186 53.4729 25.9219C53.1983 25.9529 52.9272 25.9288 52.6595 25.8944C52.3919 25.8531 52.1276 25.8014 51.8702 25.6982Z" fill="white"/>
<path d="M49.9313 27.8939C49.7563 28.1107 49.5504 28.2863 49.3376 28.4515C49.1214 28.6132 48.8984 28.7612 48.641 28.8713C48.816 28.6545 49.0219 28.479 49.2347 28.3138C49.4509 28.152 49.6774 28.0041 49.9313 27.8939Z" fill="white"/>
<path d="M39.3651 34.13C39.1901 34.3468 38.9842 34.5223 38.7714 34.6875C38.5552 34.8493 38.3321 34.9973 38.0748 35.1074C38.2498 34.8906 38.4557 34.7151 38.6685 34.5499C38.8847 34.3916 39.1111 34.2401 39.3651 34.13Z" fill="white"/>
<path d="M52.56 36.9487C52.385 37.1655 52.1791 37.341 51.9664 37.5062C51.7502 37.668 51.5271 37.8159 51.2697 37.9261C51.4447 37.7093 51.6506 37.5337 51.8634 37.3685C52.0796 37.2102 52.3061 37.0588 52.56 36.9487Z" fill="white"/>
<path d="M44.0151 42.345C43.84 42.5619 43.6341 42.7374 43.4214 42.9026C43.2052 43.0643 42.9821 43.2123 42.7247 43.3224C42.8997 43.1056 43.1057 42.9301 43.3184 42.7649C43.5346 42.6031 43.7611 42.4552 44.0151 42.345Z" fill="white"/>
<path d="M55.8338 29.5734C55.6588 29.7902 55.4529 29.9657 55.2402 30.1309C55.024 30.2927 54.8009 30.4406 54.5435 30.5508C54.7185 30.3339 54.9244 30.1584 55.1372 29.9932C55.3534 29.8349 55.5799 29.6835 55.8338 29.5734Z" fill="white"/>
<path d="M55.652 35.8302C55.4358 35.6546 55.2608 35.4481 55.096 35.2348C54.9347 35.018 54.7872 34.7943 54.6774 34.5361C54.8936 34.7117 55.0686 34.9181 55.2333 35.1315C55.3912 35.3483 55.5422 35.5755 55.652 35.8302Z" fill="white"/>
<path d="M36.6094 40.1356C36.3932 39.9601 36.2182 39.7536 36.0535 39.5402C35.8922 39.3234 35.7446 39.0997 35.6348 38.8416C35.851 39.0171 36.026 39.2236 36.1908 39.4369C36.3486 39.6538 36.4996 39.8809 36.6094 40.1356Z" fill="white"/>
<path d="M53.339 45.2635C53.1228 45.088 52.9478 44.8815 52.783 44.6681C52.6218 44.4513 52.4742 44.2276 52.3644 43.9695C52.5806 44.145 52.7556 44.3515 52.9203 44.5649C53.0782 44.7817 53.2292 45.0088 53.339 45.2635Z" fill="white"/>
<path d="M44.9554 30.654C44.7392 30.4785 44.5642 30.272 44.3994 30.0586C44.2382 29.8418 44.0906 29.6181 43.9808 29.36C44.197 29.5355 44.372 29.742 44.5367 29.9554C44.6946 30.1722 44.8456 30.3993 44.9554 30.654Z" fill="white"/>
<path d="M45.1029 48.182C44.8867 48.0064 44.7117 47.8 44.547 47.5866C44.3857 47.3698 44.2381 47.1461 44.1283 46.8879C44.3445 47.0635 44.5195 47.27 44.6842 47.4833C44.8421 47.7001 44.9931 47.9273 45.1029 48.182Z" fill="white"/>
<path d="M46.5271 37.84C46.3109 37.6645 46.1359 37.458 45.9712 37.2447C45.8099 37.0278 45.6623 36.8041 45.5525 36.546C45.7687 36.7215 45.9437 36.928 46.1084 37.1414C46.2663 37.3582 46.4173 37.5854 46.5271 37.84Z" fill="white"/>
<path d="M53.5724 29.2567C52.2821 29.0158 51.0638 26.3348 50.9094 24.5314C50.8991 24.4076 51.5133 23.4267 52.2031 22.1981C52.6184 21.4512 53.0645 20.6081 53.4145 19.8131C53.4866 19.6479 53.9087 20.1951 53.9087 20.1951L54.8284 20.9006L57.8654 23.2374C57.8654 23.2374 56.6369 24.6932 56.0329 26.087C55.9849 26.2041 55.9471 26.3176 55.9231 26.4312C55.9197 26.4484 55.9162 26.4656 55.9059 26.4897C55.7344 27.1574 54.8112 29.4942 53.5655 29.2602L53.5724 29.2567Z" fill="#EB9481"/>
<path d="M55.9299 26.4312C55.9299 26.4312 55.9231 26.4656 55.9128 26.4897C55.7481 26.4415 55.573 26.3761 55.3877 26.2901C52.0624 24.7276 53.5278 20.257 53.5278 20.257L54.8284 20.904L57.8654 23.2409C57.8654 23.2409 56.6369 24.6966 56.0329 26.0905C55.9849 26.2075 55.9471 26.3211 55.9231 26.4346L55.9299 26.4312Z" fill="black"/>
<path d="M61.3589 13.7146C61.3589 13.7146 62.8792 14.6817 62.8895 16.4025C62.8998 18.1232 62.2169 19.8062 62.059 19.8647C61.9012 19.9232 61.3624 13.7146 61.3624 13.7146H61.3589Z" fill="black"/>
<path d="M53.816 14.606C52.9032 16.4163 52.9478 22.1086 54.0906 23.5747C55.7446 25.7016 58.9293 26.4347 60.8545 24.3319C62.7179 22.2945 62.5291 14.8744 61.2079 13.4909C59.2656 11.4535 55.1681 11.9353 53.8195 14.606H53.816Z" fill="#EB9481"/>
<path d="M58.6616 19.1695C58.6616 19.1695 58.6307 19.1901 58.6341 19.2039C58.6547 19.5928 58.6135 20.0402 58.2669 20.1779C58.2566 20.1813 58.2566 20.202 58.2704 20.1985C58.6959 20.1297 58.7439 19.5343 58.6616 19.1695Z" fill="black"/>
<path d="M58.3081 18.7703C57.6836 18.7359 57.6664 19.992 58.2429 20.0196C58.8126 20.0505 58.8297 18.7978 58.3081 18.7703Z" fill="black"/>
<path d="M60.779 19.1558C60.779 19.1558 60.8098 19.173 60.8098 19.1902C60.7927 19.5791 60.8339 20.0265 61.1839 20.1607C61.1942 20.1641 61.1942 20.1848 61.1805 20.1813C60.7549 20.116 60.7 19.5206 60.7824 19.1558H60.779Z" fill="black"/>
<path d="M61.1324 18.7531C61.757 18.7152 61.7844 19.968 61.2079 20.0024C60.6382 20.0368 60.6108 18.7841 61.1324 18.7531Z" fill="black"/>
<path d="M57.9169 17.817C58.0885 17.7757 58.2395 17.7103 58.4042 17.6552C58.5895 17.5899 58.744 17.5589 58.8675 17.3937C58.9327 17.3042 58.9087 17.1459 58.8298 17.0736C58.6444 16.905 58.3974 16.9256 58.1709 16.9945C57.9238 17.0702 57.7522 17.1906 57.6081 17.404C57.4674 17.6105 57.6904 17.8721 57.9135 17.8204L57.9169 17.817Z" fill="black"/>
<path d="M61.5648 18.3745C61.3933 18.3436 61.2388 18.285 61.0707 18.2369C60.8819 18.1818 60.7241 18.1577 60.5937 17.9994C60.5216 17.9134 60.5388 17.755 60.6143 17.6759C60.7893 17.4969 61.0364 17.5073 61.2697 17.5623C61.5202 17.6243 61.6952 17.7344 61.8531 17.9409C62.0041 18.1405 61.7982 18.4124 61.5683 18.3711L61.5648 18.3745Z" fill="black"/>
<path d="M57.7797 22.8451C57.8723 22.938 57.9616 23.0654 58.1023 23.0792C58.2361 23.0929 58.394 23.0344 58.5209 22.9897C58.5347 22.9862 58.545 23 58.5381 23.0103C58.4351 23.1583 58.2224 23.2478 58.0439 23.2134C57.8689 23.179 57.7865 23.0275 57.7454 22.8658C57.7385 22.8417 57.7694 22.8348 57.7831 22.8486L57.7797 22.8451Z" fill="black"/>
<path d="M60.0274 21.1863C60.0274 21.1863 60.0446 21.7679 60.0137 22.0363C60.0137 22.0604 59.2519 21.9124 58.4351 22.0914C58.3116 22.1189 58.3253 22.0191 58.466 21.9537C58.7508 21.823 59.1077 21.6991 59.8078 21.7748C59.8353 21.7025 59.7666 20.88 59.8078 20.8834C59.9554 20.8869 60.2368 21.0176 60.4049 21.0899C60.4049 19.8785 60.2127 18.6774 60.2299 17.4728C60.2299 17.4315 60.2951 17.4246 60.302 17.4625C60.5937 18.7083 60.6211 20.1022 60.6554 21.3515C60.6623 21.5063 60.1304 21.2448 60.0274 21.1863Z" fill="black"/>
<path d="M59.2553 21.8298C59.2553 21.8298 58.9842 22.5113 58.5346 22.6937C58.0164 22.9036 57.838 22.4321 58.3665 22.0157C58.6444 21.7989 59.2553 21.8298 59.2553 21.8298Z" fill="black"/>
<path d="M58.7165 22.587C58.6582 22.6318 58.5998 22.6696 58.5346 22.6937C58.0576 22.8864 57.8689 22.5044 58.2532 22.119C58.514 22.1396 58.7989 22.236 58.7165 22.587Z" fill="#FF99BA"/>
<path d="M53.5552 19.4792C54.1832 19.672 54.9039 17.7791 55.1098 17.0529C55.2882 16.4128 55.4976 14.3788 55.5284 14.2377C55.5593 14.1001 58.2635 16.0377 59.8455 15.5731C61.4275 15.1085 62.4845 13.6871 62.5051 13.0229C62.5257 12.3586 60.5628 10.6723 58.8641 10.5862C57.1654 10.5002 54.8661 12.6649 54.8661 12.6649C54.8661 12.6649 55.6486 11.7288 55.6211 11.6531C55.5936 11.5774 54.4955 12.0179 54.293 12.7992C54.293 12.7992 54.5092 11.8149 54.4269 11.7977C54.3445 11.7805 53.49 12.6236 53.6822 13.2603C53.6822 13.2603 52.6938 14.1173 52.6046 15.0568C52.512 15.9964 52.8174 19.2487 53.5552 19.4758V19.4792Z" fill="black"/>
<path d="M60.9677 15.2427C60.4873 15.463 60.0034 15.7073 59.4749 15.7796C58.9018 15.8553 58.3047 15.7108 57.7693 15.5043C57.2237 15.2943 56.7261 14.988 56.2731 14.6163C55.8785 14.2894 55.525 13.8971 55.1029 13.6045C54.9965 13.5323 54.8764 13.6837 54.9382 13.7835C55.5799 14.7471 56.7158 15.5559 57.8071 15.9035C58.9567 16.2683 60.0411 16.0136 60.9711 15.2565C60.978 15.253 60.9711 15.2393 60.9643 15.2427H60.9677Z" fill="black"/>
<path d="M54.2107 19.3106C54.2107 19.3106 53.2361 17.3282 52.3576 17.6483C51.479 17.9684 52.0212 20.7113 52.9169 21.2103C53.8126 21.7128 54.293 20.8903 54.293 20.8903L54.2107 19.3106Z" fill="#EB9481"/>
<path d="M52.5326 18.4295C52.5326 18.4295 52.512 18.4467 52.5223 18.4536C53.1469 18.8287 53.4042 19.5033 53.5518 20.1813C53.3905 19.9025 53.1434 19.727 52.7762 19.9128C52.7556 19.9232 52.7694 19.9541 52.79 19.9507C53.0714 19.9335 53.2635 20.0126 53.4111 20.2604C53.5175 20.436 53.5758 20.6459 53.6445 20.8386C53.6651 20.904 53.7783 20.8868 53.768 20.8145C53.768 20.8077 53.768 20.8042 53.768 20.7973C53.9156 19.9473 53.4386 18.6532 52.5395 18.4261L52.5326 18.4295Z" fill="black"/>
<path d="M47.7762 28.1589C47.1036 32.0582 51.304 45.1947 54.0048 47.6485C58.0233 51.2966 65.453 53.6953 68.1469 54.4766C69.3205 54.8173 72.5669 46.5369 71.3795 45.9897C68.8366 44.823 60.9368 42.3519 60.1921 41.7152C59.4475 41.082 54.9073 34.5292 52.8895 30.7538C50.1819 25.6844 48.1125 26.1869 47.7728 28.1589H47.7762Z" fill="#EB9481"/>
<path d="M69.3788 45.2635C69.3788 45.2635 72.8826 46.1583 75.1475 46.8535C76.4104 47.239 78.5175 48.0994 79.317 48.8083C80.5113 49.8718 84.8284 55.0754 83.593 56.1526C82.4742 57.1266 79.3308 52.1811 79.3308 52.1811C79.3308 52.1811 82.9409 56.8891 81.3795 57.8149C79.8181 58.7407 77.0075 52.6801 77.0075 52.6801C77.0075 52.6801 80.6108 57.6015 78.8469 58.3002C77.5154 58.8267 74.6602 53.482 74.6602 53.482C74.6602 53.482 77.7282 57.7323 76.3829 58.3346C74.897 58.9988 71.9526 54.2322 71.9526 54.2322C68.2738 55.1856 66.1359 54.129 64.7014 53.1963C64.3548 52.9692 69.3822 45.2601 69.3822 45.2601L69.3788 45.2635Z" fill="#EB9481"/>
<path d="M78.1846 50.474C78.6273 51.0109 79.0803 51.5547 79.4784 52.1294C79.873 52.7042 80.2471 53.2961 80.5868 53.9053C81.4207 55.4024 81.709 56.4692 81.685 56.4038C81.0947 54.8896 79.7117 52.8074 79.3171 52.2327C78.9224 51.6579 78.5587 51.0625 78.164 50.4878C78.1537 50.474 78.1743 50.4603 78.1881 50.474H78.1846Z" fill="black"/>
<path d="M76.0879 51.8644C76.8497 52.4701 78.4454 54.7244 79.0631 56.2318C79.0906 56.2937 79.0563 56.2903 79.0185 56.2318C78.5347 55.4849 76.5889 52.594 76.0707 51.8747C76.0638 51.8644 76.0776 51.8541 76.0879 51.8644Z" fill="black"/>
<path d="M74.0734 52.7351C74.9554 53.6093 75.6932 54.8035 76.2766 56.1836C76.304 56.2455 76.2526 56.2352 76.2182 56.1767C75.5079 55.0169 74.9588 54.1014 74.0391 52.7627C74.0254 52.742 74.0563 52.711 74.0769 52.7317L74.0734 52.7351Z" fill="black"/>
<path d="M51.5957 28.448C48.4626 24.0049 46.5889 25.65 47.2169 30.4751C47.8037 34.987 49.3823 40.3627 49.3823 40.3627L57.289 36.5219C57.289 36.5219 53.5999 31.2942 51.5957 28.448Z" fill="#FFC727"/>
<path d="M53.5106 30.1929C53.6239 30.4475 53.6822 30.7125 53.7337 30.9775C53.7783 31.2425 53.8092 31.5144 53.7886 31.7898C53.6754 31.5351 53.6136 31.2735 53.5655 31.0051C53.5244 30.7401 53.4935 30.4682 53.5106 30.1929Z" fill="white"/>
<path d="M48.8333 32.8979C49.0872 32.7843 49.348 32.7258 49.6157 32.6742C49.8799 32.6295 50.151 32.5985 50.4256 32.6191C50.1716 32.7327 49.9108 32.7947 49.6431 32.8428C49.3789 32.8841 49.1078 32.9151 48.8333 32.8979Z" fill="white"/>
<path d="M49.0357 25.9838C48.9362 26.2419 48.7921 26.4725 48.6411 26.6962C48.4832 26.9165 48.315 27.1264 48.1057 27.3088C48.2052 27.0507 48.3494 26.8201 48.5004 26.5964C48.6582 26.3762 48.8264 26.1662 49.0357 25.9838Z" fill="white"/>
<path d="M55.707 34.9732C55.6075 35.2313 55.4633 35.4619 55.3123 35.6856C55.1545 35.9059 54.9863 36.1158 54.777 36.2982C54.8765 36.0401 55.0206 35.8095 55.1716 35.5858C55.3295 35.3655 55.4976 35.1556 55.707 34.9732Z" fill="white"/>
<path d="M50.2368 37.668C49.9794 37.5681 49.7495 37.4236 49.5264 37.2722C49.3068 37.1139 49.0975 36.9452 48.9156 36.7353C49.173 36.8351 49.4029 36.9796 49.626 37.1311C49.8456 37.2894 50.0549 37.458 50.2368 37.668Z" fill="white"/>
<path d="M52.6458 29.7833C53.0679 30.365 53.5037 30.9328 53.9361 31.5041C53.8263 31.215 53.7302 30.9259 53.6445 30.6265C53.641 30.6127 53.6616 30.6059 53.665 30.6196C53.7543 30.8468 53.8504 31.0739 53.9361 31.3011C53.9773 31.4112 54.0185 31.5213 54.0597 31.6314C54.07 31.6555 54.0768 31.6796 54.0871 31.7037C54.4269 32.1477 54.7632 32.5951 55.0858 33.0494C55.4736 33.5897 55.8476 34.1438 56.2251 34.6944C56.6129 35.2623 56.9835 35.93 57.3919 36.4841C57.4262 36.5322 56.6918 36.8282 56.6232 36.8695C56.5545 36.9074 56.5065 36.842 56.5786 36.8179C56.6472 36.7972 57.2306 36.4393 57.2374 36.4324C56.86 35.8783 56.4241 35.3655 56.0295 34.8218C55.6383 34.2815 55.2436 33.7446 54.8627 33.1939C54.0906 32.0788 53.3802 30.9225 52.6149 29.804C52.6046 29.7902 52.6287 29.7764 52.639 29.7902L52.6458 29.7833Z" fill="black"/>
<path d="M47.4125 33.6654C47.5326 33.8994 47.663 34.1334 47.7694 34.3744C47.814 34.4742 47.8552 34.574 47.8998 34.6738C47.7179 33.8134 47.5429 32.9564 47.3679 32.096C47.3679 32.0857 47.3816 32.0823 47.385 32.0926C47.7488 33.4864 48.1125 34.8768 48.4488 36.2775C48.7714 37.6129 49.1558 38.962 49.3411 40.3248C49.4509 40.287 50.0652 40.0323 50.0823 40.0736C50.0995 40.1149 49.2793 40.5038 49.2656 40.4694C48.8195 39.1409 48.5415 37.6266 48.2361 36.2603C48.1503 35.8749 48.0714 35.4894 47.989 35.1005C47.8998 34.8665 47.7934 34.6428 47.687 34.4191C47.5738 34.1782 47.4845 33.9304 47.3884 33.6826C47.3816 33.6688 47.4056 33.6585 47.4125 33.6723V33.6654Z" fill="black"/>
<path d="M49.5092 39.0343C50.6074 38.4114 55.1956 36.0298 56.2251 35.5824C56.2972 35.5514 56.3349 35.5893 56.2628 35.6306C53.0164 37.5716 50.6451 38.5215 49.5367 39.079C49.5092 39.0928 49.4818 39.0549 49.5092 39.0377V39.0343Z" fill="black"/>
<path d="M175.257 129.513H70.7001L85.8168 43.5255H190.374L175.257 129.513Z" fill="#FFC727"/>
<path d="M121.603 34.6187H87.3851L85.8168 43.5255H122.437L121.603 34.6187Z" fill="#FFC727"/>
<g opacity="0.1">
<path d="M175.257 129.513H70.7001L85.8168 43.5255H190.374L175.257 129.513Z" fill="black"/>
<path d="M121.603 34.6187H87.3851L85.8168 43.5255H122.437L121.603 34.6187Z" fill="black"/>
</g>
<path d="M83.6925 38.253C83.5587 37.754 83.5278 37.255 83.5209 36.7559C83.5244 36.2569 83.5553 35.7579 83.6925 35.2589C83.8298 35.7579 83.8607 36.2569 83.8641 36.7559C83.8572 37.255 83.8264 37.754 83.6925 38.253Z" fill="black"/>
<path d="M80.652 39.1341C80.2848 38.7693 80.0103 38.3528 79.7564 37.9226C79.5127 37.489 79.2896 37.0416 79.1592 36.5391C79.5264 36.9039 79.801 37.3204 80.0549 37.7506C80.2986 38.1842 80.5216 38.6316 80.652 39.1341Z" fill="black"/>
<path d="M78.4557 41.4227C77.9581 41.2919 77.512 41.0682 77.0762 40.8238C76.6472 40.5692 76.232 40.2938 75.8682 39.9256C76.3658 40.0564 76.8119 40.2801 77.2478 40.5244C77.6767 40.7791 78.092 41.0544 78.4557 41.4227Z" fill="black"/>
<path d="M77.6973 44.5029C77.1997 44.6371 76.7021 44.6681 76.2045 44.675C75.7069 44.6715 75.2093 44.6406 74.7117 44.5029C75.2093 44.3652 75.7069 44.3343 76.2045 44.3308C76.7021 44.3377 77.1997 44.3687 77.6973 44.5029Z" fill="black"/>
<path d="M78.5759 47.5521C78.2121 47.9204 77.7969 48.1957 77.3679 48.4504C76.9355 48.6947 76.4894 48.9184 75.9883 49.0492C76.3521 48.681 76.7673 48.4056 77.1963 48.151C77.6287 47.9066 78.0748 47.6829 78.5759 47.5521Z" fill="black"/>
<path d="M80.8579 49.7548C80.7275 50.2538 80.5044 50.7012 80.2608 51.1383C80.0068 51.5685 79.7323 51.9849 79.3651 52.3497C79.4955 51.8507 79.7186 51.4033 79.9622 50.9662C80.2162 50.536 80.4907 50.1196 80.8579 49.7548Z" fill="black"/>
<path d="M83.9328 50.5153C84.0666 51.0143 84.0975 51.5134 84.1043 52.0124C84.1009 52.5114 84.07 53.0105 83.9328 53.5095C83.7955 53.0105 83.7646 52.5114 83.7612 52.0124C83.768 51.5134 83.7989 51.0143 83.9328 50.5153Z" fill="black"/>
<path d="M86.9732 49.6343C87.3404 49.9991 87.6149 50.4155 87.8689 50.8457C88.1125 51.2793 88.3356 51.7267 88.466 52.2292C88.0988 51.8644 87.8243 51.448 87.5703 51.0178C87.3267 50.5842 87.1036 50.1367 86.9732 49.6343Z" fill="black"/>
<path d="M89.1661 47.3456C89.6637 47.4764 90.1098 47.7001 90.5456 47.9445C90.9746 48.1991 91.3898 48.4745 91.7536 48.8427C91.256 48.7119 90.8099 48.4882 90.374 48.2439C89.9451 47.9892 89.5298 47.7139 89.1661 47.3456Z" fill="black"/>
<path d="M89.9245 44.262C90.4221 44.1278 90.9197 44.0968 91.4173 44.0899C91.9149 44.0933 92.4125 44.1243 92.9101 44.262C92.4125 44.3996 91.9149 44.4306 91.4173 44.4341C90.9197 44.4272 90.4221 44.3962 89.9245 44.262Z" fill="black"/>
<path d="M89.046 41.2128C89.4097 40.8445 89.825 40.5692 90.2539 40.3145C90.6863 40.0702 91.1324 39.8465 91.6335 39.7157C91.2697 40.0839 90.8545 40.3593 90.4255 40.6139C89.9931 40.8583 89.547 41.082 89.046 41.2128Z" fill="black"/>
<path d="M86.7639 39.0136C86.8943 38.5146 87.1174 38.0671 87.361 37.6301C87.615 37.1999 87.8895 36.7834 88.2567 36.4186C88.1263 36.9177 87.9032 37.3651 87.6596 37.8021C87.4056 38.2323 87.1311 38.6488 86.7639 39.0136Z" fill="black"/>
<path d="M175.103 129.513H70.3191L55.4427 46.647H160.226L175.103 129.513Z" fill="#FFC727"/>
<path d="M85.3432 13.6251C84.8525 18.3366 80.6418 21.7576 75.9472 21.2654C74.0495 21.0658 72.3611 20.257 71.0536 19.0525L66.7742 19.6823L68.9156 15.9723C68.3974 14.7058 68.1778 13.2947 68.3288 11.8424C68.8195 7.1309 73.0302 3.70998 77.7248 4.20213C82.4228 4.69427 85.8339 8.91707 85.3432 13.6251Z" fill="white"/>
<path d="M85.3432 13.6251C85.1648 15.1911 84.5951 16.726 83.6171 17.9718C83.394 18.2988 83.1023 18.5707 82.8415 18.8667C82.5429 19.1248 82.2684 19.4104 81.9389 19.6341C81.3144 20.1159 80.6109 20.4945 79.8765 20.787C79.1455 21.0968 78.3597 21.2448 77.5738 21.3377C77.1792 21.3583 76.7811 21.3962 76.3864 21.3618C75.9884 21.3515 75.5937 21.3102 75.2025 21.2379C73.6376 20.9522 72.1551 20.2192 70.9712 19.142L71.0707 19.173L66.7948 19.8303L66.486 19.8785L66.6438 19.6031L68.7715 15.8863L68.7612 16.0342C67.7248 13.5873 67.9582 10.6688 69.2897 8.39052C69.952 7.24792 70.8785 6.26363 71.9698 5.53058C73.0611 4.79408 74.324 4.33291 75.6212 4.15739C76.9184 3.98531 78.2499 4.10232 79.4887 4.51531C80.7241 4.93174 81.86 5.63382 82.7866 6.5424C84.674 8.34234 85.6246 11.044 85.3466 13.6251H85.3432ZM85.3432 13.6251C85.604 11.0405 84.6363 8.3561 82.7454 6.58025C81.8085 5.69233 80.6726 5.01778 79.4475 4.62888C78.219 4.24343 76.9081 4.15051 75.6418 4.34323C74.3789 4.53596 73.1538 5.0109 72.1105 5.74395C71.0673 6.48045 70.1888 7.44065 69.5505 8.54195C68.9019 9.64325 68.5656 10.9063 68.4661 12.1728C68.3871 13.4427 68.593 14.7299 69.0666 15.9103L69.0975 15.9861L69.0563 16.0549L66.9012 19.758L66.7468 19.5309L71.0295 18.9286L71.0879 18.9217L71.1291 18.963C72.2615 20.0299 73.6925 20.7733 75.2231 21.0796C75.604 21.1553 75.9918 21.2069 76.383 21.2207C76.7742 21.262 77.162 21.2344 77.5532 21.2207C78.3288 21.1415 79.1078 21.0107 79.8387 20.7148C80.5697 20.4394 81.2801 20.0781 81.9012 19.5997C82.2306 19.3829 82.5052 19.1007 82.8037 18.8426C83.068 18.55 83.3562 18.2816 83.5827 17.9581C84.5642 16.7226 85.1442 15.1945 85.3329 13.6286L85.3432 13.6251Z" fill="black"/>
<path d="M72.6562 16.7294C72.6562 16.2166 73.0097 15.8484 73.4935 15.8484C74.0049 15.8484 74.3309 16.2166 74.3309 16.7294C74.3309 17.2422 74.0049 17.6104 73.4935 17.6104C72.9822 17.6104 72.6562 17.225 72.6562 16.7294ZM73.0097 14.6954L72.8106 7.86737H74.173L73.974 14.6954H73.0097Z" fill="#FFC727"/>
<path d="M75.9163 16.7294C75.9163 16.2166 76.2698 15.8484 76.7537 15.8484C77.265 15.8484 77.591 16.2166 77.591 16.7294C77.591 17.2422 77.265 17.6104 76.7537 17.6104C76.2423 17.6104 75.9163 17.225 75.9163 16.7294ZM76.2732 14.6954L76.0742 7.86737H77.4366L77.2375 14.6954H76.2732Z" fill="#FFC727"/>
<path d="M79.1799 16.7294C79.1799 16.2166 79.5333 15.8484 80.0172 15.8484C80.5285 15.8484 80.8545 16.2166 80.8545 16.7294C80.8545 17.2422 80.5285 17.6104 80.0172 17.6104C79.5059 17.6104 79.1799 17.225 79.1799 16.7294ZM79.5368 14.6954L79.3377 7.86737H80.7001L80.5011 14.6954H79.5368Z" fill="#FFC727"/>
</g>
<defs>
<clipPath id="clip0_1_1782">
<rect width="210" height="138" fill="white"/>
</clipPath>
</defs>
</svg>
