<svg width="25" height="24" viewBox="0 0 25 24" fill="none" xmlns="http://www.w3.org/2000/svg">
<path fill-rule="evenodd" clip-rule="evenodd" d="M7.2915 8C7.2915 6.89543 8.22424 6 9.37484 6H15.6248C16.7755 6 17.7082 6.89543 17.7082 8V10C17.7082 11.1046 16.7755 12 15.6248 12H9.37484C8.22424 12 7.2915 11.1046 7.2915 10V8ZM9.37484 8H15.6248V10H9.37484V8Z" fill="#999DA3"/>
<path fill-rule="evenodd" clip-rule="evenodd" d="M5.20833 1C4.05774 1 3.125 1.89543 3.125 3V21C3.125 22.1046 4.05774 23 5.20833 23H17.7083C20.0095 23 21.875 21.2091 21.875 19V5C21.875 2.79086 20.0095 1 17.7083 1H5.20833ZM5.20833 4C5.20833 3.44772 5.67471 3 6.25 3H17.7083C18.859 3 19.7917 3.89543 19.7917 5V19C19.7917 20.1046 18.859 21 17.7083 21H6.25C5.67471 21 5.20833 20.5523 5.20833 20V4Z" fill="#999DA3"/>
</svg>
