<svg width="1024" height="1024" viewBox="0 0 1024 1024" fill="none" xmlns="http://www.w3.org/2000/svg">
<rect width="1024" height="1024" fill="white"/>
<path d="M124.374 644.29V618.95H185.974V644.29H174.634V628.05H159.374V669H148.174V628.05H135.714V644.29H124.374ZM194.004 669V618.95H248.884V628.05H205.204V639.11H244.824V648.21H205.204V659.9H248.884V669H194.004ZM254.943 669.35V660.25L295.193 660.32C297.247 660.32 298.81 659.853 299.883 658.92C301.003 657.94 301.563 656.377 301.563 654.23C301.563 652.083 301.003 650.543 299.883 649.61C298.81 648.63 297.247 648.14 295.193 648.14H270.133C264.953 648.14 260.917 646.903 258.023 644.43C255.177 641.91 253.753 638.223 253.753 633.37C253.753 628.517 255.177 624.853 258.023 622.38C260.917 619.86 264.953 618.6 270.133 618.6H309.473V627.7L271.323 627.63C269.317 627.63 267.753 628.097 266.633 629.03C265.513 629.917 264.953 631.363 264.953 633.37C264.953 635.377 265.513 636.847 266.633 637.78C267.753 638.667 269.317 639.11 271.323 639.11H296.383C301.563 639.11 305.577 640.393 308.423 642.96C311.317 645.48 312.763 649.237 312.763 654.23C312.763 659.177 311.317 662.933 308.423 665.5C305.577 668.067 301.563 669.35 296.383 669.35H254.943ZM319.786 669V618.95H374.666V628.05H330.986V639.11H370.606V648.21H330.986V659.9H374.666V669H319.786ZM399.065 669.35C392.158 669.35 387.071 668.137 383.805 665.71C380.585 663.237 378.975 659.457 378.975 654.37C378.975 653.157 379.115 651.92 379.395 650.66H390.595C390.501 651.267 390.431 651.85 390.385 652.41C390.338 652.97 390.315 653.437 390.315 653.81C390.315 656.377 391.271 658.103 393.185 658.99C395.098 659.83 397.688 660.25 400.955 660.25H405.365C409.331 660.25 412.131 659.62 413.765 658.36C415.445 657.053 416.285 654.627 416.285 651.08V618.95H427.485V651.08C427.485 655.187 426.855 658.593 425.595 661.3C424.335 664.007 422.235 666.037 419.295 667.39C416.355 668.697 412.341 669.35 407.255 669.35H399.065ZM462.566 669.35C453.652 669.35 446.746 667.227 441.846 662.98C436.946 658.687 434.496 652.34 434.496 643.94C434.496 635.587 436.946 629.287 441.846 625.04C446.746 620.747 453.816 618.6 463.056 618.6H475.656C484.896 618.6 491.966 620.747 496.866 625.04C501.766 629.287 504.216 635.587 504.216 643.94C504.216 652.34 501.766 658.687 496.866 662.98C491.966 667.227 485.012 669.35 476.006 669.35H462.566ZM463.826 627.7C458.646 627.7 454.609 628.633 451.716 630.5C448.822 632.367 447.002 635.33 446.256 639.39H492.456C491.709 635.33 489.889 632.367 486.996 630.5C484.102 628.633 480.066 627.7 474.886 627.7H463.826ZM464.036 660.25H474.886C480.112 660.25 484.149 659.317 486.996 657.45C489.889 655.583 491.709 652.597 492.456 648.49H446.256C447.002 652.597 448.822 655.583 451.716 657.45C454.609 659.317 458.716 660.25 464.036 660.25ZM531.422 669.35C526.335 669.35 522.322 668.697 519.382 667.39C516.442 666.037 514.342 664.007 513.082 661.3C511.822 658.593 511.192 655.187 511.192 651.08V618.95H522.392V651.08C522.392 654.627 523.209 657.053 524.842 658.36C526.522 659.62 529.345 660.25 533.312 660.25H546.822C550.789 660.25 553.589 659.62 555.222 658.36C556.902 657.053 557.742 654.627 557.742 651.08V618.95H568.942V651.08C568.942 655.187 568.312 658.593 567.052 661.3C565.792 664.007 563.692 666.037 560.752 667.39C557.812 668.697 553.799 669.35 548.712 669.35H531.422ZM578.731 669V618.95H620.661C625.841 618.95 629.854 620.257 632.701 622.87C635.594 625.483 637.041 629.45 637.041 634.77C637.041 639.297 635.991 642.843 633.891 645.41C631.791 647.977 628.804 649.587 624.931 650.24L636.481 669H623.741L613.031 650.59H589.931V669H578.731ZM619.331 628.05H589.931V641.42L619.331 641.49C621.384 641.49 622.948 640.977 624.021 639.95C625.141 638.923 625.701 637.197 625.701 634.77C625.701 632.297 625.141 630.57 624.021 629.59C622.948 628.563 621.384 628.05 619.331 628.05ZM645.45 669V618.95H656.79L692.21 654.93V618.95H703.41V669H692.07L656.65 632.95V669H645.45ZM713.194 669V618.95H768.074V628.05H724.394V639.11H764.014V648.21H724.394V659.9H768.074V669H713.194ZM775.743 669V618.95H817.673C822.853 618.95 826.866 620.257 829.713 622.87C832.606 625.483 834.053 629.45 834.053 634.77C834.053 639.297 833.003 642.843 830.903 645.41C828.803 647.977 825.816 649.587 821.943 650.24L833.493 669H820.753L810.043 650.59H786.943V669H775.743ZM816.343 628.05H786.943V641.42L816.343 641.49C818.396 641.49 819.959 640.977 821.033 639.95C822.153 638.923 822.713 637.197 822.713 634.77C822.713 632.297 822.153 630.57 821.033 629.59C819.959 628.563 818.396 628.05 816.343 628.05ZM838.262 669L857.022 644.01L838.262 618.95H851.912L866.962 639.46H873.402L888.452 618.95H902.102L883.342 644.01L902.102 669H888.382L873.402 648.56H866.962L851.982 669H838.262Z" fill="#47506B"/>
<path fill-rule="evenodd" clip-rule="evenodd" d="M447.016 385.906C452.934 385.906 458.352 383.76 462.531 380.202L498.569 413.744C489.97 422.404 484.656 434.331 484.656 447.5C484.656 450.139 484.87 452.727 485.28 455.25L429.834 455.894C428.879 443.54 418.552 433.812 405.953 433.812C392.724 433.812 382 444.537 382 457.766C382 470.995 392.724 481.719 405.953 481.719C418.121 481.719 428.17 472.646 429.704 460.896L486.368 460.238C490.09 473.767 499.597 484.9 512.061 490.81L498.615 511.53C495.435 509.97 491.859 509.094 488.078 509.094C474.849 509.094 464.125 519.818 464.125 533.047C464.125 546.276 474.849 557 488.078 557C501.307 557 512.031 546.276 512.031 533.047C512.031 525.391 508.44 518.575 502.85 514.19L516.769 492.742C521.714 494.468 527.029 495.406 532.562 495.406C544.831 495.406 556.022 490.794 564.498 483.21L584.647 505.839C582.011 509.686 580.469 514.343 580.469 519.359C580.469 532.588 591.193 543.312 604.422 543.312C617.651 543.312 628.375 532.588 628.375 519.359C628.375 506.13 617.651 495.406 604.422 495.406C598.027 495.406 592.217 497.913 587.921 501.997L568.051 479.681C575.767 471.177 580.469 459.888 580.469 447.5C580.469 439.961 578.727 432.829 575.625 426.484L601.261 406.354C605.588 410.637 611.54 413.281 618.109 413.281C631.338 413.281 642.062 402.557 642.062 389.328C642.062 376.099 631.338 365.375 618.109 365.375C604.88 365.375 594.156 376.099 594.156 389.328C594.156 394.188 595.603 398.709 598.09 402.486L573.163 422.06C566.318 411.159 555.204 403.21 542.166 400.557L546.594 383.228C557.211 385.496 567.857 379.066 570.699 368.459C573.634 357.507 567.134 346.249 556.182 343.314C545.229 340.379 533.971 346.879 531.036 357.832C528.45 367.484 533.191 377.374 541.851 381.595L537.195 399.815C535.67 399.669 534.125 399.594 532.562 399.594C521.078 399.594 510.538 403.635 502.286 410.372L465.983 376.584C469.109 372.537 470.969 367.462 470.969 361.953C470.969 348.724 460.245 338 447.016 338C433.787 338 423.062 348.724 423.062 361.953C423.062 375.182 433.787 385.906 447.016 385.906Z" fill="#FB5821"/>
</svg>
