<svg width="70" height="59" viewBox="0 0 70 59" fill="none" xmlns="http://www.w3.org/2000/svg">
<path fill-rule="evenodd" clip-rule="evenodd" d="M19.3303 12.9974C20.868 12.9974 22.2809 12.4634 23.3938 11.5706L31.7351 20.3465C29.2797 22.7109 27.752 26.0321 27.752 29.71C27.752 29.8287 27.7536 29.9471 27.7568 30.065L12.8774 30.2378C12.2949 27.2464 9.66051 24.9884 6.49871 24.9884C2.90957 24.9884 0 27.898 0 31.4871C0 35.0762 2.90957 37.9858 6.49871 37.9858C9.83422 37.9858 12.5828 35.4729 12.9546 32.237L27.9644 32.0627C28.5973 35.5243 30.6015 38.507 33.3933 40.4269L30.583 45.7354C29.8206 45.4214 28.9854 45.2482 28.1098 45.2482C24.5206 45.2482 21.611 48.1578 21.611 51.7469C21.611 55.3361 24.5206 58.2457 28.1098 58.2457C31.6989 58.2457 34.6085 55.3361 34.6085 51.7469C34.6085 49.7523 33.7098 47.9676 32.2954 46.7754L35.1249 41.4307C36.8269 42.249 38.7346 42.7074 40.7494 42.7074C44.0358 42.7074 47.0374 41.4877 49.326 39.4762L54.5247 45.8572C53.3814 47.0285 52.6769 48.6301 52.6769 50.3962C52.6769 53.9853 55.5865 56.8949 59.1757 56.8949C62.7648 56.8949 65.6744 53.9853 65.6744 50.3962C65.6744 46.807 62.7648 43.8975 59.1757 43.8975C58.0735 43.8975 57.0353 44.1719 56.1259 44.6561L50.7314 38.0348C52.614 35.7798 53.7468 32.8772 53.7468 29.71C53.7468 27.6644 53.2742 25.7291 52.4323 24.0074L59.4205 18.5198C60.4904 19.2945 61.8058 19.7513 63.2278 19.7513C66.8169 19.7513 69.7265 16.8417 69.7265 13.2526C69.7265 9.66342 66.8169 6.75385 63.2278 6.75385C59.6386 6.75385 56.729 9.66342 56.729 13.2526C56.729 14.6925 57.1973 16.023 57.9899 17.1002L51.4075 22.2691C49.5777 19.653 46.8092 17.7418 43.5907 17.0241L44.7833 11.7177C47.1884 11.6574 49.3677 10.0313 50.022 7.58939C50.8182 4.61781 49.0547 1.5634 46.0832 0.767168C43.1116 -0.029064 40.0572 1.7344 39.2609 4.70598C38.5008 7.54292 40.0736 10.4554 42.8034 11.4063L41.6046 16.7403C41.3219 16.7219 41.0367 16.7126 40.7494 16.7126C37.9702 16.7126 35.3946 17.5849 33.2817 19.0707L24.7467 10.091C25.4306 9.06195 25.829 7.82686 25.829 6.49871C25.829 2.90957 22.9194 0 19.3303 0C15.7411 0 12.8316 2.90957 12.8316 6.49871C12.8316 10.0878 15.7411 12.9974 19.3303 12.9974Z" fill="#FB5821"/>
</svg>
