<svg width="30" height="29" viewBox="0 0 30 29" fill="none" xmlns="http://www.w3.org/2000/svg">
<circle cx="15.6391" cy="15.3256" r="2.25531" stroke="#FB4E14" stroke-width="1.69149"/>
<path d="M8.10393 8.4759C7.07422 9.59511 6.32982 10.9264 5.90054 12.355L7.70317 13.4112C9.19564 14.2856 9.18875 16.4454 7.69074 17.3102L5.93669 18.3229C6.15892 19.0322 6.46219 19.7287 6.84976 20.4C7.23733 21.0713 7.68889 21.6822 8.192 22.2293L9.94608 21.2166C11.4441 20.3517 13.318 21.4256 13.329 23.1553L13.3423 25.2446C14.7942 25.5872 16.3193 25.6081 17.8034 25.276L17.7907 23.2709C17.7795 21.5219 19.677 20.4264 21.186 21.3105L22.9161 22.3242C23.9458 21.205 24.6902 19.8737 25.1195 18.4451L23.3168 17.3889C21.8243 16.5145 21.8312 14.3547 23.3292 13.4898L25.0833 12.4771C24.8611 11.7678 24.5578 11.0713 24.1703 10.4C23.7827 9.72874 23.3311 9.11783 22.828 8.57075L21.0739 9.58345C19.5759 10.4483 17.702 9.3744 17.691 7.64468L17.6777 5.55548C16.2258 5.21292 14.7007 5.19196 13.2166 5.52411L13.2294 7.52922C13.2405 9.27813 11.343 10.3736 9.834 9.48953L8.10393 8.4759Z" stroke="#FB4E14" stroke-width="2" stroke-linejoin="round"/>
</svg>
