<svg width="423" height="301" viewBox="0 0 423 301" fill="none" xmlns="http://www.w3.org/2000/svg">
<path d="M317.403 136.566L303.863 247.047L309.786 250.436L316.541 247.047L322.465 250.436L329.215 247.047L335.139 250.436L341.892 247.047L347.815 250.436L354.57 247.047L360.497 250.436L367.252 247.047L373.182 250.436L379.941 247.047L393.469 136.665C393.634 135.315 392.676 134.221 391.329 134.221H320.031C318.738 134.221 317.561 135.271 317.402 136.566H317.403Z" fill="#D9E7FF"/>
<path d="M367.804 156.786H338.126C337.098 156.786 336.367 155.951 336.493 154.922C336.619 153.892 337.555 153.058 338.583 153.058H368.261C369.288 153.058 370.019 153.892 369.893 154.922C369.767 155.951 368.831 156.786 367.804 156.786Z" fill="#BFCAF3"/>
<path d="M379.288 167H324.139C323.112 167 322.381 166.165 322.507 165.136C322.633 164.106 323.569 163.271 324.596 163.271H379.745C380.772 163.271 381.503 164.106 381.377 165.136C381.251 166.165 380.315 167 379.288 167Z" fill="#BFCAF3"/>
<path d="M378.036 177.213H322.887C321.86 177.213 321.129 176.379 321.255 175.349C321.381 174.32 322.317 173.485 323.344 173.485H378.493C379.52 173.485 380.251 174.32 380.125 175.349C379.999 176.379 379.063 177.213 378.036 177.213Z" fill="#BFCAF3"/>
<path d="M376.784 187.426H321.635C320.608 187.426 319.877 186.592 320.003 185.562C320.129 184.533 321.065 183.698 322.092 183.698H377.241C378.268 183.698 378.999 184.533 378.873 185.562C378.747 186.592 377.811 187.426 376.784 187.426Z" fill="#BFCAF3"/>
<path d="M375.533 197.64H320.384C319.357 197.64 318.626 196.806 318.752 195.776C318.878 194.747 319.814 193.912 320.841 193.912H375.99C377.017 193.912 377.748 194.747 377.622 195.776C377.496 196.806 376.56 197.64 375.533 197.64Z" fill="#BFCAF3"/>
<path d="M374.28 207.854H319.132C318.104 207.854 317.373 207.02 317.5 205.99C317.626 204.96 318.561 204.126 319.589 204.126H374.737C375.765 204.126 376.496 204.96 376.37 205.99C376.243 207.02 375.308 207.854 374.28 207.854Z" fill="#BFCAF3"/>
<path d="M373.029 218.068H317.881C316.853 218.068 316.122 217.233 316.249 216.204C316.375 215.174 317.31 214.34 318.338 214.34H373.486C374.514 214.34 375.245 215.174 375.119 216.204C374.992 217.233 374.057 218.068 373.029 218.068Z" fill="#BFCAF3"/>
<path d="M359.129 228.281H316.628C315.6 228.281 314.869 227.446 314.996 226.417C315.122 225.387 316.057 224.553 317.085 224.553H359.586C360.613 224.553 361.344 225.387 361.218 226.417C361.092 227.446 360.156 228.281 359.129 228.281Z" fill="#BFCAF3"/>
<path d="M107.052 46.8496C119.126 46.8496 127.731 56.5121 126.27 68.4314L125.184 77.2982L121.452 107.747L101.293 272.237H264.21L288.831 71.3331C290.488 57.8116 280.727 46.8505 267.029 46.8505H107.052V46.8496Z" fill="#F9ECE1"/>
<path d="M107.052 46.8496C114.241 46.8496 118.798 57.2246 117.23 70.0236L116.063 79.5443L112.607 107.747H121.453L125.185 77.2982L126.271 68.4314C127.732 56.5121 119.127 46.8496 107.053 46.8496H107.052Z" fill="#A6B8E0"/>
<path d="M107.052 46.8495C94.9763 46.8495 84.0043 56.512 82.5431 68.4313L77.7251 107.746H112.607L116.063 79.5433L117.229 70.0226C118.798 57.2236 114.241 46.8486 107.052 46.8486V46.8495Z" fill="#BFCAF3"/>
<path d="M195.563 89.6725H123.539L125.962 69.9023H197.986C203.435 69.9023 207.31 74.3285 206.641 79.7879C205.972 85.2472 201.012 89.6734 195.563 89.6734V89.6725Z" fill="#C7D3F9"/>
<path d="M188.158 109.108H144.377C143.626 109.108 143.018 108.497 143.018 107.746C143.018 106.994 143.626 106.384 144.377 106.384H188.158C188.909 106.384 189.518 106.994 189.518 107.746C189.518 108.497 188.909 109.108 188.158 109.108Z" fill="#C7D4F2"/>
<path d="M259.934 121.404H142.871C142.12 121.404 141.512 120.794 141.512 120.043C141.512 119.291 142.12 118.681 142.871 118.681H259.934C260.685 118.681 261.294 119.291 261.294 120.043C261.294 120.794 260.685 121.404 259.934 121.404Z" fill="#C7D4F2"/>
<path d="M258.427 133.702H141.365C140.614 133.702 140.005 133.092 140.005 132.34C140.005 131.589 140.614 130.979 141.365 130.979H258.427C259.178 130.979 259.786 131.589 259.786 132.34C259.786 133.092 259.178 133.702 258.427 133.702Z" fill="#C7D4F2"/>
<path d="M256.92 145.999H139.856C139.106 145.999 138.497 145.389 138.497 144.637C138.497 143.886 139.106 143.275 139.856 143.275H256.92C257.671 143.275 258.279 143.886 258.279 144.637C258.279 145.389 257.671 145.999 256.92 145.999Z" fill="#C7D4F2"/>
<path d="M255.413 158.295H138.35C137.599 158.295 136.991 157.685 136.991 156.933C136.991 156.182 137.599 155.571 138.35 155.571H255.413C256.164 155.571 256.773 156.182 256.773 156.933C256.773 157.685 256.164 158.295 255.413 158.295Z" fill="#C7D4F2"/>
<path d="M253.906 170.592H136.843C136.092 170.592 135.484 169.981 135.484 169.23C135.484 168.479 136.092 167.868 136.843 167.868H253.906C254.657 167.868 255.265 168.479 255.265 169.23C255.265 169.981 254.657 170.592 253.906 170.592Z" fill="#C7D4F2"/>
<path d="M252.399 182.889H135.337C134.586 182.889 133.978 182.278 133.978 181.527C133.978 180.776 134.586 180.165 135.337 180.165H252.399C253.15 180.165 253.759 180.776 253.759 181.527C253.759 182.278 253.15 182.889 252.399 182.889Z" fill="#C7D4F2"/>
<path d="M250.892 195.186H133.829C133.078 195.186 132.47 194.575 132.47 193.824C132.47 193.072 133.078 192.462 133.829 192.462H250.892C251.643 192.462 252.252 193.072 252.252 193.824C252.252 194.575 251.643 195.186 250.892 195.186Z" fill="#C7D4F2"/>
<path d="M249.385 207.483H132.323C131.572 207.483 130.963 206.872 130.963 206.121C130.963 205.369 131.572 204.759 132.323 204.759H249.385C250.136 204.759 250.744 205.369 250.744 206.121C250.744 206.872 250.136 207.483 249.385 207.483Z" fill="#C7D4F2"/>
<path d="M197.215 219.779H130.815C130.065 219.779 129.456 219.169 129.456 218.418C129.456 217.666 130.065 217.056 130.815 217.056H197.215C197.966 217.056 198.574 217.666 198.574 218.418C198.574 219.169 197.966 219.779 197.215 219.779Z" fill="#C7D4F2"/>
<path d="M245.067 242.715H198.174C197.423 242.715 196.815 242.104 196.815 241.353C196.815 240.602 197.423 239.991 198.174 239.991H245.067C245.818 239.991 246.427 240.602 246.427 241.353C246.427 242.104 245.818 242.715 245.067 242.715Z" fill="#C7D4F2"/>
<path d="M243.933 251.973H197.039C196.288 251.973 195.68 251.362 195.68 250.611C195.68 249.86 196.288 249.249 197.039 249.249H243.933C244.684 249.249 245.292 249.86 245.292 250.611C245.292 251.362 244.684 251.973 243.933 251.973Z" fill="#C7D4F2"/>
<path d="M42.2394 164.553L33.21 238.225H143.067L152.096 164.553H42.2394Z" fill="#BFCAF3"/>
<path d="M153.01 157.1C153.366 154.194 151.286 151.839 148.363 151.839H49.0884C46.166 151.839 43.5087 154.194 43.1526 157.1L42.2395 164.553H152.097L153.01 157.1Z" fill="#BCA16C"/>
<path d="M47.0575 197.141L56.3654 188.486L61.992 190.804L78.495 173.339L82.4144 178.945L86.9124 177.667L97.3264 186.322L107.468 186.168L117.041 197.141L122.503 191.886L127.176 192.814L141.147 181.994L135.506 228.025H43.2725L47.0575 197.141Z" fill="#F9ECE1"/>
<path d="M131.45 215.808L127.724 212.227H120.627L112.956 203.825L102.997 205.026L90.6298 196.429L75.6917 205.026L65.8906 203.182L55.2035 209.824L51.3996 209.391L45.1654 212.578L43.2725 228.025H135.506L137.442 212.227L131.45 215.808Z" fill="#FFBE52"/>
<g opacity="0.53">
<path d="M55.4024 199.457L51.9275 227.977L52.8267 228.087L56.3017 199.567L55.4024 199.457Z" fill="#F9ECE1"/>
<path d="M65.8892 199.458L62.4143 227.978L63.3136 228.088L66.7885 199.568L65.8892 199.458Z" fill="#F9ECE1"/>
<path d="M76.3758 199.458L72.9009 227.978L73.8001 228.088L77.275 199.568L76.3758 199.458Z" fill="#F9ECE1"/>
<path d="M87.4575 194.59L83.3894 227.978L84.2886 228.088L88.3568 194.7L87.4575 194.59Z" fill="#F9ECE1"/>
<path d="M97.3494 199.457L93.8745 227.977L94.7738 228.087L98.2487 199.567L97.3494 199.457Z" fill="#F9ECE1"/>
<path d="M107.836 199.458L104.361 227.978L105.261 228.088L108.735 199.568L107.836 199.458Z" fill="#F9ECE1"/>
<path d="M118.323 199.458L114.848 227.978L115.747 228.088L119.222 199.568L118.323 199.458Z" fill="#F9ECE1"/>
<path d="M128.809 199.458L125.334 227.978L126.234 228.088L129.709 199.568L128.809 199.458Z" fill="#F9ECE1"/>
</g>
<path d="M53.663 158.195C53.5386 159.21 52.6173 160.031 51.6051 160.031C50.5928 160.031 49.8735 159.21 49.9969 158.195C50.1213 157.181 51.0426 156.359 52.0549 156.359C53.0671 156.359 53.7865 157.181 53.663 158.195Z" fill="#FFBE52"/>
<path d="M60.3729 158.195C60.2485 159.21 59.3273 160.031 58.315 160.031C57.3027 160.031 56.5834 159.21 56.7069 158.195C56.8313 157.181 57.7525 156.359 58.7648 156.359C59.7771 156.359 60.4964 157.181 60.3729 158.195Z" fill="#C64720"/>
<path d="M346.363 102.142H251.392C248.338 102.142 245.559 104.622 245.184 107.681L230.492 227.565C230.343 228.784 230.818 229.856 231.662 230.51C249.326 223.485 269.543 212.439 289.048 194.945C324.053 163.549 339.505 126.887 346.363 102.143V102.142Z" fill="#6C6F9D"/>
<path d="M357.333 102.142H346.363C339.506 126.886 324.053 163.548 289.048 194.944C269.543 212.437 249.325 223.484 231.662 230.509C232.198 230.923 232.879 231.173 233.652 231.173H343.447C345.436 231.173 347.246 229.557 347.491 227.564L362.183 107.68C362.558 104.621 360.386 102.141 357.333 102.141V102.142Z" fill="#596199"/>
<path d="M351.994 116.971H253.098C252.765 116.971 252.462 117.241 252.421 117.574L252.183 119.523H349.937L347.965 135.606H349.71C350.042 135.606 350.345 135.336 350.386 135.002L352.521 117.574C352.562 117.241 352.326 116.971 351.993 116.971H351.994Z" fill="#8597FF"/>
<path d="M349.937 119.522H319.043L301.02 135.605H347.966L349.937 119.522Z" fill="#BECAF2"/>
<path d="M252.182 119.522L250.285 135.002C250.245 135.335 250.481 135.605 250.814 135.605H270.974L288.997 119.522H252.182Z" fill="#BECAF2"/>
<path d="M288.998 119.522L270.975 135.605H301.019L319.043 119.522H288.998Z" fill="#CCD9FF"/>
<path d="M352.455 112.053H329.47C329.059 112.053 328.767 111.719 328.817 111.307L329.183 108.32C329.234 107.908 329.608 107.574 330.019 107.574H353.004C353.415 107.574 353.707 107.908 353.656 108.32L353.29 111.307C353.24 111.719 352.866 112.053 352.455 112.053Z" fill="#8597FF"/>
<path d="M266.076 158.992H249.966C248.519 158.992 247.489 157.817 247.667 156.366L248.555 149.12C248.732 147.67 250.05 146.494 251.498 146.494H267.608C269.056 146.494 270.085 147.67 269.907 149.12L269.019 156.366C268.842 157.817 267.524 158.992 266.076 158.992Z" fill="#8597FF"/>
<path d="M292.326 158.992H276.216C274.769 158.992 273.739 157.817 273.917 156.366L274.805 149.12C274.982 147.67 276.3 146.494 277.748 146.494H293.858C295.306 146.494 296.335 147.67 296.157 149.12L295.269 156.366C295.092 157.817 293.774 158.992 292.326 158.992Z" fill="#8597FF"/>
<path d="M318.575 158.992H302.465C301.018 158.992 299.988 157.817 300.166 156.366L301.054 149.12C301.231 147.67 302.549 146.494 303.997 146.494H320.107C321.555 146.494 322.584 147.67 322.406 149.12L321.519 156.366C321.341 157.817 320.023 158.992 318.575 158.992Z" fill="#8597FF"/>
<path d="M344.825 158.992H328.715C327.268 158.992 326.238 157.817 326.416 156.366L327.304 149.12C327.481 147.67 328.799 146.494 330.247 146.494H346.357C347.805 146.494 348.834 147.67 348.656 149.12L347.768 156.366C347.591 157.817 346.273 158.992 344.825 158.992Z" fill="#C64720"/>
<path d="M263.723 178.192H247.613C246.166 178.192 245.136 177.016 245.314 175.565L246.202 168.32C246.379 166.869 247.697 165.693 249.145 165.693H265.255C266.703 165.693 267.732 166.869 267.554 168.32L266.666 175.565C266.489 177.016 265.171 178.192 263.723 178.192Z" fill="#BECAF2"/>
<path d="M289.973 178.192H273.863C272.416 178.192 271.386 177.016 271.564 175.565L272.452 168.32C272.629 166.869 273.947 165.693 275.395 165.693H291.505C292.953 165.693 293.982 166.869 293.804 168.32L292.916 175.565C292.739 177.016 291.421 178.192 289.973 178.192Z" fill="#BECAF2"/>
<path d="M342.472 178.192H326.362C324.915 178.192 323.885 177.016 324.063 175.565L324.951 168.32C325.128 166.869 326.446 165.693 327.894 165.693H344.004C345.452 165.693 346.481 166.869 346.303 168.32L345.415 175.565C345.238 177.016 343.92 178.192 342.472 178.192Z" fill="#6B86DB"/>
<path d="M261.371 197.391H245.261C243.813 197.391 242.784 196.215 242.961 194.765L243.849 187.519C244.027 186.068 245.345 184.893 246.792 184.893H262.902C264.35 184.893 265.379 186.068 265.202 187.519L264.314 194.765C264.136 196.215 262.818 197.391 261.371 197.391Z" fill="#BECAF2"/>
<path d="M259.017 216.59H242.907C241.46 216.59 240.43 215.414 240.608 213.964L241.496 206.718C241.673 205.268 242.991 204.092 244.439 204.092H260.549C261.996 204.092 263.026 205.268 262.848 206.718L261.96 213.964C261.783 215.414 260.465 216.59 259.017 216.59Z" fill="#BECAF2"/>
<path d="M311.517 216.59H295.407C293.96 216.59 292.93 215.414 293.108 213.964L293.996 206.718C294.173 205.268 295.491 204.092 296.939 204.092H313.049C314.496 204.092 315.526 205.268 315.348 206.718L314.46 213.964C314.283 215.414 312.965 216.59 311.517 216.59Z" fill="#A4B5FF"/>
<path d="M325.541 184.893C324.094 184.893 322.776 186.068 322.598 187.519L320.567 204.092L320.299 206.286L319.358 213.963C319.18 215.413 320.21 216.589 321.657 216.589H337.767C339.215 216.589 340.533 215.413 340.71 213.963L341.651 206.286L341.92 204.092L343.951 187.519C344.129 186.068 343.099 184.893 341.651 184.893H325.541Z" fill="#F2A41C"/>
<path d="M301.644 165.693C300.196 165.693 298.878 166.869 298.701 168.32L297.813 175.565C297.635 177.016 298.665 178.192 300.112 178.192H305.568C309.182 174.05 312.515 169.873 315.585 165.693H301.645H301.644Z" fill="#BECAF2"/>
<path d="M290.731 193.401L291.452 187.52C291.629 186.069 290.6 184.894 289.152 184.894H273.042C271.595 184.894 270.277 186.069 270.099 187.52L269.211 194.766C269.034 196.216 270.063 197.392 271.511 197.392H286.251C287.185 196.586 288.118 195.78 289.049 194.944C289.619 194.432 290.171 193.916 290.731 193.401Z" fill="#BECAF2"/>
<path d="M270.688 204.092C269.241 204.092 267.923 205.268 267.745 206.718L267.104 211.944C270.745 209.523 274.403 206.912 278.058 204.092H270.688Z" fill="#BECAF2"/>
<path d="M319.166 175.565L320.053 168.32C320.231 166.869 319.202 165.693 317.754 165.693H315.584C312.514 169.873 309.182 174.05 305.567 178.192H316.222C317.669 178.192 318.987 177.016 319.165 175.565H319.166Z" fill="#A4B5FF"/>
<path d="M290.564 194.765L290.73 193.4C290.17 193.915 289.619 194.432 289.048 194.944C288.117 195.778 287.183 196.586 286.25 197.391H287.621C289.068 197.391 290.386 196.215 290.564 194.765Z" fill="#A4B5FF"/>
<path d="M315.401 184.893H299.291C297.844 184.893 296.526 186.068 296.348 187.519L296.276 188.106L295.46 194.765C295.283 196.215 296.312 197.391 297.76 197.391H313.87C315.317 197.391 316.635 196.215 316.813 194.765L317.701 187.519C317.878 186.068 316.849 184.893 315.401 184.893Z" fill="#A4B5FF"/>
<path d="M269.157 216.59H285.267C286.715 216.59 288.033 215.414 288.21 213.964L289.098 206.718C289.276 205.268 288.246 204.092 286.799 204.092H278.058C274.403 206.912 270.746 209.523 267.105 211.944L266.857 213.964C266.679 215.414 267.709 216.59 269.156 216.59H269.157Z" fill="#A4B5FF"/>
<path d="M254.899 82.7864C251.272 80.1439 246.867 78.5661 242.099 78.5038C241.856 78.5002 241.615 78.5083 241.373 78.5138C229.115 78.7504 219.17 89.0396 219.014 101.841C218.977 104.886 219.503 107.8 220.482 110.486C223.682 119.271 231.785 125.582 241.374 125.771C241.424 125.772 241.473 125.777 241.522 125.777C254.112 125.942 264.448 115.494 264.607 102.439C264.706 94.3283 260.852 87.1214 254.899 82.7855V82.7864Z" fill="#FFC969"/>
<path d="M230.666 116.393C227.438 112.962 225.473 108.254 225.536 103.083C225.663 92.7432 233.849 84.467 243.822 84.598C246.929 84.6386 249.841 85.493 252.376 86.9606C249.466 84.7777 245.903 83.47 242.039 83.4185C232.066 83.2876 223.88 91.5637 223.753 101.904C223.69 107.075 225.655 111.783 228.883 115.214C230.099 116.507 231.497 117.616 233.032 118.502C232.186 117.869 231.393 117.165 230.667 116.393H230.666ZM225.536 104.119C225.536 104.119 225.536 104.113 225.536 104.109C225.536 104.113 225.536 104.115 225.536 104.119Z" fill="#EF941D"/>
<path d="M256.518 91.2822C255.857 90.3213 255.107 89.4308 254.287 88.6162C255.785 91.5351 256.622 94.8721 256.578 98.4114C256.441 109.648 247.545 118.642 236.707 118.5C236.612 118.499 236.519 118.492 236.424 118.49C235.004 118.45 233.623 118.254 232.295 117.919C232.536 118.118 232.781 118.314 233.032 118.502C235.495 119.925 238.314 120.769 241.321 120.852C241.409 120.855 241.494 120.861 241.582 120.862C251.554 120.993 259.741 112.717 259.867 102.377C259.917 98.2434 258.669 94.4079 256.519 91.2813L256.518 91.2822Z" fill="#EF941D"/>
<path d="M236.707 118.5C247.545 118.643 256.441 109.649 256.578 98.4114C256.622 94.8721 255.786 91.5351 254.287 88.6162C253.688 88.021 253.05 87.4665 252.376 86.9608C249.841 85.4932 246.929 84.6389 243.822 84.5982C233.849 84.4673 225.663 92.7434 225.537 103.083C225.474 108.254 227.439 112.962 230.667 116.393C231.178 116.936 231.723 117.444 232.295 117.919C233.623 118.254 235.004 118.45 236.424 118.49C236.519 118.492 236.612 118.499 236.707 118.5ZM227.319 105.299C227.319 105.299 227.319 105.292 227.319 105.289C227.319 105.292 227.319 105.295 227.319 105.299Z" fill="#F2A41C"/>
<path d="M245.685 102.534C243.001 100.651 238.924 100.198 238.924 98.0537C238.924 96.7116 240.211 95.7715 241.819 95.7715C243.32 95.7715 244.954 96.5229 245.999 97.4359L247.499 94.6173C246.16 93.4089 244.498 92.7912 242.783 92.6575V90.1875H240.505V92.7108C237.531 93.194 235.467 95.3425 235.467 98.1078C235.467 102.724 241.256 103.443 243.576 105.194C244.158 105.632 244.525 106.134 244.525 106.78C244.525 108.337 243.184 109.089 241.738 109.089C241.051 109.089 240.338 108.941 239.656 108.694C238.636 108.326 237.686 107.735 236.995 107.076L235.146 109.679C235.47 110.023 235.834 110.33 236.225 110.606C236.843 110.341 237.437 110.048 238.008 109.728C237.437 110.048 236.843 110.342 236.225 110.606C237.485 111.497 239.033 112.039 240.506 112.203V114.673H242.784V112.203C246.081 111.773 247.983 109.437 247.983 106.699C247.983 104.721 247.001 103.457 245.686 102.535L245.685 102.534Z" fill="#FFC969"/>
<path d="M138.764 232.153L152.002 232.737L197.274 234.093C197.274 234.093 200.155 265.171 199.816 271.758C199.816 271.758 187.9 272.034 175.879 272.272C174.217 272.306 172.543 272.336 170.869 272.363L169.051 263.733L166.614 272.426C149.933 272.645 131.161 273.089 131.151 272.077C130.979 253.725 138.764 232.153 138.764 232.153Z" fill="#7FA9DB"/>
<path d="M133.726 253.485C133.416 253.485 133.136 253.271 133.065 252.956C132.981 252.589 133.21 252.224 133.576 252.14C137.043 251.347 140.319 249.503 142.799 246.95C145.28 244.398 147.03 241.068 147.729 237.574C147.803 237.206 148.161 236.968 148.529 237.04C148.897 237.113 149.136 237.473 149.062 237.842C148.313 241.59 146.434 245.163 143.773 247.902C141.112 250.64 137.599 252.618 133.879 253.47C133.828 253.482 133.777 253.487 133.727 253.487L133.726 253.485Z" fill="#6794C1"/>
<path d="M169.125 263.945C169.092 263.945 169.059 263.942 169.025 263.938C168.654 263.882 168.396 263.537 168.451 263.165C170.072 252.072 169.964 240.838 168.13 229.779C168.069 229.408 168.319 229.057 168.689 228.995C169.054 228.932 169.409 229.184 169.471 229.556C171.329 240.755 171.438 252.128 169.796 263.362C169.747 263.701 169.456 263.945 169.125 263.945Z" fill="#6794C1"/>
<path d="M169.891 257.676C169.677 257.676 169.467 257.575 169.334 257.387C169.118 257.079 169.192 256.655 169.499 256.438C170.122 255.999 170.819 255.635 171.492 255.284C172.829 254.586 174.09 253.928 174.671 252.782C175.278 251.584 175.34 250.153 175.352 248.668C175.409 241.841 174.743 234.99 173.373 228.307C173.298 227.938 173.534 227.578 173.902 227.502C174.266 227.424 174.628 227.663 174.705 228.031C176.095 234.81 176.77 241.757 176.713 248.679C176.699 250.267 176.624 251.938 175.884 253.399C175.106 254.934 173.589 255.725 172.122 256.492C171.458 256.838 170.832 257.165 170.283 257.551C170.164 257.635 170.028 257.675 169.892 257.675L169.891 257.676Z" fill="#6794C1"/>
<path d="M198.173 254.507C198.077 254.507 197.98 254.487 197.887 254.443C191.176 251.313 186.645 244.62 186.062 236.976C186.034 236.601 186.313 236.273 186.688 236.245C187.06 236.221 187.39 236.497 187.419 236.871C187.964 244.026 192.195 250.286 198.461 253.209C198.802 253.368 198.949 253.772 198.79 254.114C198.674 254.362 198.429 254.507 198.173 254.507Z" fill="#6794C1"/>
<path d="M194.411 272.189C194.052 272.189 193.752 271.908 193.732 271.544L192.626 250.779C192.606 250.404 192.894 250.083 193.269 250.063C193.656 250.037 193.964 250.332 193.983 250.707L195.09 271.472C195.109 271.847 194.822 272.168 194.447 272.188C194.434 272.188 194.422 272.188 194.41 272.188L194.411 272.189Z" fill="#6794C1"/>
<path d="M168.051 264.624C167.98 264.624 167.907 264.612 167.835 264.589L153.191 259.691C152.835 259.572 152.642 259.186 152.761 258.831C152.88 258.473 153.263 258.279 153.621 258.401L168.265 263.298C168.622 263.418 168.814 263.803 168.695 264.159C168.6 264.444 168.335 264.624 168.051 264.624Z" fill="#6794C1"/>
<path d="M160.471 266.409C160.099 266.409 159.796 266.11 159.791 265.738C159.786 265.362 160.086 265.053 160.461 265.047L166.115 264.968H166.125C166.497 264.968 166.8 265.267 166.805 265.639C166.81 266.015 166.51 266.324 166.135 266.33L160.481 266.409H160.471Z" fill="#6794C1"/>
<path d="M186.841 237.881C186.841 237.881 174.248 244.435 144.93 244.372L146.042 236.925L186.841 237.882V237.881Z" fill="#46466D"/>
<path d="M249.363 180.397C249.128 178.698 249.628 176.961 250.449 175.454C251.27 173.948 252.399 172.637 253.519 171.338C254.934 169.697 256.349 168.057 257.763 166.416C258.089 166.038 258.457 165.579 258.805 165.22C258.96 165.061 259.116 164.901 259.232 164.71C259.333 164.543 259.399 164.358 259.472 164.176C259.697 163.614 259.981 163.075 260.318 162.571C260.428 162.406 260.559 162.235 260.75 162.183C260.943 162.132 261.147 162.219 261.307 162.338C261.723 162.646 262.209 163.429 262.257 163.947C262.304 164.464 262.193 164.983 262.039 165.479C261.754 166.404 261.321 167.284 260.764 168.076C260.161 168.931 259.687 169.9 259.324 170.882C260.923 170.069 262.353 168.882 263.646 167.636C265.463 165.886 267.47 164.203 269.36 162.53C270.758 161.292 272.173 160.042 273.821 159.163C274.411 158.848 275.155 158.589 275.721 158.946C276.235 159.271 276.601 159.877 276.304 160.408C276.068 160.829 275.422 161.514 274.937 161.88C272.105 164.018 269.875 166.98 267.505 169.646C268.344 169.65 269.183 169.688 270.02 169.758C270.489 169.798 270.969 169.852 271.393 170.057C272.106 170.404 272.329 170.845 272.405 171.635C272.455 172.161 271.868 172.876 271.096 173.465C271.146 173.626 271.328 173.687 271.48 173.762C272.179 174.109 272.687 174.817 272.791 175.591C272.82 175.805 272.82 176.026 272.763 176.235C272.604 176.812 272.055 177.181 271.539 177.483C271.545 177.9 271.886 178.208 271.894 178.624C271.899 178.944 271.688 179.224 271.472 179.46C270.851 180.138 267.096 182.768 266.8 183.012C266.421 183.324 266.013 183.598 265.601 183.865C264.169 184.797 262.693 185.663 261.18 186.459C260.051 187.053 258.181 187.104 257.245 187.973C255.124 189.945 250.182 194.983 245.406 200.258C243.992 195.029 241.962 188.638 241.166 186.163L249.363 180.394V180.397Z" fill="#FFA384"/>
<path d="M266.692 181.183C266.664 181.183 266.636 181.181 266.607 181.177C266.037 181.088 265.575 180.805 265.268 180.36C264.8 179.677 264.795 178.774 264.846 178.238C264.178 177.893 263.721 177.412 263.484 176.802C263.212 176.099 263.312 175.394 263.437 174.94C263.007 174.623 262.568 174.034 262.571 173.083C262.578 171.589 265.858 169.839 267.268 169.156C267.541 169.025 267.863 169.138 267.994 169.41C268.125 169.68 268.012 170.006 267.742 170.137C265.607 171.172 263.661 172.577 263.66 173.087C263.657 173.978 264.247 174.155 264.253 174.157C264.408 174.2 264.536 174.311 264.602 174.46C264.668 174.607 264.665 174.777 264.594 174.922C264.591 174.927 264.225 175.711 264.502 176.415C264.669 176.839 265.053 177.173 265.642 177.404C265.889 177.5 266.031 177.764 265.976 178.023C265.912 178.332 265.821 179.242 266.167 179.744C266.305 179.944 266.499 180.058 266.776 180.101C267.073 180.147 267.276 180.426 267.23 180.724C267.187 180.992 266.957 181.184 266.693 181.184L266.692 181.183Z" fill="#C67020"/>
<path d="M235.636 210.001C239.404 207.209 244.928 205.514 247.549 202.958C244.759 205.529 239.108 207.169 235.636 210.001Z" fill="#C66260"/>
<path d="M255.343 195.089C255.812 194.702 255.916 194.014 255.575 193.517L246.914 178.843L222.517 190.835C220.736 187.586 215.02 180.087 209.118 169.817C206.603 165.438 204.026 160.984 201.555 157.012C198.063 151.403 191.19 149.344 185.435 152.163C179.524 155.973 178.928 165.182 184.002 172.336C186.101 175.295 185.835 180.654 187.412 184.367C193.694 193.837 207.177 213.542 216.734 216.611C222.173 218.357 229.6 215.587 236.173 211.291C239.979 208.803 244.759 205.529 247.548 202.958C250.526 200.055 252.421 197.906 252.421 197.906C253.591 196.534 255.118 195.272 255.342 195.088L255.343 195.089Z" fill="#FB4E14"/>
<path d="M247.549 202.958C249.99 200.709 251.822 198.852 252.422 197.907C252.422 197.907 250.527 200.056 247.549 202.958Z" fill="#C66260"/>
<path d="M198.273 181.462L197.856 200.434L208.347 211.006L198.273 181.462Z" fill="#46466D"/>
<path d="M250.369 197.471C250.186 197.471 250.008 197.379 249.905 197.212L244.84 188.95C243.643 186.999 242.406 184.982 241.359 182.869C241.226 182.599 241.336 182.272 241.604 182.139C241.873 182.003 242.199 182.114 242.333 182.384C243.358 184.454 244.582 186.449 245.767 188.38L250.832 196.641C250.989 196.898 250.909 197.234 250.653 197.392C250.565 197.446 250.466 197.471 250.369 197.471Z" fill="#94352B"/>
<path d="M222.729 197.195C222.678 197.195 222.626 197.187 222.574 197.171C222.286 197.085 222.122 196.782 222.208 196.494C222.623 195.099 222.613 193.564 222.181 192.174C222.091 191.887 222.251 191.582 222.537 191.492C222.827 191.402 223.129 191.563 223.219 191.85C223.715 193.444 223.726 195.204 223.251 196.805C223.18 197.041 222.964 197.195 222.729 197.195Z" fill="#94352B"/>
<path d="M220.358 194.534C220.254 194.534 220.15 194.505 220.058 194.444C219.808 194.277 219.74 193.939 219.905 193.688C220.175 193.282 220.329 192.79 220.342 192.304C220.349 192.002 220.633 191.777 220.899 191.772C221.199 191.78 221.436 192.03 221.429 192.331C221.412 193.031 221.198 193.708 220.812 194.291C220.708 194.449 220.535 194.534 220.359 194.534H220.358Z" fill="#94352B"/>
<path d="M147.328 124.496C147.706 127.28 146.199 124.96 147.328 128.1C147.884 129.646 151.84 135.191 153.124 136.211C154.409 137.232 158.399 140.487 160.605 140.63C162.241 140.737 160.947 137.1 161.84 135.723C161.046 133.654 160.158 131.546 159.365 129.477L147.328 124.496Z" fill="#46466D"/>
<path d="M147.328 124.496C147.706 127.28 148.629 129.988 150.028 132.422C150.845 133.845 153.3 136.486 154.584 137.506C155.869 138.527 158.398 140.487 160.605 140.63C162.241 140.737 160.947 137.1 161.84 135.723C161.046 133.654 160.158 131.546 159.365 129.477L147.328 124.496Z" fill="#643F40"/>
<path d="M174.519 146.785L174.191 143.287L174.205 142.194L174.18 139.944L158.056 133.939C158.028 133.986 158.229 135.637 158.479 137.636C158.479 137.636 162.206 146.962 174.519 146.784V146.785Z" fill="#F07C63"/>
<path d="M178.131 149.875C176.238 149.791 174.697 148.677 174.568 147.298L174.52 146.784C162.206 146.963 158.48 137.637 158.48 137.637C158.836 140.484 159.292 144.037 159.332 144.661C159.358 145.138 159.381 145.674 159.403 146.207C159.474 147.973 158.406 149.585 156.752 150.199C151.804 152.039 141.898 155.696 141.661 155.583L172.762 168.054L190.017 151.246C186.797 150.613 180.016 149.959 178.132 149.875H178.131Z" fill="#FFA384"/>
<path d="M178.613 117.928C181.794 119.14 182.457 129.966 177.155 127.696L174.913 120.787C174.913 120.787 175.433 116.717 178.614 117.928H178.613Z" fill="#F07C63"/>
<path d="M176.831 109.911C177.687 112.38 178.073 115.011 177.967 117.623C177.922 118.733 177.79 119.859 178.022 120.945C178.274 122.121 178.934 123.16 179.459 124.241C181.643 128.741 184.158 132.632 181.662 138.203C180.574 140.633 177.378 142.737 174.744 142.983C170.784 143.354 166.799 143.021 163.098 141.645C161.633 141.099 159.742 139.563 158.878 138.258C155.093 132.545 153.165 125.618 153.729 118.78C153.887 116.862 154.232 114.935 155.038 113.189C155.844 111.442 157.145 109.878 158.866 109.023L176.831 109.912V109.911Z" fill="#FFA384"/>
<g opacity="0.55">
<path d="M167.139 137.148C168.543 135.742 168.543 133.461 167.139 132.055C165.736 130.648 163.459 130.648 162.056 132.055C160.652 133.461 160.652 135.742 162.056 137.148C163.459 138.555 165.736 138.555 167.139 137.148Z" fill="#F17C63"/>
</g>
<path d="M165.537 128.4C164.918 128.675 164.229 128.432 163.997 127.858L163.515 126.661C163.283 126.086 163.597 125.397 164.215 125.121C164.834 124.846 165.523 125.089 165.755 125.663L166.237 126.86C166.469 127.435 166.155 128.124 165.537 128.4Z" fill="#3B3B4F"/>
<path d="M167.294 125.452C167.2 125.547 167.063 125.598 166.93 125.574C165.622 125.348 164.644 125.555 164.346 125.855C164.203 126.017 163.96 126.044 163.81 125.919C163.659 125.795 163.655 125.565 163.8 125.405C163.812 125.391 163.826 125.377 163.839 125.364C164.516 124.684 166.03 124.661 167.138 124.853C167.339 124.888 167.456 125.078 167.399 125.277C167.379 125.345 167.342 125.404 167.295 125.452H167.294Z" fill="#3B3B4F"/>
<path d="M176.869 124.231C176.328 124.416 175.762 124.15 175.606 123.635L175.284 122.564C175.129 122.049 175.442 121.481 175.984 121.296C176.526 121.111 177.092 121.377 177.247 121.892L177.57 122.963C177.725 123.478 177.411 124.046 176.869 124.231Z" fill="#3B3B4F"/>
<path d="M178.562 121.838C178.476 121.912 178.357 121.944 178.246 121.912C177.158 121.608 176.317 121.703 176.043 121.937C175.91 122.065 175.704 122.067 175.585 121.947C175.466 121.828 175.479 121.629 175.613 121.504C175.625 121.492 175.637 121.482 175.65 121.471C176.27 120.942 177.55 121.049 178.473 121.308C178.641 121.355 178.726 121.528 178.663 121.695C178.642 121.752 178.607 121.8 178.562 121.838Z" fill="#3B3B4F"/>
<path d="M166.4 119.43C166.4 119.43 166.018 119.489 165.661 119.705C165.537 119.78 163.584 120.643 161.878 122.048C162.317 122.139 162.314 122.37 161.413 122.445C161.396 122.461 161.378 122.476 161.361 122.491C160.745 123.05 160.325 123.779 160.13 124.56C160.352 124.521 160.631 124.491 160.851 124.457C160.639 124.558 160.345 124.712 160.065 124.864C159.965 125.455 159.991 126.068 160.175 126.656C160.22 126.8 160.257 126.879 160.28 126.853C163.033 123.818 164.67 123.154 167.126 122.219C167.713 121.996 167.946 121.268 167.593 120.75C167.275 120.285 166.867 119.878 166.4 119.431V119.43Z" fill="#643F40"/>
<path d="M173.44 119.033C173.497 118.473 173.665 117.92 173.865 117.304C173.865 117.304 174.235 117.173 174.659 117.192C174.779 117.197 176.241 117.084 177.974 117.268C177.971 117.386 177.973 117.504 177.967 117.623C177.937 118.38 177.867 119.145 177.899 119.9C176.908 119.904 175.594 119.965 174.571 120.101C173.938 120.185 173.376 119.657 173.44 119.032V119.033Z" fill="#643F40"/>
<path d="M145.454 108.594C145.537 108.442 145.648 108.317 145.789 108.215C147.738 106.82 175.676 101.011 175.879 101.186C176.154 101.426 176.374 101.723 176.531 102.041C176.665 102.31 177.175 104.203 177.543 106.762C177.584 107.053 179.954 107.718 179.991 108.024L180.251 108.487C180.6 110.943 179.035 115.473 177.973 117.446C177.924 116.735 177.598 115.522 177.288 114.497C176.923 113.291 175.878 112.418 174.631 112.256C170.156 111.675 165.814 113.146 162.613 114.832C159.688 116.372 157.715 118.094 157.477 118.591C157.466 118.59 157.453 118.588 157.442 118.585C157.679 120.363 157.847 122.151 157.93 123.944C157.954 124.463 157.951 125.024 157.77 125.496C157.695 125.69 157.594 125.871 157.446 126.025C157.015 126.474 156.321 126.581 155.712 126.454C155.569 126.424 155.43 126.383 155.293 126.334C154.622 126.091 153.892 126.485 153.773 127.19L152.901 132.383C152.736 133.363 151.466 133.675 150.89 132.867C150.025 131.655 149.206 130.136 148.507 128.457L151.118 133.942C151.118 133.942 144.962 127.363 143.567 116.061C143.492 115.454 143.597 114.896 143.704 114.385C143.733 114.243 143.733 114.103 143.706 113.96C143.34 112.001 144.571 110.201 145.454 108.595V108.594Z" fill="#643F40"/>
<path d="M155.488 126.54C155.488 126.54 152.273 123.667 149.498 126.366C146.723 129.064 152.981 137.835 157.447 133.143L155.488 126.54Z" fill="#FFA384"/>
<path d="M172.026 135.374C171.756 135.374 171.487 135.362 171.219 135.338C170.92 135.313 170.699 135.048 170.725 134.749C170.751 134.45 171.009 134.217 171.314 134.253C173.642 134.451 176.083 133.648 177.833 132.088C178.056 131.888 178.401 131.907 178.601 132.133C178.8 132.357 178.78 132.701 178.556 132.902C176.789 134.478 174.397 135.374 172.027 135.374H172.026Z" fill="#C67020"/>
<path d="M175.311 136.605C175.093 136.605 174.887 136.473 174.803 136.256C174.695 135.976 174.834 135.66 175.114 135.551L176.434 135.04C176.716 134.933 177.029 135.072 177.137 135.353C177.245 135.633 177.106 135.949 176.826 136.057L175.506 136.568C175.442 136.593 175.376 136.605 175.311 136.605Z" fill="#C67020"/>
<path d="M173.107 131.222C172.979 131.222 172.851 131.215 172.722 131.198C172.423 131.161 172.212 130.889 172.248 130.59C172.285 130.292 172.559 130.082 172.855 130.116C173.67 130.218 174.575 129.792 175.36 129.387C175.68 129.221 175.717 129.111 175.722 129.089C175.745 128.974 175.554 128.708 175.482 128.608L171.917 123.62C171.742 123.375 171.798 123.035 172.042 122.86C172.285 122.686 172.626 122.741 172.8 122.985L176.365 127.973C176.554 128.236 176.903 128.726 176.786 129.306C176.656 129.943 176.054 130.254 175.857 130.356C175.035 130.781 174.089 131.222 173.106 131.222H173.107Z" fill="#C67020"/>
<path d="M132.924 161.22C135.779 155.414 146.269 152.716 146.269 152.716L154.584 149.968C154.584 149.968 156.106 151.54 158.193 153.692C164.279 159.967 174.574 159.109 179.537 151.91L181.073 149.682C181.073 149.682 187.113 149.471 190.177 150.414C190.182 150.415 190.184 150.418 190.188 150.419C193.272 151.085 195.018 152.248 195.018 152.248C200.053 160.326 196.981 214.99 196.852 221.257C196.758 225.792 197.943 232.72 198.605 236.204C198.829 237.379 198.02 238.499 196.836 238.649C156.557 243.734 136.972 236.135 136.972 236.135C134.519 234.463 138.718 214.041 138.718 214.041C141.3 193.568 124.166 179.033 132.926 161.218L132.924 161.22Z" fill="#FFDDBB"/>
<path d="M199.437 154.404C199.376 166.285 199.114 177.254 199.052 189.135C198.954 208.196 198.986 227.925 205.167 245.952C199.94 248.162 194.422 249.53 188.782 249.593C187.608 249.607 186.614 248.713 186.514 247.542C183.747 215.006 183.357 182.267 185.347 149.675C191.388 149.86 196.126 151.16 199.437 154.405V154.404Z" fill="#FB4E14"/>
<path d="M155.76 235.575C155.505 235.575 155.262 235.431 155.145 235.185C154.985 234.845 155.13 234.439 155.47 234.279C162.604 230.899 168.341 224.401 170.817 216.896C170.935 216.538 171.32 216.341 171.675 216.463C172.032 216.581 172.225 216.966 172.107 217.323C169.518 225.175 163.514 231.975 156.05 235.51C155.957 235.554 155.858 235.576 155.76 235.576V235.575Z" fill="#F2C49C"/>
<path d="M167.47 232.124C167.261 232.124 167.055 232.028 166.921 231.846C166.7 231.543 166.765 231.117 167.067 230.894L171.907 227.341C172.21 227.117 172.635 227.184 172.857 227.487C173.079 227.79 173.013 228.217 172.711 228.439L167.871 231.993C167.75 232.082 167.609 232.124 167.47 232.124Z" fill="#F2C49C"/>
<path d="M190.853 247.525C190.587 247.525 190.355 247.33 190.316 247.059C186.499 220.551 185.786 187.09 188.308 152.836C188.33 152.537 188.602 152.311 188.89 152.332C189.189 152.355 189.415 152.616 189.392 152.916C186.876 187.093 187.586 220.472 191.392 246.902C191.436 247.2 191.229 247.477 190.932 247.519C190.906 247.523 190.879 247.525 190.853 247.525Z" fill="#94352B"/>
<path d="M150.105 103.002C147.795 103.037 145.433 104.166 144.285 106.175C143.743 107.123 143.489 108.208 143.343 109.289C142.95 112.187 143.111 116.693 144.146 119.428L150.221 115.762C152.719 112.586 155.3 109.074 156.551 105.23C154.659 103.9 152.416 102.966 150.105 103.001V103.002Z" fill="#643F40"/>
<path d="M150.285 105.341C155.41 100.499 163.091 97.2106 169.429 95.8387C170.454 95.6166 171.51 95.445 172.531 95.6906C173.552 95.9363 174.549 96.6669 174.997 97.8364C175.161 98.2654 175.261 98.7621 175.556 99.0638C175.9 99.416 176.395 99.388 176.837 99.3203C178.612 99.0502 180.536 98.474 182.098 99.5605C183.635 100.631 184.286 103.08 184.054 105.253C183.821 107.426 182.87 109.371 181.843 111.15C180.966 112.668 179.995 114.146 178.741 115.175C177.487 116.205 175.903 116.743 174.456 116.242C173.578 115.939 172.766 115.268 171.855 115.259C170.915 115.25 170.08 115.944 169.236 116.458C167.774 117.348 166.12 117.743 164.498 117.589C163.149 117.462 161.823 116.964 160.472 117.02C158.037 117.121 156.559 120.126 154.586 121.905L150.287 105.34L150.285 105.341Z" fill="#643F40"/>
<path d="M155.95 105.787C155.854 105.787 155.758 105.762 155.67 105.71C154.587 105.059 153.45 104.486 152.291 104.008C152.013 103.893 151.881 103.574 151.995 103.297C152.111 103.019 152.43 102.885 152.705 103.001C153.914 103.5 155.1 104.098 156.229 104.776C156.487 104.931 156.571 105.266 156.416 105.524C156.314 105.695 156.134 105.789 155.949 105.789L155.95 105.787Z" fill="#442727"/>
<path d="M159.467 112.957C159.174 112.957 158.931 112.723 158.924 112.427C158.916 112.126 159.153 111.876 159.453 111.868C161.077 111.824 162.519 110.915 164.046 109.952C165.67 108.928 167.34 107.906 169.329 107.88C170.098 107.884 170.833 108.055 171.545 108.221C172.276 108.391 172.976 108.551 173.655 108.532C175.205 108.485 176.7 107.386 177.207 105.918C177.306 105.634 177.617 105.484 177.899 105.581C178.183 105.68 178.333 105.99 178.235 106.275C177.575 108.186 175.705 109.561 173.687 109.621C172.856 109.649 172.065 109.461 171.299 109.282C170.616 109.123 169.971 108.973 169.324 108.969H169.299C167.648 108.969 166.18 109.894 164.626 110.874C163.043 111.873 161.405 112.905 159.483 112.956H159.468L159.467 112.957Z" fill="#442727"/>
<path d="M178.242 103.853C178.031 103.853 177.83 103.729 177.741 103.521C177.551 103.074 177.505 102.566 177.611 102.091C177.675 101.798 177.965 101.614 178.26 101.678C178.553 101.744 178.737 102.035 178.672 102.329C178.617 102.583 178.641 102.855 178.743 103.095C178.86 103.371 178.731 103.692 178.455 103.808C178.386 103.838 178.314 103.852 178.242 103.852V103.853Z" fill="#442727"/>
<path d="M132.415 243.183C133.195 245.444 135.114 247.177 137.276 248.191C139.439 249.205 141.842 249.578 144.219 249.804C146.842 250.052 152.011 249.476 154.644 249.39C155.083 249.376 155.556 249.345 155.897 249.068C156.471 248.602 156.339 247.727 156.266 246.991C155.145 235.733 153.447 225.178 153.911 213.768C154.774 192.506 154.755 173.34 152.097 150.343C147.479 151.545 146.07 152.087 141.66 153.912C139.621 154.756 137.597 156.186 135.946 157.654C131.792 161.351 130.564 166.976 130.107 172.524C129.286 182.496 129.299 192.824 129.307 202.829C129.312 210.579 130.314 218.329 132.279 225.824L132.415 243.183Z" fill="#FB4E14"/>
<path d="M145.142 263.388C145.172 261.453 141.229 251.624 141.229 251.624C141.229 251.624 136.016 233.575 134.423 233.034L130.13 251.277C128.647 253.354 128.504 256.16 129.958 258.254C129.969 258.269 129.979 258.284 129.99 258.299L133.801 263.698L131.954 272.077H143.925C144.309 269.629 145.128 264.314 145.142 263.388H145.142Z" fill="#FFA384"/>
<path d="M141.887 212.07C141.955 211.507 142.019 211.06 142.078 210.759C142.88 206.626 153.253 161.036 147.454 157.712L147.706 158.037C141.387 154.417 135.937 154.527 131.593 163.214C127.629 171.139 123.597 182.613 121.381 191.49C119.861 197.582 117.342 209.313 117.053 213.924C116.656 220.255 121.599 241.772 122.286 244.134C122.485 244.82 122.849 245.372 123.264 245.814C124.278 246.898 125.6 247.311 125.6 247.311C126.738 251.099 127.622 253.606 127.861 253.827C128.76 254.655 143.778 251.026 143.778 251.026C143.778 251.026 143.566 248.576 143.264 244.947C143.261 244.92 143.26 244.891 143.257 244.863C144.31 244.095 144.966 242.885 145.256 241.626C145.56 240.31 145.509 238.936 145.402 237.584C144.835 230.398 142.391 219.28 141.885 212.07H141.887Z" fill="#FB4E14"/>
<path d="M143.678 250.394C143.398 250.394 143.161 250.18 143.137 249.895C143.047 248.834 142.901 247.115 142.723 244.991C142.708 244.802 142.785 244.534 142.939 244.422C143.803 243.792 144.44 242.754 144.729 241.503C145 240.326 144.979 239.102 144.862 237.626C144.588 234.148 143.854 229.638 143.143 225.276C142.387 220.632 141.606 215.831 141.344 212.108C141.342 212.074 141.343 212.037 141.347 212.003C141.418 211.425 141.484 210.965 141.544 210.655C141.622 210.253 141.789 209.464 142.024 208.362C143.215 202.754 146.377 187.856 147.858 175.769C147.894 175.47 148.164 175.259 148.464 175.295C148.762 175.332 148.975 175.604 148.938 175.903C147.45 188.037 144.281 202.968 143.087 208.589C142.855 209.683 142.689 210.466 142.612 210.863C142.557 211.147 142.497 211.564 142.433 212.085C142.694 215.75 143.468 220.504 144.217 225.102C144.93 229.486 145.668 234.018 145.947 237.542C146.054 238.906 146.11 240.359 145.788 241.75C145.467 243.14 144.775 244.321 143.825 245.112C143.997 247.178 144.134 248.791 144.22 249.804C144.245 250.104 144.024 250.368 143.724 250.393C143.709 250.395 143.693 250.395 143.677 250.395L143.678 250.394Z" fill="#94352B"/>
<path d="M129.265 248.05C129.007 248.05 128.778 247.865 128.731 247.602C128.677 247.306 128.873 247.022 129.169 246.969L143.169 244.41C143.462 244.357 143.747 244.552 143.801 244.848C143.855 245.144 143.659 245.428 143.363 245.481L129.363 248.04C129.331 248.046 129.298 248.05 129.266 248.05H129.265Z" fill="#94352B"/>
<path d="M168.381 164.058C168.339 164.058 168.297 164.058 168.254 164.058C162.791 164.016 157.408 161.237 154.204 156.804C153.984 156.499 154.052 156.074 154.356 155.853C154.659 155.631 155.085 155.699 155.305 156.005C158.26 160.093 163.226 162.657 168.264 162.696C168.302 162.696 168.342 162.696 168.381 162.696C173.379 162.696 178.33 160.217 181.325 156.207C181.55 155.905 181.976 155.844 182.277 156.069C182.577 156.294 182.639 156.722 182.414 157.023C179.167 161.371 173.799 164.058 168.381 164.058Z" fill="#F2C49C"/>
<path d="M150.913 122.3C150.706 122.3 150.508 122.18 150.417 121.98C148.784 118.382 148.12 114.403 148.495 110.471C148.633 109.024 149.213 108.112 150.13 107.905C150.423 107.833 150.714 108.022 150.78 108.317C150.846 108.61 150.662 108.902 150.369 108.968C149.78 109.1 149.62 110.135 149.578 110.573C149.221 114.317 149.853 118.105 151.407 121.529C151.532 121.803 151.41 122.126 151.138 122.25C151.065 122.283 150.988 122.3 150.913 122.3H150.913Z" fill="#442727"/>
<path d="M155.937 130.208C155.727 130.208 155.526 130.086 155.438 129.88C155.133 129.175 154.524 128.587 153.81 128.307C153.097 128.029 152.251 128.045 151.549 128.358C151.277 128.481 150.953 128.355 150.831 128.081C150.71 127.805 150.834 127.483 151.109 127.362C152.083 126.93 153.211 126.904 154.205 127.293C155.199 127.682 156.012 128.467 156.435 129.447C156.554 129.722 156.428 130.044 156.152 130.163C156.082 130.193 156.009 130.208 155.937 130.208Z" fill="#C67020"/>
<path d="M153.664 131.485C153.533 131.485 153.402 131.439 153.299 131.344C152.823 130.913 152.537 130.298 152.51 129.656C152.484 129.016 152.719 128.379 153.156 127.911C153.362 127.69 153.706 127.678 153.925 127.884C154.145 128.089 154.156 128.434 153.951 128.654C153.715 128.908 153.582 129.266 153.597 129.612C153.611 129.958 153.773 130.304 154.029 130.537C154.251 130.739 154.268 131.083 154.067 131.306C153.959 131.425 153.811 131.484 153.664 131.484V131.485Z" fill="#C67020"/>
<path d="M354.726 273.144H321.479C320.978 273.144 320.573 272.738 320.573 272.237C320.573 271.735 320.978 271.329 321.479 271.329H354.726C355.227 271.329 355.632 271.735 355.632 272.237C355.632 272.738 355.227 273.144 354.726 273.144Z" fill="#899CE8"/>
<path d="M307.201 273.144H66.4818C65.9816 273.144 65.5759 272.738 65.5759 272.237C65.5759 271.735 65.9816 271.329 66.4818 271.329H307.201C307.701 271.329 308.106 271.735 308.106 272.237C308.106 272.738 307.701 273.144 307.201 273.144Z" fill="#899CE8"/>
</svg>
