<svg width="27" height="27" viewBox="0 0 27 27" fill="none" xmlns="http://www.w3.org/2000/svg">
<g clip-path="url(#clip0_1_1559)">
<path d="M13.5 27C20.9558 27 27 20.9558 27 13.5C27 6.04416 20.9558 0 13.5 0C6.04416 0 0 6.04416 0 13.5C0 20.9558 6.04416 27 13.5 27Z" fill="#062964"/>
<path d="M26.8485 15.5267L18.7821 7.46027L11.7594 14.6988L6.23515 19.9142L13.3186 26.9976C13.379 26.9985 13.4394 26.9999 13.5001 26.9999C20.267 27 25.8707 22.021 26.8485 15.5267Z" fill="#070C49"/>
<path d="M20.0151 20.2613H6.98483C6.44093 20.2613 5.99991 19.8204 5.99991 19.2765V18.2463C5.99991 17.7024 6.44082 17.2614 6.98483 17.2614H20.0151C20.559 17.2614 20.9999 17.7024 20.9999 18.2463V19.2765C20.9999 19.8204 20.559 20.2613 20.0151 20.2613Z" fill="#FF9367"/>
<path d="M20.0151 17.2614H13.4696V20.2614H20.0151C20.559 20.2614 20.9999 19.8205 20.9999 19.2766V18.2463C20.9999 17.7023 20.559 17.2614 20.0151 17.2614Z" fill="#FF764C"/>
<path d="M7.13966 12.7841C6.4914 12.7841 5.99401 12.2035 6.09874 11.5638C6.68156 8.00207 9.77337 5.28409 13.4999 5.28409C17.2264 5.28409 20.3184 8.00207 20.9011 11.5638C21.0058 12.2035 20.5084 12.7841 19.8601 12.7841H7.13966Z" fill="#FF764C"/>
<path d="M20.9012 11.5638C20.3183 8.00203 17.2265 5.284 13.5 5.284C13.4898 5.284 13.4799 5.28463 13.4697 5.28473V12.784H19.8603C20.5086 12.7841 21.0058 12.2035 20.9012 11.5638Z" fill="#FF450C"/>
<path d="M20.2499 14.2614H6.7499C6.33572 14.2614 5.99991 13.9256 5.99991 13.5114C5.99991 13.0972 6.33572 12.7614 6.7499 12.7614H20.2499C20.6641 12.7614 20.9999 13.0972 20.9999 13.5114C20.9999 13.9256 20.6642 14.2614 20.2499 14.2614Z" fill="#935635"/>
<path d="M20.2499 12.7614H13.4696V14.2613H20.2499C20.6641 14.2613 20.9999 13.9255 20.9999 13.5113C20.9999 13.0972 20.6642 12.7614 20.2499 12.7614Z" fill="#804000"/>
<path d="M20.2499 17.2614H6.7499C6.33572 17.2614 5.99991 16.9256 5.99991 16.5114C5.99991 16.0972 6.33572 15.7614 6.7499 15.7614H20.2499C20.6641 15.7614 20.9999 16.0972 20.9999 16.5114C20.9999 16.9255 20.6642 17.2614 20.2499 17.2614Z" fill="#935635"/>
<path d="M20.2499 15.7614H13.4696V17.2613H20.2499C20.6641 17.2613 20.9999 16.9255 20.9999 16.5113C20.9999 16.0972 20.6642 15.7614 20.2499 15.7614Z" fill="#804000"/>
<path d="M20.2499 15.7614H6.7499C6.33572 15.7614 5.99991 15.4255 5.99991 15.0114C5.99991 14.5972 6.33572 14.2614 6.7499 14.2614H20.2499C20.6641 14.2614 20.9999 14.5972 20.9999 15.0114C20.9999 15.4255 20.6642 15.7614 20.2499 15.7614Z" fill="#FFD15D"/>
<path d="M20.2499 14.2614H13.4696V15.7614H20.2499C20.6641 15.7614 20.9999 15.4255 20.9999 15.0114C20.9999 14.5972 20.6642 14.2614 20.2499 14.2614Z" fill="#F4A200"/>
<path d="M14.7818 15.7614C14.7617 15.8441 14.75 15.93 14.75 16.0189C14.75 16.6213 15.2385 17.1098 15.8409 17.1098C15.9815 17.1098 16.1154 17.0823 16.2388 17.0339C16.5129 17.3314 16.9045 17.5189 17.341 17.5189C17.8517 17.5189 18.3021 17.2632 18.5729 16.8734C18.759 17.0211 18.9939 17.1099 19.25 17.1099C19.8525 17.1099 20.341 16.6214 20.341 16.019C20.341 15.9301 20.3292 15.8441 20.3092 15.7614H14.7818V15.7614Z" fill="#40A057"/>
<path d="M6.86443 15.7614C6.84988 15.8451 6.84081 15.9309 6.84081 16.0189C6.84081 16.8474 7.51232 17.5189 8.34078 17.5189C8.7336 17.5189 9.08998 17.3667 9.35739 17.1196C9.50922 17.1714 9.67138 17.2007 9.84076 17.2007C10.3048 17.2007 10.7194 16.9899 10.9945 16.659C11.1059 16.6854 11.2213 16.7007 11.3407 16.7007C11.4602 16.7007 11.5757 16.6853 11.687 16.659C11.9622 16.9899 12.3767 17.2007 12.8407 17.2007C13.6487 17.2007 14.3056 16.5615 14.3376 15.7614H6.86443Z" fill="#54C674"/>
<path d="M14.3378 15.7614H13.4697V17.0609C13.9654 16.8307 14.3146 16.3386 14.3378 15.7614Z" fill="#40A057"/>
</g>
<defs>
<clipPath id="clip0_1_1559">
<rect width="27" height="27" fill="white"/>
</clipPath>
</defs>
</svg>
