<svg width="46" height="46" viewBox="0 0 46 46" fill="none" xmlns="http://www.w3.org/2000/svg">
<path d="M40.9834 26.8173C43.3124 16.6646 36.97 6.54613 26.8173 4.21712C16.6645 1.8881 6.54607 8.23048 4.21706 18.3832C1.88804 28.5359 8.23042 38.6544 18.3831 40.9834C28.5359 43.3124 38.6543 36.9701 40.9834 26.8173Z" fill="#B9C4E1"/>
<path d="M22.5961 30.3466C26.6479 30.3466 29.9324 25.7972 29.9324 20.1853C29.9324 14.5733 26.6479 10.0239 22.5961 10.0239C18.5444 10.0239 15.2598 14.5733 15.2598 20.1853C15.2598 25.7972 18.5444 30.3466 22.5961 30.3466Z" fill="white"/>
<path d="M22.4797 29.697C16.3404 29.697 10.8476 31.1678 7.19836 33.4831C8.93314 35.9396 11.2304 37.9455 13.8984 39.3332C16.5664 40.7208 19.5276 41.4501 22.5349 41.4601C25.5422 41.4701 28.5082 40.7605 31.1854 39.3905C33.8625 38.0205 36.173 36.03 37.9241 33.5851C34.2749 31.2115 28.7122 29.697 22.4797 29.697Z" fill="white"/>
<path d="M23.7145 22.5967H21.4777C19.9304 22.5967 18.676 23.8511 18.676 25.3984V31.7736C18.676 33.321 19.9304 34.5753 21.4777 34.5753H23.7145C25.2618 34.5753 26.5162 33.321 26.5162 31.7736V25.3984C26.5162 23.8511 25.2618 22.5967 23.7145 22.5967Z" fill="white"/>
<path d="M16.4189 20.7618C16.6374 22.3927 16.2762 23.8052 15.6093 23.9188C14.9424 24.0324 14.2259 22.8005 14.0075 21.1724C13.7891 19.5444 14.1473 18.1319 14.8142 18.0183C15.4812 17.9047 16.1976 19.1221 16.4189 20.7618Z" fill="white"/>
<path d="M28.7762 20.7618C28.5548 22.3927 28.916 23.8052 29.5829 23.9188C30.2498 24.0324 30.9663 22.8005 31.1876 21.1724C31.409 19.5444 31.0449 18.1319 30.378 18.0183C29.7111 17.9047 28.9946 19.1221 28.7762 20.7618Z" fill="white"/>
<path d="M15.5249 19.7861C15.2764 18.1571 15.0298 16.53 14.7851 14.9049C14.6949 14.3224 14.6075 13.6904 14.823 13.1342C15.0385 12.5779 15.6705 12.1323 16.2326 12.342C16.0083 11.212 17.2607 10.3761 18.3499 10.0121C20.1728 9.34415 22.1248 9.10401 24.0553 9.31019C25.9925 9.52731 27.79 10.424 29.1287 11.8411C29.5503 12.2846 29.8765 12.8099 30.0868 13.3846C30.4625 14.5001 30.2237 15.7145 29.982 16.8795L29.3995 19.6259C29.3724 19.8371 29.2912 20.0378 29.1636 20.2084C28.9364 20.4617 28.552 20.4792 28.2113 20.4792L17.2956 20.5054C16.6112 20.5054 15.72 20.3365 15.6297 19.6579" fill="white"/>
</svg>
